<svg xmlns="http://www.w3.org/2000/svg" viewBox="0 0 436.26 395.12"><defs><style>.cls-1{fill:#eab858;}.cls-2{fill:#edc16d;}</style></defs><title>FLECHAS</title><g id="Capa_2" data-name="Capa 2"><g id="Capa_1-2" data-name="Capa 1"><path class="cls-1" d="M424.38,172.4c.17.51,0,1.95.17,3.07.16,0,.31,0,.46,0a18.39,18.39,0,0,0,.23-3.3c0-.77-.05-1.56-.14-2.37a24.34,24.34,0,0,0-.47-2.44c.13-.73.41,0,.58.1-.59-2.25-1.51-4.8-2.18-3.28,1,2.18.68,2.74,1.84,5.11C425.05,171.25,424.69,172.71,424.38,172.4Z"/><path class="cls-1" d="M336.85,5.9l.94.79A9.43,9.43,0,0,0,336.85,5.9Z"/><path class="cls-1" d="M336.85,5.9l-2.43-2.06C334.08,3.94,335.63,5,336.85,5.9Z"/><path class="cls-1" d="M420,141.9a10.84,10.84,0,0,0,.52,1.63c-.13-.52-.25-1-.37-1.55A.55.55,0,0,1,420,141.9Z"/><path class="cls-1" d="M375.79,40.55l.63.73a7.11,7.11,0,0,0,.79.38Z"/><path class="cls-1" d="M399.09,73.21c-.43-.8-1.21-.71-1.66-.85a4.52,4.52,0,0,1,1.42,1.46C399,73.77,399.06,73.58,399.09,73.21Z"/><path class="cls-1" d="M421.06,132.6l.35,1.07C421.32,133.39,421.16,132.92,421.06,132.6Z"/><path class="cls-1" d="M355.79,19.91a.71.71,0,0,0-.1-.43C355.63,19.55,355.68,19.7,355.79,19.91Z"/><path class="cls-1" d="M419.9,140.88c-.1-.52-.2-1.06-.29-1.59C419.72,140,419.81,140.51,419.9,140.88Z"/><path class="cls-1" d="M420.39,141.81a1.54,1.54,0,0,1-.49-.93c.08.38.16.74.24,1.1C420.26,142.06,420.37,142.06,420.39,141.81Z"/><path class="cls-1" d="M329,3.37a.65.65,0,0,1,0,.13l.59.33,1.46.84c.48.29,1,.61,1.46.93l-1.15-.39c1.41,1.2,3.35,2.63,5.33,4.07,1,.73,2,1.42,2.93,2.16s1.78,1.45,2.53,2.09c1.14.45,2.89,1.9,2.12.65,1,1.14,2.14,2.19,3.23,3.22s2.14,2.07,3.24,3,2.21,1.89,3.33,2.79l.85.67.8.7L357.29,26l3.21,2.75a41,41,0,0,1,3.05,2.83,51.59,51.59,0,0,1,5.28,6.29c-.89-.93-2.35-2-1.64-1.28l1.65,1.62c.54.54,1.05,1.12,1.58,1.68l3.14,3.38c0-.94-.52-1.15-1.44-2.93a27,27,0,0,1,4.47,4.2c-1.52-1.45-1.7-1.29-1.38-.57s1.13,2,1.54,2.82c-.05-.36.49,0,.54-.23,2.16,4.46,1.44-.11,5,5.54L381.8,52c.41.46.83.9,1.25,1.35s.79.91,1.19,1.37a29.3,29.3,0,0,1,2.32,3c.08,1.3-1.79-2-2.35-1.77,2.18,3,5.43,5.25,6.63,8.53-.51-.61-1.08-1.4-1.64-2.19-.28-.4-.57-.79-.87-1.15s-.58-.7-.85-1c.37.86.68,1.52.93,2.07s.46,1,.68,1.4c.43.8.88,1.46,1.56,2.64l-.13-.23,1.55,2.76.78,1.37c.26.46.52.92.74,1.39-.19-.5-.42-1-.65-1.48a11.26,11.26,0,0,1,2.52,2.64,35,35,0,0,1,2,3.17c.64,1.12,1.31,2.29,2,3.5A32,32,0,0,0,402,83.16c-3.79-5-1-.6-1.94-.67.54,1.54,1.44,3.81.92,3.29a13.3,13.3,0,0,1,1.95,3.62,16.69,16.69,0,0,0,2.37,4.45c-.15.28,1.28,2.91.43,2.55,1.77,3.43,0-1,.45-.84,1.69,2.51,2.64,5.92,3.86,9.55.3.91.61,1.83.94,2.77s.58,1.92.91,2.89a46.39,46.39,0,0,0,2.4,5.84c.37.85.65,1.63.92,2.34s.54,1.35.79,2c.49,1.18.95,2.18,1.39,3.16s.89,2,1.37,3.08.86,2.46,1.35,4.12c.14,2.37-1.32-1.64-1.32-1.64.25,1.87.54,3.48.91,5.06s.85,3.09,1.27,4.8c-.35-.66-.4.11-.49,1.21.56,2.77,1.24,1.7,1.53,5.45a12.1,12.1,0,0,1-1.49-2.61c.4,1.61.87,3.21,1.33,4.83s.77,3.28,1.1,5c-.32,1-.92-2-1.36-3.15.67,3.81,1.7,9.89,2.38,11l0-1.85c-.12.44-.56-.11-.75-.9-.95-3.23-.36-4.78-.13-5l.47,2.42c.57-1.34.2-3.8-.39-6.53-.25-1.37-.72-2.78-1.08-4.17a38.78,38.78,0,0,1-.91-4l1.42,1.85-1.77-4.85c.05-.57.15-1.05.35-1.11s.5.32.78,1.52c0-.45,0-.84-.07-1.18s-.11-.62-.17-.86a8.43,8.43,0,0,0-.37-1.21,8,8,0,0,1-.53-2.88c0-.35.1-.22.21.08l-1.1-3.33c.37.61.61-.75.94,1.38a27.36,27.36,0,0,0-.85-4.19c-.38-1.23-.78-2.31-1.15-3.27-.73-1.92-1.3-3.36-1.23-4.62l.21.49c-.35-1-.6-1.83-.85-2.42s-.43-1-.57-1.24c-.29-.52-.42-.52-.53-.45s-.45.55-1.93-2.38l.42-4.8-1-.54c-.29-.85-.9-2.52-.48-2.33-1.73-2.92-.11.65-1.3-1a24.69,24.69,0,0,0-1.1-3.54c-.23-.62-.48-1.26-.74-1.88s-.49-1.24-.77-1.82c-1.07-2.32-1.91-4.29-1.54-5-1.18-1.16,1.28,4-1-.07.35-.88-.26-2.08-1.08-3.53a24,24,0,0,1-2.62-5c1.17.76,2.55,4.27,1.3.46-1.07-.8-1.89-2.53-2.66-4.44-.36-1-.82-1.92-1.24-2.84a20.8,20.8,0,0,0-1.33-2.47c-.45.17-1.44-1.36-2.7-3.51-.15-.27-.32-.55-.48-.83l-.55-.86c-.38-.58-.77-1.18-1.16-1.8-.79-1.22-1.62-2.46-2.44-3.6.21.08-1-2.26-2.9-5l-2.88-4.41c-.49-.73-.92-1.46-1.39-2.11s-.89-1.26-1.26-1.8l.22,0c-.69-.11-1.83-1.25-3.12-2.73-.64-.74-1.32-1.57-2-2.39s-1.43-1.59-2.1-2.31c.53-.24,1.18.13,2.74,1.6-.78-1-1.61-1.87-2.41-2.8a16.26,16.26,0,0,1-3.32-3l1.14.23c-.81-.92-1.66-1.82-2.55-2.72l-2.83-2.63c-1-.91-1.95-1.86-2.95-2.89-.49-.52-1-1-1.49-1.61s-1.06-1.1-1.59-1.68c-.71.23,2.32,4.75-2.78.49.07-.42.31-1,1.68.06a14,14,0,0,1-2.4-2.09l2.33,1.4c-1.89-2.17-1.43-.67-3.05-2.29.39-.34-1-1.43-.46-1.5a17.61,17.61,0,0,0,2.08,2c-.91-.92-1.88-2-2.68-2.94l-1.09-1.29a6.94,6.94,0,0,1-.67-.94c0,.37-.46.51-1.93-.68-3.73-3.18-.87-1.56-2.87-3.64a20.86,20.86,0,0,1-2.15-1.52c-.77-.55-1.46-1-1.74-.7a4.24,4.24,0,0,1-1.42-1.83c-.55-.33-1.42-.95-2.37-1.65s-2-1.53-3-2.14C338.43,6.49,337,5.67,338,6.83l.49.42L338.1,7h0c-1.81-1-3.57-2.22-5.3-3.46-.43-.32-.88-.61-1.33-.9l-1.33-.9-.76-.52C329.28,2,329.15,2.68,329,3.37Z"/><path class="cls-1" d="M338,6.83l-.17-.14a2.22,2.22,0,0,1,.31.35A1.06,1.06,0,0,1,338,6.83Z"/><path class="cls-1" d="M376.75,46.78a2.09,2.09,0,0,0,.31.69A2.91,2.91,0,0,0,376.75,46.78Z"/><path class="cls-1" d="M390.65,66.26l1.61,3C391.59,67.94,391.08,67,390.65,66.26Z"/><path class="cls-1" d="M399.61,82.32a.81.81,0,0,0,.44.17s0,0,0,0Z"/><path class="cls-1" d="M422.32,158.09l.08.88s.09,0,.12.1C422.46,158.74,422.38,158.42,422.32,158.09Z"/><path class="cls-1" d="M422.52,159.07l.16,1A2.76,2.76,0,0,0,422.52,159.07Z"/><path class="cls-1" d="M423,162.08l-.34-2A6.2,6.2,0,0,0,423,162.08Z"/><path class="cls-1" d="M418.66,134.08l-.32-.22A.41.41,0,0,0,418.66,134.08Z"/><path class="cls-1" d="M416.88,126.9a28,28,0,0,1,.49,3.16,21.88,21.88,0,0,0,.72,3.62l.25.18a11.38,11.38,0,0,1-.64-3.3A11,11,0,0,0,416.88,126.9Z"/><path class="cls-1" d="M409.9,96.47c.21.48.38,1,.55,1.47l.53,1.48,1.06,3c-.14-1.12-.33-2.61.79,0-1.07-3.85-1.07-3.41-1.16-3-.05.22-.12.43-.36.12a6.19,6.19,0,0,1-.51-1c-.11-.25-.24-.55-.38-.9S410.11,96.94,409.9,96.47Z"/><path class="cls-1" d="M401.79,78.71c1.66,3,.34-.22.57-.14a6.92,6.92,0,0,0-1.13-1.46C401.11,77.08,401.33,77.53,401.79,78.71Z"/><path class="cls-2" d="M436.21,154.1c-.07-.06-.26-.09-.25,0l.3.14Z"/><path class="cls-2" d="M435.47,154.45a1.1,1.1,0,0,0,.68.34c-.28-.18-.14-.16-.48-.36,0-.09.14-.11.25-.06-.07-.05.11-.1-.08-.2s-.32.15-.16.35A.74.74,0,0,1,435.47,154.45Z"/><path class="cls-2" d="M432.61,161.77l.05,0A.1.1,0,0,0,432.61,161.77Z"/><path class="cls-2" d="M430.74,166.25a.06.06,0,0,0,0-.08S430.72,166.24,430.74,166.25Z"/><path class="cls-2" d="M430.1,166.88l0,0S430.08,166.86,430.1,166.88Z"/><path class="cls-2" d="M432.61,161.77l-.14.09C432.57,161.9,432.57,161.82,432.61,161.77Z"/><path class="cls-2" d="M435.94,155.72a.37.37,0,0,0-.06-.1.22.22,0,0,1,0,.08Z"/><path class="cls-2" d="M433.05,159.66v0l-.12-.07Z"/><path class="cls-2" d="M433.51,158.09s.24.13.35.18c-.1-.06-.15-.1-.16-.14Z"/><path class="cls-2" d="M434.74,155.75l0-.06Z"/><path class="cls-2" d="M432.61,160.75l-.1,0Z"/><path class="cls-2" d="M408,161l0,0S408,161,408,161Z"/><polygon class="cls-2" points="407.38 158.74 407.41 158.75 407.51 158.63 407.38 158.74"/><path class="cls-2" d="M429.2,168.14h0S429.19,168.11,429.2,168.14Z"/><path class="cls-2" d="M424.25,177.82c-.14.25-.3.13-.44.44C423.89,178.19,424.18,178,424.25,177.82Z"/><path class="cls-2" d="M435.89,155.75a.13.13,0,0,1,0,.06A.07.07,0,0,0,435.89,155.75Z"/><path class="cls-2" d="M423.81,178.26h0v0Z"/><path class="cls-2" d="M428,171.39l.12,0Z"/><path class="cls-2" d="M429.38,169.18l-.06,0A.15.15,0,0,0,429.38,169.18Z"/><path class="cls-2" d="M427.78,172.78s-.07,0-.06.07h0S427.72,172.8,427.78,172.78Z"/><path class="cls-2" d="M427.19,174.05h.06V174Z"/><path class="cls-2" d="M411.2,163.7a1,1,0,0,1,.13-.23C411.21,163.63,411,163.54,411.2,163.7Z"/><path class="cls-2" d="M435.79,155.67c.07,0,.1.05.1.08s0,0,0-.05Z"/><path class="cls-2" d="M429.77,173.76l-.13.19A.64.64,0,0,0,429.77,173.76Z"/><path class="cls-2" d="M417.67,171.18l-.06,0S417.63,171.19,417.67,171.18Z"/><path class="cls-2" d="M429.39,174.57a.45.45,0,0,0-.23,0l0,0Z"/><path class="cls-2" d="M411.33,163.47Z"/><path class="cls-2" d="M409.82,163c.15.14.32-.2.5-.33.25.09-.1.28-.17.48.18,0,.5-.14.57,0s0,.08-.1.11c.32-.1.36.33.76.2a.56.56,0,0,1-.05.08,2.78,2.78,0,0,1,.33-.39c.07.06.29,0,.15.16,0-.05-.11,0-.18,0h.14c-.17.31-.18,0-.36.17.22,0,.58,0,.62.18-.22.27-.33-.16-.4.2l-.07-.26c-.25.51-.07-.12-.36.4.14.28.36.11.5.39.18-.08.18-.21.36-.3.54.07-.37.84.17.74.22-.1.55-.37.54-.05l-.33.21c.17.23.51-.26.54.14-.15.06-.25-.08-.25,0-.09.35.25-.05.35.06l-.22.26c.25.19.66.26.94.48-.09.05-.21.08-.23.21a1.71,1.71,0,0,1,.7,1.15l.33-.07s-.06.14-.13.15c0,.19.15-.12.29-.13s-.05.2-.16.21c.37.06.94.28.89.71h-.11c.06.26.64-.17.56.17h-.07c.22.48.79.76.67,1.34.38-.2.15.52.64.19-.06.41-.19.4-.11.85.05.1.4-.09.53,0l-.25.19.37,0-.25.29.14.06s.05-.17.13-.21c.23.08.1.52,0,.61l.49.24c-.11.06-.19,0-.29,0,.4,0-.25.22.12.25,0-.07.16-.09.22-.13a.47.47,0,0,0,.22.54l-.2.09a10.27,10.27,0,0,0,.7.87c0-.17.33-.34.42-.26l-.25.21c.21,0,0-.16.33-.17,0,.15-.26.29-.39.27l.19.09c-.08.06-.15.05-.26.11.21,0-.11.43.24.33l-.08.06c.2.34.39.42.57.69.24-.14.25,0,.5,0,0,.25,0,.59.13.82s.24-.07.43-.08c-.21.14-.05.37-.29.34a2.25,2.25,0,0,0,.64.63c.07-.1.09-.16.18-.18s0,.21-.13.25h0c.57.24-.14,1.32.5,1.42h0l.42.23c.05.18-.22,0-.3.18.3.11.33.2.41.45a1,1,0,0,0,.47.67.79.79,0,0,0,.42.91,7.65,7.65,0,0,0,1,.41.91.91,0,0,1,.28.17l0-.18c.16-.16.18.1.31.15,0-.14-.17-.16-.08-.26a4.2,4.2,0,0,0,1.84-.81,4.87,4.87,0,0,0,.83-.81c.2-.21.36-.4.49-.56s-.74-.58-.19-.73l.25.25c-.07-.74.58-1.15.55-1.85.05.07.14.12.11.17.28,0,.22-.43.05-.51.06-.08.17.05.28,0s-.13-.42.11-.38c0,0,.06.06.06.09-.06-.12.2-.34-.08-.39.21-.15.07-.45.3-.54-.23-.24.3-.3-.08-.52.41.21.5-.21.37-.43.1.1.18,0,.33.08a.27.27,0,0,0-.17-.4c.62-.06-.14-.74.56-.61a6.3,6.3,0,0,1,.1-1.48c.4.19-.16.46.28.64,0-.46-.25-.84,0-1.18.1-.07.15.14.21.2,0-.46.36-.73.28-1.17a.21.21,0,0,1,.08.12c0-.07.13-.13-.06-.2l0,.08c-.32,0-.46-.51-.6-.58.49.34.28-.28.89.19a.34.34,0,0,0-.22-.2c.07-.05.15,0,.27.09,0-.29-.24-.29-.15-.5.09,0,.11.09.21.16-.13-.18-.27-.37-.11-.52.05,0,.13,0,.11.09.1-.33-.26-.74.06-1,.35.27.18-.07.53.05l0-.23h-.2c.08-.16-.12-.41,0-.51l.1.18.05-.33-.2.12c-.11-.24-.44-.16-.26-.34,0,.06.07-.16.31-.17h0c-.08-.12-.16-.25,0-.34s.37.17.46.18c-.26-.19.07-.42-.2-.64a.69.69,0,0,0,.28.13l-.21-.16a.28.28,0,0,1,.29,0c.13-.22-.47-.1-.18-.3,0,0,.05,0,.07.09.21-.24.05-.59.27-.8.38.05,0,.25.33.28.07-.4-.14-.92.07-1.25l-.06.05c-.48-.23.34-.17.17-.44,0,.06.26.16.21.13.17-.22.05-.55,0-1l.11.09c.17-.1.2-.35.32-.49-.12-.09-.07-.17-.27-.18.9-.24-.08-1.06.68-1.28,0,.05.07.16.08.12v-.41c-.23,0-.15,0-.35,0a.35.35,0,0,1-.15-.32c.09.21.35.11.5.08-.07,0-.14-.06-.21-.07.46-.07-.43-.18-.08-.35l.11,0c0-.12-.15-.26-.08-.35.27,0,.08.14.29.21,0-.15-.39-.45-.09-.5.05.09,0,.18.07.26.35,0,.28-.09.36-.18h0l.22-.21-.1,0c-.61-.4,0-.42-.36-.81.33.38.22.12.51.23.1,0,.22-.11.29-.06-.19-.19.25-.14,0-.41.09,0,.05-.13.27,0,0-.18-.17,0-.28-.06-.25-.34.56-.44.22-.92-.09-.35-.39-.5-.46-.82.18,0,.32.18.32.18.18-.11.19-.23.12-.41.08.06.15,0,.27,0s-.32-.18-.14-.29a2.56,2.56,0,0,1,.35.22c-.05-.16-.19-.34-.23-.5.17,0,.22.15.31.23a.65.65,0,0,0-.27-.57l-.12.08c0-.06.23,0,.26.09s-.14.16-.24.14l0-.11c-.58-.06,0,.42-.11.61l-.38-.2.27.3c-.12,0-.35,0-.38-.14-.24.08.11.17-.15.22,0,0-.06,0-.07,0l.08.17c-.08,0-.29-.06-.21-.13-.3.18.18.49-.15.49v0c0,.38.28.12.54.48l-.77-.05.28.13s-.06.09-.17,0c.16.2.13,0,.3.15-.32.09,0,.51-.5.41.2.13.22-.11.31.12-.51-.11,0,.23-.25.32-.25-.13-.06-.24-.34-.15.4.23-.19.27-.15.42.34.12.06.33.1.59-.11-.05-.33.35-.52.51l0,0c.33.15.2.34.22.51a.54.54,0,0,1-.35-.24l0,.14a.32.32,0,0,1,.15.25l-.25-.13c0,.2.18.49-.08.67.24.1.75,0,.82.35-.13,0-.36-.1-.39-.19s.08.12,0,.15l-.19-.18c-.13.08.17.12.12.2s-.16,0-.3,0,.1,0,0-.11a.47.47,0,0,1-.38.16c.11,0,.25.09.25.17s-.24,0-.38.07c.12.09-.06.16.22.26,0,.06-.15,0-.24,0,.09.14-.12.46.21.46l0,0v0h0c.16.42-.4.61-.39,1l-.1,0c0,.23-.08.44.06.65,0,.06-.21.07-.31,0,0,.17.11.22-.12.38-.11-.21-.16,0-.06-.2-.15.16-.32.15-.14.44-.21-.15-.35,0-.31.15l.22-.07a.69.69,0,0,1-.11.28l-.3-.17c-.52.24.38.93-.36,1,.18.19.23-.15.45,0-.11.16-.62.17-.65.23-.26.17.37.4.16.6.12,0,.43.1.46.33s-.55,0-.6-.11a.06.06,0,0,1,.09,0c0-.07,0-.16-.18-.14l.1.06c-.15,0-.23.29-.39.16,0,.18.16.13.25.06-.25.16-.14.34-.34.53.07,0,.22,0,.2,0-.27.29.15.24.11.49-.22.06-.38-.21-.34.08-.17.09-.3-.09-.37-.19.13.3-.3.34-.39.44l0-.15a.26.26,0,0,1,0,.2l.24,0c-.06.05-.08.1-.17.06.11.13.38.1.52.31-.14,0,0,.32-.29.23.21-.23-.3-.1-.26-.34,0,.05,0,.11-.07.16a.12.12,0,0,1-.06-.06c-.37.15.28.25.16.52-.15-.1-.34-.07-.32,0,0-.11.29.06.38.21-.2.12,0,.23,0,.32l.1-.08c.15.1.09.18.09.32-.13,0,0-.15-.11-.13.23.26-.43.18-.32.45-.14,0-.31-.13-.41-.09.12.3-.32.13-.24.43.25,0,.2,0,.34.24v-.43l.22.37c.05-.1,0-.29,0-.33.13.18.08.15.28.17-.39,0,.07.38-.23.46l-.54-.24c-.35.15.08.57-.2.84l.14-.06c.19.14-.06.22,0,.36a.68.68,0,0,0-.41-.05c.14.05-.12.24.23.43l-.31,0c-.21.22.38.54.2.77-.16-.17-.34-.11-.4-.35,0,.09-.11.15,0,.21-.13,0,.13.35-.07.35.06.07.24.17.18.26l-.09,0c.09,0,.06.2.29.21-.68,0-.3.76-.89.76a3.78,3.78,0,0,1-.14.64c-.05,0-.09,0-.06-.06-.28.15.44.38.13.56-.35,0-.09-.21-.24-.18-.6-.25-.07.35-.5.36v-.05c-.27,0,.05.43-.1.64a.21.21,0,0,0-.08-.05,1.17,1.17,0,0,1,.15.89c-.19-.18-.07-.16-.32-.23,0,.11.38.15.35.38a1.11,1.11,0,0,1-.59,0l.08-.18c-.37-.07-.11.23-.21.3l-.13-.08c-.1.29.25.48.08.76l.12,0c.26.34-.26,0-.09.31l-.36-.15a1.07,1.07,0,0,1,.1.65,4.11,4.11,0,0,0-.27-.69s-.07.16,0,.34c0,0-.06-.15,0-.12.18.28.17.55,0,.67-.19-.38-.27-.37-.36-.35s-.2,0-.25-.3c0,.12-.11.14-.15.11s-.1-.31-.17-.35c-.33.59,0,0-.44.51-.07,0-.08-.07-.05-.1a1.55,1.55,0,0,1,.19-.41c.14-.12.13,0,.24-.13s.2-.17.34-.26a1.76,1.76,0,0,1-.2.1c-.05,0-.08-.06-.08-.15a1.22,1.22,0,0,1-.17.28c-.43-.12.33-.48-.12-.65l.22,0c-.18-.12-.3-.61-.82-.55,0-.06.18-.18.26-.12-.13-.44-.92-.62-.82-1.06l.15-.05c-.08,0-.31,0-.23-.15s.15,0,.14-.08-.34-.06-.31-.2h.19c0-.47-.68-.37-1-.63a.67.67,0,0,0,.31-.76l.06,0c-.2-.46-.76-.53-1.14-.83.26-.5-.35-.93-.38-1.46,0,.11-.29.18-.37.14s-.42-.08-.08-.29l0,0c.28-.29.07-.42,0-.57l-.45.28c.37-.81-.91-.81-.49-1.41-.17,0-.25-.12-.42-.13l.23-.16a1.64,1.64,0,0,0-.46-.69l.2-.06c-.11-.18-.81.28-.94.14l.3-.31c-.23-.28-.17-.81-.69-.85.05,0,.15-.1.2-.07-.1-.14-.2-.71-.61-.29.29-.24-.21-.32-.47-.36l.24-.15c-.38.1-.46.15-.69,0,0-.07.14-.18.14-.08,0-.23-.3.06-.33-.2l.19-.06c-.1-.15-.17-.08-.39,0s-.18-.31,0-.5c-.13.08-.36.14-.38,0a.23.23,0,0,1,.17-.08c-.07-.37-.55-.14-.49-.48a.53.53,0,0,0,.1-.14c.16.19.28.35.25.35.2-.17.09-.35.47-.47-.26,0-.76.08-.8-.15a.25.25,0,0,1,.05-.08h0s-.05-.07-.11-.07a.32.32,0,0,0-.06-.17c.14-.16-.07-.25-.14-.33-.2.2-.25.07-.34.32,0,0,0,0,.09,0a.07.07,0,0,0,.06,0h0l.19.18c-.16,0-.31,0-.27-.13l-.43.2c.2-.36.17-.7.32-.9-.33-.11-.58-.46-1.1-.22-.11,0,0-.18.07-.26s.11,0,.19,0c-.22,0-.41-.33-.7-.1,0-.27.33-.15.07-.32l.11-.05c0-.86-1.35,0-1.31-1a.16.16,0,0,1,0,.15c-.32-.77-1.35-.81-1.56-1.7-.09-.22-.26-.05-.48,0l.16-.26-.39.12c-.4,0,.06-.91-.56-.8l-.08.19c-.09-.11-.43-.18-.27-.35,0,0-.17.14-.14,0l.09-.13h-.44c-.14-.26.42-.47.13-.74-.16,0-.61.11-.63.22a.27.27,0,0,1,0,.3h-.15c-.31.35-.67.67-.62,1.12l.35-.08-.08.22-.16-.1c0,.23.12.12.26.07a.42.42,0,0,0-.08.25l.45-.21c-.1.16-.3.22-.25.39.21-.1.18-.38.39-.38,0,.23-.18.35,0,.28a.27.27,0,0,1-.2.16c.18,0,.27.13.47,0-.08.27.34.19,0,.52a.7.7,0,0,1,.46-.09c-.48.29.27.27-.13.67.41-.27.52.16.87.12,0,0-.1.06-.1,0,.08.12,0,.26,0,.38.27-.28.49-.21.74-.31-.13.4-.38.28-.59.58.21-.24.43,0,.57-.27a.88.88,0,0,1-.16.44c.34-.35.14,0,.42-.13,0,.3-.27.37,0,.39C410.07,163,409.82,163,409.82,163Zm4.05,2.85h0l-.08-.07Zm.28.31L414,166c.06-.08.14-.13.17-.1S414.17,166,414.15,166.13Zm.84-2c.07,0,.05.08,0,.12l-.1-.06,0,0A.28.28,0,0,1,415,164.16Z"/><path class="cls-2" d="M414.63,164.32h0l0,.08.08,0Z"/><path class="cls-2" d="M432.67,161.73h0Z"/><polygon class="cls-2" points="417.29 170.89 417.35 170.85 417.28 170.85 417.29 170.89"/><path class="cls-2" d="M434.33,159.85a.11.11,0,0,0,.08,0Z"/><path class="cls-2" d="M434.7,158.92l.14-.1Z"/><path class="cls-2" d="M435.07,158.23l-.11,0h0Z"/><path class="cls-2" d="M431.13,169.86v0C431.15,170,431.15,169.93,431.13,169.86Z"/><path class="cls-2" d="M431.9,166.23a.79.79,0,0,1,.08.16S432.05,166.29,431.9,166.23Z"/><polygon class="cls-2" points="429.79 173.74 429.78 173.74 429.77 173.76 429.79 173.74"/><path class="cls-2" d="M431.91,166.55a.12.12,0,0,0,.07-.16S431.89,166.48,431.91,166.55Z"/><path class="cls-2" d="M436.16,155.06l0,0,0,0Z"/><path class="cls-2" d="M436.14,155l0,0S436.11,155,436.14,155Z"/><path class="cls-2" d="M436.07,154.86l0,.1S436.14,154.9,436.07,154.86Z"/><path class="cls-2" d="M435.75,156l.09,0A.19.19,0,0,0,435.75,156Z"/><path class="cls-2" d="M435.69,156.31c0-.06.26-.11.23-.23l-.08,0C436,156.14,435.54,156.2,435.69,156.31Z"/><path class="cls-2" d="M434.11,157.18l.15-.22c-.12,0-.27,0-.26-.1C433.59,157.08,434.25,156.87,434.11,157.18Z"/><path class="cls-2" d="M433.72,157.89c0-.14-.16,0-.21-.07C433.58,157.94,433.59,158,433.72,157.89Z"/><path class="cls-2" d="M431.85,163.35l-.23-.1C431.61,163.36,431.71,163.28,431.85,163.35Z"/><polygon class="cls-2" points="432.71 164.85 432.89 164.81 432.69 164.68 432.71 164.85"/><polygon class="cls-2" points="430.77 164.81 430.75 164.75 430.77 164.95 430.77 164.81"/><path class="cls-2" d="M427.07,173.72l.3.1C427.35,173.73,427,173.57,427.07,173.72Z"/><path class="cls-2" d="M425.52,177.6c-.17,0-.3,0-.19.14C425.38,177.68,425.53,177.67,425.52,177.6Z"/><polygon class="cls-2" points="420 170.34 420.13 170.36 419.97 170.27 420 170.34"/><path class="cls-1" d="M120.37,367.71l.09-.09.58.35,1.43.88c.49.28,1,.55,1.52.83l-.89-.82c1.72.66,3.92,1.67,6.13,2.72,1.12.51,2.21,1.08,3.3,1.52s2.13.87,3.05,1.22c.94.78,3,1.62,1.59,1.55,1.51.36,3,.82,4.38,1.28s2.84.88,4.22,1.38,2.72,1,4,1.58l1,.42,1,.37,2,.75,3.95,1.49c1.31.47,2.62,1,4,1.31a51.11,51.11,0,0,0,8.06,1.61c-1.25-.34-2.91-1.09-1.91-.83l2.21.67c.73.22,1.48.38,2.23.58l4.48,1.13c-.84.43-1.26.1-3.26.14a26.62,26.62,0,0,0,5.83,1.9c-2-.64-1.95-.87-1.17-.94s2.29,0,3.21,0c-.33.13.24.43.06.59,5-.26.6,1.31,7.25,1.69l-.3-.37c.6.14,1.19.3,1.78.45l1.78.39a28,28,0,0,0,3.75.59c1.18-.55-2.58-.62-2.68-1.21,3.7.46,7.2,2.24,10.66,1.71-.78-.15-1.75-.27-2.71-.38-.48-.05-1-.12-1.42-.21s-.89-.17-1.28-.27c.93-.1,1.66-.14,2.27-.18a15.17,15.17,0,0,1,1.55-.08c.91,0,1.7.07,3.06.1h-.26l3.16,0,1.58,0c.52,0,1.05,0,1.58,0-.54.08-1.08.11-1.62.14a11.36,11.36,0,0,0,3.53.95,34.8,34.8,0,0,0,3.75.23c1.29,0,2.64.05,4.05.12a30,30,0,0,1,4.5.35c-6.16-.94-1-.62-1.51-1.38,1.6-.27,4-.58,3.32-.78a13.21,13.21,0,0,0,4.12,0,17.09,17.09,0,0,1,5-.07c.17-.26,3.17-.27,2.44-.84,3.86-.1-.86.5-.52.79,3,.28,6.47-.52,10.23-1.2.94-.17,1.9-.35,2.88-.51s2-.41,3-.59a46.74,46.74,0,0,1,6.28-.71c.92-.08,1.74-.21,2.5-.31l2.08-.25c1.28-.14,2.37-.22,3.44-.3s2.14-.15,3.36-.28,2.57-.43,4.27-.8c2.13-1-2.08-.36-2.08-.36a49,49,0,0,1,4.87-1.64c1.55-.44,3.12-.74,4.83-1.2-.75,0-.1-.4.83-1,2.69-.84,2.08.27,5.5-1.28a12.21,12.21,0,0,0-3-.05c1.62-.42,3.24-.78,4.88-1.15s3.25-.91,4.89-1.44c.69-.74-2.18.15-3.4.32,3.66-1.24,9.49-3.26,10.82-3.22l-1.61.93c.33-.32-.36-.44-1.14-.22-3.3.71-4.37,2-4.46,2.28l2.35-.75c-.89,1.14-3.23,2-5.9,2.8-1.33.44-2.79.7-4.18,1a39.29,39.29,0,0,0-3.91,1.12l2.3.35-5.1.78c-.47.32-.85.64-.8.84s.51.28,1.7-.05c-.4.21-.75.37-1.07.51l-.83.27a10.72,10.72,0,0,1-1.24.26,7.84,7.84,0,0,0-2.79.91c-.3.18-.13.19.18.15l-3.45.64c.72,0-.37.89,1.67.15a26.57,26.57,0,0,1-4.09,1.28c-1.26.26-2.4.42-3.41.56-2,.29-3.58.48-4.65,1.14l.53-.05c-1.08.19-1.89.35-2.52.42a12.75,12.75,0,0,1-1.37.09c-.6,0-.66-.11-.66-.24s.27-.66-3-.55l-4,2.68-1-.63c-.88.16-2.64.43-2.27.7-3.39-.11.52-.41-1.47-.67a25.21,25.21,0,0,1-3.63.74l-2,.26c-.66.08-1.33.16-2,.19-2.55.18-4.68.39-5.12,1.06-1.59-.48,4.09-.78-.54-.84-.61.72-1.95.77-3.61.75a23.78,23.78,0,0,0-5.63.09c1.23.66,5,.18,1,.92-1.22-.56-3.13-.44-5.18-.2-1,.15-2.07.2-3.08.28a20.42,20.42,0,0,1-2.81,0c-.07-.47-1.88-.6-4.37-.67l-1,0-1-.07-2.13-.15c-1.45-.11-2.94-.23-4.33-.41.16.15-2.48.19-5.8-.12l-5.25-.41c-.87-.08-1.73-.11-2.52-.21l-2.19-.24.13.19c-.43-.56-2-1-3.89-1.42-1-.21-2-.41-3.06-.61s-2.08-.49-3-.73c0,.58.68,1,2.72,1.63-1.21-.22-2.41-.51-3.61-.76a16.34,16.34,0,0,0-4.2-1.49l.75.89c-1.2-.27-2.39-.58-3.6-.93l-3.68-1.22c-1.26-.41-2.57-.81-3.95-1.19q-1-.28-2.13-.54c-.72-.2-1.46-.4-2.23-.58-.14-.73,5.27-.25-.91-2.68-.34.27-.75.78.86,1.44a15.67,15.67,0,0,0-3-1.1l2.35,1.38c-2.82-.62-1.28-.93-3.48-1.57-.11.5-1.73-.17-1.54.31a18.79,18.79,0,0,1,2.75.87c-1.25-.35-2.64-.69-3.87-.94l-1.65-.33a5.71,5.71,0,0,0-1.15-.13c.31-.2.23-.65-1.53-1.37-4.58-1.74-1.79,0-4.57-.77A22.92,22.92,0,0,0,139.3,380c-.85-.41-1.56-.82-1.45-1.19a4.18,4.18,0,0,0-2.3-.36c-.55-.33-1.5-.79-2.58-1.29s-2.29-1-3.3-1.57c-2-1.08-3.42-1.91-2-1.65l.61.23-.36-.21h0c-1.79-1.07-3.66-2.05-5.58-3-.48-.23-1-.47-1.43-.73l-1.42-.74-.82-.41C119.28,368.64,119.84,368.18,120.37,367.71Z"/><path class="cls-2" d="M134.22,391.12c.08,0,.22-.17.14-.21l-.29.18Z"/><path class="cls-2" d="M134.32,390.31a1.15,1.15,0,0,0-.65.38,5.62,5.62,0,0,0,.56-.2c.09,0,0,.17-.08.24.08,0,0,.15.21,0s0-.35-.21-.32C134.19,390.38,134.27,390.35,134.32,390.31Z"/><path class="cls-2" d="M129.74,383.93V384A.06.06,0,0,0,129.74,383.93Z"/><path class="cls-2" d="M127,379.93a.07.07,0,0,0,.09,0S127,379.9,127,379.93Z"/><path class="cls-2" d="M126.82,379v0S126.84,379,126.82,379Z"/><path class="cls-2" d="M129.74,383.93v-.17C129.65,383.82,129.72,383.86,129.74,383.93Z"/><path class="cls-2" d="M133,390h.11s-.05,0-.07,0Z"/><path class="cls-2" d="M131.27,385.44l0,0,.13-.06Z"/><path class="cls-2" d="M132.34,386.68s-.24.13-.34.2a.28.28,0,0,1,.2-.06A1.82,1.82,0,0,0,132.34,386.68Z"/><path class="cls-2" d="M133.63,389h0Z"/><path class="cls-2" d="M130.59,384.48l.07-.07A.46.46,0,0,0,130.59,384.48Z"/><path class="cls-2" d="M143.77,363.68v0S143.78,363.67,143.77,363.68Z"/><polygon class="cls-2" points="146 364.4 145.98 364.42 146.03 364.57 146 364.4"/><path class="cls-2" d="M126.25,377.6h0S126.28,377.61,126.25,377.6Z"/><path class="cls-2" d="M120.82,368.19c-.14-.26.05-.33-.14-.62A1.6,1.6,0,0,0,120.82,368.19Z"/><path class="cls-2" d="M133,390l0,0A.08.08,0,0,0,133,390Z"/><path class="cls-2" d="M120.68,367.57h0l0,0Z"/><path class="cls-2" d="M124.18,374.81l-.08.09A.24.24,0,0,0,124.18,374.81Z"/><path class="cls-2" d="M125.28,377.19v-.08A.11.11,0,0,0,125.28,377.19Z"/><path class="cls-2" d="M123.13,373.89s0-.08,0-.1l0,0C123.12,373.82,123.14,373.83,123.13,373.89Z"/><polygon class="cls-2" points="122.38 372.7 122.35 372.75 122.38 372.78 122.38 372.7"/><path class="cls-2" d="M139.77,364.91a1.63,1.63,0,0,1,.11.23C139.82,365,140,364.84,139.77,364.91Z"/><path class="cls-2" d="M133.12,389.91a.19.19,0,0,1-.11,0l0,0Z"/><path class="cls-2" d="M121.22,375l-.09-.21A1,1,0,0,0,121.22,375Z"/><path class="cls-2" d="M130,366.27l.05,0S130,366.23,130,366.27Z"/><path class="cls-2" d="M120.74,374.26a.43.43,0,0,0,.1-.21.11.11,0,0,0-.07,0Z"/><path class="cls-2" d="M139.89,365.15h0Z"/><path class="cls-2" d="M141.13,364.15c-.21.05,0,.38,0,.59-.21.17-.18-.23-.31-.39-.12.13-.16.48-.27.5a.28.28,0,0,1-.05-.16c-.09.33-.47.13-.57.54l0-.08a3.05,3.05,0,0,1,.14.48c-.09,0-.12.27-.21,0,.06,0,0-.1.05-.18l-.07.13c-.17-.32.1-.15,0-.4-.17.15-.32.48-.49.41-.1-.32.31-.18,0-.43l.26.08c-.29-.49.14,0-.14-.52-.32,0-.29.24-.6.2,0,.2.08.27,0,.47-.35.42-.5-.77-.71-.26,0,.24,0,.67-.25.48v-.39c-.29,0-.06.58-.4.38,0-.16.2-.17.15-.21-.25-.26-.1.24-.25.27l-.09-.33c-.3.11-.59.42-.92.53,0-.1.05-.22,0-.31a1.71,1.71,0,0,1-1.35,0l-.12.31s-.08-.13-.05-.19c-.18-.09,0,.19-.05.31s-.14-.15-.09-.25c-.25.29-.75.64-1.08.36l.05-.09c-.25-.09-.2.62-.45.37l0-.05c-.52-.08-1.06.25-1.49-.17,0,.43-.51-.15-.5.44-.31-.28-.24-.39-.66-.56-.11,0-.14.38-.27.45l0-.31-.17.33-.11-.36-.12.08a.25.25,0,0,1,.1.22c-.19.15-.49-.19-.5-.35l-.46.28c0-.13.09-.17.15-.25-.24.32-.06-.33-.28,0,0,.07,0,.18,0,.25a.46.46,0,0,0-.57-.11l0-.21c-.34,0-.72.11-1.11.1.14.11.1.47,0,.51l0-.33c-.08.2.11.13,0,.37-.15,0-.09-.37,0-.48l-.18.11a1,1,0,0,1,0-.27c-.08.2-.3-.33-.41,0V366c-.39,0-.56.1-.88.1,0,.28-.14.21-.24.44-.23-.1-.48-.34-.76-.33s-.07.24-.17.4c0-.26-.28-.25-.13-.42a2.14,2.14,0,0,0-.87.19c0,.11.09.16,0,.24s-.16-.12-.14-.24l0,0c-.52.35-1-.84-1.46-.36l0,0-.42.23c-.18-.06.13-.17,0-.35a.55.55,0,0,1-.6.1,1.06,1.06,0,0,0-.82,0,.78.78,0,0,0-1-.14,6.66,6.66,0,0,0-.89.62.76.76,0,0,1-.3.14l.17.08c0,.23-.19.1-.3.19.13.05.23-.06.26.07a4.22,4.22,0,0,0-.32,2,5.92,5.92,0,0,0,.22,1.13c.07.28.15.52.21.71s.89-.31.72.25l-.34.07c.65.34.64,1.11,1.24,1.46-.08,0-.17.06-.2,0-.14.23.24.42.41.32,0,.09-.14.11-.2.21s.43.12.27.3c0,0-.09,0-.12,0,.15,0,.18.35.38.14,0,.26.33.31.29.55.33-.06.08.41.47.21-.39.23-.09.54.17.55-.14,0,0,.18-.25.23a.27.27,0,0,0,.43.08c-.29.54.7.28.21.8a6.81,6.81,0,0,1,1.19.88c-.39.24-.31-.38-.69-.11.38.26.84.25,1,.65,0,.13-.2.06-.28.07.39.25.42.7.83.87a.19.19,0,0,1-.15,0c.06.06,0,.18.21.06l-.09,0c.18-.26.68-.1.82-.18-.56.23.08.38-.64.64a.33.33,0,0,0,.28-.07c0,.08,0,.14-.22.17.25.15.37-.05.5.15-.08.06-.14,0-.25.09.23,0,.46,0,.5.19,0,0-.1.09-.14,0,.23.27.76.19.83.6-.42.16,0,.19-.34.42l.21.11.1-.18c.1.15.42.13.4.32l-.2,0,.25.23v-.23c.26,0,.37-.29.43,0-.06,0,.09.15,0,.35h0c.15,0,.3,0,.3.17s-.35.22-.4.28c.31-.11.32.29.65.18a1,1,0,0,0-.27.16l.25-.09c0,.12,0,.15-.17.23.1.23.33-.34.34,0,0,0,0,0-.11,0,.08.3.46.36.53.66-.26.29-.22-.14-.42.12.29.28.85.39,1,.74v-.08c.45-.27,0,.39.27.39-.06,0-.27.13-.21.1.09.26.43.35.8.56l-.14,0c0,.2.19.37.24.54.14-.05.18,0,.3-.13-.29.88.93.51.7,1.27,0,0-.17,0-.14,0l.34.23c.16-.17.07-.13.16-.3a.34.34,0,0,1,.35,0c-.23,0-.29.23-.34.37.05-.05.13-.08.18-.13-.2.41.38-.27.34.12l-.11.07c.12,0,.3,0,.34.12-.18.2-.16,0-.34.12.11.12.59-.07.47.2-.1,0-.16-.07-.26-.08-.15.32-.07.28,0,.4h0l.06.29,0-.1c.66-.29.35.22.87.14-.49.07-.22.12-.46.3,0,.11,0,.24-.12.28.27-.06,0,.28.37.19-.07.07.08.11-.12.24.16.08.1-.14.2-.2.42,0,.07.71.65.69.35.11.63-.06.94.05-.05.18-.32.17-.32.17,0,.21.09.29.27.33-.08,0-.12.1-.17.2s.32-.17.31,0a1.56,1.56,0,0,1-.37.17c.16.05.39,0,.55.08-.11.14-.26.11-.37.14.16.07.39.22.63.08v-.14s-.15.17-.22.17c-.25,0-.06-.21,0-.28l.11,0c.37-.45-.34-.24-.45-.42l.37-.21-.4.07c.06-.11.21-.28.33-.25.06-.24-.2,0-.11-.25a.07.07,0,0,1,.06,0l-.19,0c.09,0,.21-.21.22-.1,0-.35-.5-.12-.33-.39h0c-.34-.19-.26.17-.71.19l.46-.62-.25.17a.11.11,0,0,1,0-.17c-.25,0-.08.1-.29.16.1-.31-.41-.29-.06-.63-.22.1,0,.24-.28.2.37-.38-.21-.11-.12-.39.24-.13.22.07.31-.2-.42.21-.13-.31-.28-.36-.29.22-.31-.13-.55-.24.1-.06-.12-.46-.15-.71l.05,0c-.31.2-.39,0-.55-.1a.51.51,0,0,1,.39-.15l-.1-.12a.28.28,0,0,1-.28,0l.24-.14c-.14-.15-.51-.12-.52-.44-.21.15-.44.61-.74.5.1-.1.28-.25.37-.23s-.14,0-.12-.07l.25-.06c0-.15-.19.08-.24,0,.16-.12.07-.14.2-.23s0,.12.07.1a.52.52,0,0,1,.07-.41c-.08.08-.21.17-.28.12s.15-.2.16-.35c-.14,0-.11-.14-.34,0,0,0,.06-.14.11-.2-.17,0-.32-.36-.5-.08v0h0c-.44-.09-.3-.67-.61-.86l.08-.06c-.21-.09-.32-.31-.58-.3,0-.05.06-.22.17-.27-.15-.08-.25,0-.25-.3.23,0,.09-.14.19.05-.05-.21.05-.34-.29-.36.24-.09.16-.31,0-.34l-.07.22a.51.51,0,0,1-.17-.24l.3-.15c.08-.57-1-.19-.63-.84-.25.05,0,.27-.28.35-.07-.18.2-.61.17-.66,0-.32-.54.09-.59-.2-.08.09-.32.3-.53.2s.28-.47.42-.43,0,.07,0,.09.16.06.22-.08l-.11,0c0-.14-.11-.35.08-.41-.17-.05-.19.06-.18.18,0-.29-.22-.31-.26-.58,0,.07-.13.18-.15.15-.09-.38-.28,0-.46-.17.06-.22.38-.21.11-.33,0-.19.24-.2.36-.21-.32,0-.12-.43-.16-.56l.15,0a.21.21,0,0,1-.15-.12l-.16.19c0-.08,0-.13,0-.19-.17,0-.29.27-.55.28,0-.15-.27-.17,0-.37.07.3.24-.21.42,0a.14.14,0,0,1-.09-.15.07.07,0,0,1,.08,0c.07-.39-.37.09-.53-.15.17-.07.24-.24.19-.26s-.22.21-.39.2c0-.23-.2-.11-.24-.2v.13c-.17.06-.2,0-.32-.1.11-.09.14,0,.17,0-.34.05.08-.45-.2-.5,0-.15.27-.2.29-.31-.31-.06.07-.34-.22-.43-.16.19-.11.17-.39.16l.35.23-.43,0c.07.1.27.13.27.21-.22,0-.17,0-.3.14.21-.33-.35-.15-.26-.44l.5-.32c.07-.38-.52-.25-.6-.64l0,.16c-.22.08-.15-.17-.3-.22a.64.64,0,0,0,.27-.31c-.12.09-.13-.23-.48,0l.13-.28c-.07-.3-.65,0-.75-.25.23-.05.28-.23.51-.15-.05-.08-.07-.18-.18-.1.07-.12-.37-.08-.26-.26-.09,0-.27.12-.32,0a.28.28,0,0,1,.09,0c-.09,0-.2-.07-.34.12.36-.57-.47-.67-.15-1.16a2.9,2.9,0,0,1-.46-.47s.08,0,.08,0c0-.32-.56.16-.54-.2.19-.29.23,0,.28-.1.54-.37-.26-.26,0-.62l0,0c.12-.24-.4-.19-.48-.42a.28.28,0,0,0,.08-.05,1.21,1.21,0,0,1-.83-.36c.26-.06.17,0,.37-.14-.08-.08-.34.23-.51.09.09-.13.12-.33.34-.48l.12.16c.25-.27-.14-.22-.14-.34l.14-.06c-.2-.24-.54,0-.68-.35l-.09.09c-.43,0,.12-.23-.21-.24l.33-.23a1,1,0,0,1-.61-.27,3.94,3.94,0,0,0,.73.16c0-.05-.1-.15-.31-.16,0,0,.16,0,.11.07-.34,0-.56-.16-.59-.35.42.06.46,0,.49-.1s.07-.2.39-.05c-.08-.1-.06-.16,0-.19s.32.09.38.05c-.31-.59,0,0-.18-.64.06,0,.1,0,.11,0a1.54,1.54,0,0,1,.23.38c0,.18,0,.13,0,.27s0,.27,0,.43a.9.9,0,0,1,0-.23s.09,0,.16,0a1,1,0,0,1-.14-.3c.34-.29.23.54.61.26l-.13.18c.19-.09.67.08.9-.39,0,.07,0,.24,0,.28.43.12,1-.44,1.33-.11l0,.15c.09,0,.17-.27.26-.11s-.05.14,0,.16.24-.25.34-.15l-.11.16c.42.22.69-.38,1-.46a.69.69,0,0,0,.48.68v.06c.5.08.86-.34,1.32-.5.28.49,1,.21,1.43.47a.36.36,0,0,1,.09-.39c.1.09.29-.31.28.1h0c.09.4.31.29.48.3l0-.53c.47.75,1.17-.33,1.44.35.1-.14.24-.15.34-.28v.28a1.57,1.57,0,0,0,.83,0l-.06.21c.21,0,.21-.83.4-.86l.09.42c.36,0,.77.29,1.1-.13,0,.07,0,.19-.06.21.17,0,.7.22.57-.35,0,.38.39,0,.56-.2v.28c.13-.37.12-.47.34-.59.06,0,.07.21,0,.15.2.12.11-.28.35-.16l-.06.19c.19,0,.17-.1.24-.32s.36,0,.43.27c0-.16.07-.38.19-.32a.2.2,0,0,1,0,.18c.35.14.42-.39.68-.15a.44.44,0,0,0,.06.16c-.25,0-.45.05-.44,0,0,.26.25.27.14.65.14-.22.35-.68.56-.59a.2.2,0,0,1,0,.08v0c.05,0,.08,0,.11-.06a.31.31,0,0,0,.18,0c.06.21.25.07.35.07-.06-.28.08-.26-.08-.47,0,0,0,0-.08.06s0,0,0,0v0l-.25.06c.06-.16.12-.29.26-.16l.06-.47c.2.36.5.52.58.75.28-.21.7-.23.79-.79.07-.09.13.13.18.2s-.1.07-.12.15c.15-.17.5-.16.47-.53.25.12-.05.36.23.23l0,.12c.73.46.74-1.13,1.56-.55-.06,0-.09-.05-.11-.11.82.16,1.41-.69,2.28-.38.23,0,.19-.19.26-.4l.13.27.11-.4c.22-.33.74.55,1,0l-.11-.17c.15,0,.39-.26.44,0,0,0,0-.22.06-.13l.06.14.24-.36c.29,0,.16.6.55.5.12-.1.24-.57.16-.65a.26.26,0,0,1-.24-.19l.1-.12c-.13-.45-.2-.93-.61-1.13l-.12.34-.14-.19.17-.07c-.17-.17-.17,0-.2.17a.44.44,0,0,0-.17-.2l-.06.49c-.08-.16,0-.37-.19-.42,0,.23.22.35.1.54-.17-.17-.19-.34-.25-.13a.28.28,0,0,1,0-.26c-.06.18-.26.16-.23.41-.19-.21-.34.18-.47-.25a.72.72,0,0,1-.17.44c0-.56-.38.08-.5-.47,0,.49-.41.35-.57.66,0,0,0-.12,0-.1-.14,0-.22-.13-.33-.19.09.38-.09.53-.14.79-.26-.32,0-.47-.17-.81.09.31-.2.39-.07.63-.19-.19-.14-.08-.29-.38.1.48-.09.11-.12.43-.24-.18-.16-.43-.32-.23C141,364.37,141.13,364.15,141.13,364.15Zm-4.6,1.84h0l.1,0Zm-.41.07a.62.62,0,0,0,.18,0c0,.1,0,.2,0,.2S136.19,366.13,136.12,366.06Zm1.2,1.78c-.06.05-.09,0-.11,0l.11-.06v.11Z"/><path class="cls-2" d="M137.37,367.45s0,0,0,0l-.05-.06v.1Z"/><path class="cls-2" d="M129.74,384h0l0,0Z"/><polygon class="cls-2" points="130.42 366.11 130.42 366.18 130.45 366.12 130.42 366.11"/><path class="cls-2" d="M130.41,386.41a.16.16,0,0,0,0,.07S130.4,386.44,130.41,386.41Z"/><path class="cls-2" d="M131,387.23v.18A.46.46,0,0,0,131,387.23Z"/><path class="cls-2" d="M131.37,387.92l.11-.07h0Z"/><path class="cls-2" d="M123.75,378.28h0C123.64,378.24,123.69,378.27,123.75,378.28Z"/><path class="cls-2" d="M126.38,380.9h-.18C126.22,381,126.25,381,126.38,380.9Z"/><polygon class="cls-2" points="121.23 375.05 121.23 375.04 121.22 375.02 121.23 375.05"/><path class="cls-2" d="M126.11,380.74a.12.12,0,0,0,.09.15C126.19,380.83,126.17,380.76,126.11,380.74Z"/><path class="cls-2" d="M133.44,390.55v0l0,0Z"/><path class="cls-2" d="M133.49,390.56h0S133.52,390.54,133.49,390.56Z"/><path class="cls-2" d="M133.65,390.59l-.11,0S133.58,390.63,133.65,390.59Z"/><path class="cls-2" d="M132.87,389.69l-.09.06Z"/><path class="cls-2" d="M132.64,389.48c0,.07,0,.28.08.32l.06-.05C132.64,389.81,132.82,389.42,132.64,389.48Z"/><path class="cls-2" d="M132.78,387.68l.1.25c.05-.11.13-.25.22-.17C133.14,387.3,133,388,132.78,387.68Z"/><path class="cls-2" d="M132.39,387c.13.08.12-.1.17-.13C132.43,386.82,132.4,386.82,132.39,387Z"/><path class="cls-2" d="M128.83,382.43l.21-.14C129,382.23,129,382.35,128.83,382.43Z"/><polygon class="cls-2" points="127.1 382.33 127.04 382.51 127.26 382.41 127.1 382.33"/><polygon class="cls-2" points="128.19 380.73 128.24 380.74 128.06 380.66 128.19 380.73"/><path class="cls-2" d="M122.72,372.78l-.25.19C122.56,373,122.87,372.83,122.72,372.78Z"/><path class="cls-2" d="M120.31,369.36c.11-.12.15-.25,0-.23C120.31,369.21,120.25,369.34,120.31,369.36Z"/><polygon class="cls-2" points="129.4 368.68 129.32 368.79 129.48 368.69 129.4 368.68"/><path class="cls-1" d="M95,4.4l0,.13-.58.34L93,5.7c-.48.29-1,.61-1.46.93l1.15-.39c-1.41,1.2-3.35,2.63-5.33,4.08-1,.73-2,1.42-2.93,2.15s-1.78,1.45-2.53,2.09c-1.14.45-2.89,1.9-2.12.65-1,1.14-2.14,2.19-3.23,3.22s-2.14,2.07-3.24,3S71.1,23.36,70,24.26l-.85.67-.81.7L66.71,27,63.5,29.77a41,41,0,0,0-3,2.83,51.59,51.59,0,0,0-5.28,6.29c.89-.93,2.35-2,1.64-1.28l-1.65,1.62c-.54.54-1,1.12-1.58,1.68l-3.14,3.38c0-.94.52-1.15,1.44-2.93a27,27,0,0,0-4.47,4.2c1.52-1.45,1.7-1.29,1.38-.57s-1.13,2-1.54,2.82c0-.35-.49,0-.54-.23-2.16,4.46-1.44-.11-5,5.54L42.2,53c-.41.46-.83.9-1.25,1.35s-.79.91-1.19,1.37a29.3,29.3,0,0,0-2.32,3c-.08,1.3,1.79-2,2.34-1.77-2.17,3-5.42,5.25-6.62,8.54.51-.62,1.08-1.41,1.64-2.2.28-.4.57-.79.87-1.15s.58-.7.85-1c-.37.87-.68,1.52-.93,2.08s-.46,1-.68,1.39c-.44.8-.88,1.46-1.56,2.65l.13-.24-1.55,2.76-.78,1.37c-.26.46-.52.92-.74,1.4.19-.51.42-1,.65-1.49a11.46,11.46,0,0,0-2.52,2.64,35,35,0,0,0-2,3.17c-.65,1.13-1.31,2.3-2.05,3.51A31.91,31.91,0,0,1,22,84.19c3.78-5,1-.6,1.94-.66-.54,1.53-1.44,3.81-.92,3.29a13.47,13.47,0,0,0-2,3.62,16.73,16.73,0,0,1-2.36,4.44c.15.28-1.28,2.91-.43,2.55-1.77,3.43,0-1-.45-.84-1.69,2.51-2.64,5.92-3.86,9.55-.3.91-.61,1.83-.94,2.77s-.58,1.92-.91,2.89a46.39,46.39,0,0,1-2.4,5.84c-.37.85-.65,1.63-.92,2.34s-.54,1.35-.79,2c-.49,1.18-1,2.18-1.4,3.16s-.89,2-1.36,3.08-.86,2.47-1.35,4.12c-.14,2.37,1.31-1.64,1.31-1.64a48.73,48.73,0,0,1-.9,5.06C4,137.28,3.46,138.8,3,140.52c.34-.67.4.1.48,1.21-.56,2.76-1.23,1.7-1.52,5.44a12.1,12.1,0,0,0,1.49-2.61c-.4,1.61-.87,3.21-1.33,4.83s-.77,3.28-1.1,5c.32,1,.92-2,1.36-3.14-.68,3.8-1.71,9.88-2.38,11l0-1.85c.12.44.56-.11.74-.9,1-3.23.37-4.78.14-5l-.47,2.42c-.57-1.34-.2-3.8.38-6.53.26-1.37.73-2.78,1.09-4.17a38.78,38.78,0,0,0,.91-4l-1.42,1.85,1.77-4.85c-.05-.57-.15-1.05-.35-1.11s-.5.32-.78,1.52c0-.45,0-.84.07-1.18s.11-.61.16-.86a9.78,9.78,0,0,1,.38-1.21,8,8,0,0,0,.53-2.88c0-.35-.1-.22-.21.08L4,130.3c-.38.61-.61-.75-.94,1.38a27.42,27.42,0,0,1,.84-4.19c.39-1.23.79-2.31,1.16-3.27.72-1.92,1.29-3.36,1.23-4.62l-.21.49c.35-1,.6-1.83.84-2.41s.44-1,.58-1.25c.29-.52.41-.52.53-.45s.45.55,1.93-2.38l-.42-4.8,1-.54c.29-.85.9-2.52.48-2.33,1.73-2.92.11.65,1.29-1a26.16,26.16,0,0,1,1.11-3.54c.23-.62.48-1.26.73-1.88s.5-1.24.78-1.82c1.07-2.32,1.91-4.29,1.54-5,1.18-1.16-1.28,4,1-.07-.34-.88.27-2.08,1.09-3.53a24,24,0,0,0,2.62-5c-1.17.76-2.55,4.27-1.3.46,1.07-.79,1.89-2.53,2.66-4.44.36-1,.82-1.92,1.24-2.84a20.8,20.8,0,0,1,1.33-2.47c.45.17,1.44-1.36,2.7-3.51.15-.27.32-.54.48-.83l.55-.86L30,67.86c.79-1.23,1.62-2.47,2.44-3.61-.21.08,1-2.26,2.9-5l2.88-4.41c.49-.73.92-1.46,1.39-2.11s.89-1.26,1.26-1.8l-.22,0c.69-.11,1.83-1.25,3.12-2.73.64-.74,1.32-1.56,2-2.39s1.43-1.59,2.1-2.31c-.53-.24-1.18.13-2.74,1.6.77-1,1.61-1.87,2.4-2.8a16,16,0,0,0,3.33-3l-1.14.23c.81-.92,1.66-1.82,2.54-2.72s1.87-1.73,2.84-2.63,2-1.86,2.94-2.89c.5-.52,1-1.05,1.5-1.61s1.06-1.09,1.59-1.68c.71.23-2.32,4.75,2.78.5-.07-.43-.32-1-1.68.05a14.33,14.33,0,0,0,2.4-2.08l-2.34,1.4c1.9-2.17,1.44-.68,3-2.3-.38-.34,1-1.43.47-1.5a17.61,17.61,0,0,1-2.08,2c.91-.92,1.88-2,2.68-2.93l1.08-1.29a6.89,6.89,0,0,0,.68-.95c0,.37.46.51,1.93-.68,3.73-3.18.87-1.56,2.87-3.64a20.86,20.86,0,0,0,2.15-1.52c.77-.55,1.46-1,1.73-.69a4.22,4.22,0,0,0,1.43-1.84c.55-.33,1.41-1,2.37-1.65s2-1.53,3-2.13C85.57,7.52,87,6.7,86,7.86l-.5.42.36-.21h0C87.7,7,89.47,5.85,91.2,4.61c.43-.31.88-.61,1.33-.9l1.33-.9.76-.52C94.72,3,94.85,3.71,95,4.4Z"/><path class="cls-2" d="M68.47,7.49c0,.1.09.27.15.21l-.06-.33Z"/><path class="cls-2" d="M69.2,7.88a1.14,1.14,0,0,0-.13-.75c0,.33,0,.22,0,.61-.06.06-.17,0-.2-.17,0,.09-.14,0-.11.18.19.21.32.17.38-.08A.58.58,0,0,1,69.2,7.88Z"/><path class="cls-2" d="M76.8,5.88l-.06,0A.07.07,0,0,0,76.8,5.88Z"/><path class="cls-2" d="M81.51,4.75a.07.07,0,0,0,0,.08S81.53,4.78,81.51,4.75Z"/><path class="cls-2" d="M82.4,4.9h-.05S82.4,4.93,82.4,4.9Z"/><path class="cls-2" d="M76.8,5.88,77,6C76.93,5.84,76.87,5.89,76.8,5.88Z"/><path class="cls-2" d="M69.94,6.76a.15.15,0,0,0,0,.1l0-.05Z"/><path class="cls-2" d="M74.84,6.77h0v.14Z"/><path class="cls-2" d="M73.3,7.33s0-.27-.07-.39a.29.29,0,0,1,0,.2A.71.71,0,0,0,73.3,7.33Z"/><path class="cls-2" d="M70.68,7.71l0,0Z"/><path class="cls-2" d="M76,6.48a.36.36,0,0,0,0,.09A.41.41,0,0,0,76,6.48Z"/><path class="cls-2" d="M90.7,26.22h0S90.69,26.24,90.7,26.22Z"/><polygon class="cls-2" points="89.22 28.05 89.21 28.02 89.05 28.02 89.22 28.05"/><path class="cls-2" d="M84,4.89h0S83.94,4.91,84,4.89Z"/><path class="cls-2" d="M94.69,3.18c.29,0,.28.16.62.09A1.62,1.62,0,0,0,94.69,3.18Z"/><path class="cls-2" d="M70,6.78l.06,0S70,6.76,70,6.78Z"/><path class="cls-2" d="M95.31,3.27Z"/><path class="cls-2" d="M87.3,4a1.34,1.34,0,0,0-.06-.12A.43.43,0,0,0,87.3,4Z"/><path class="cls-2" d="M84.69,4.13l.07,0A.12.12,0,0,0,84.69,4.13Z"/><path class="cls-2" d="M88.54,3.3s.06.05.09,0l0,0S88.59,3.33,88.54,3.3Z"/><polygon class="cls-2" points="89.91 3.03 89.88 2.98 89.84 3 89.91 3.03"/><path class="cls-2" d="M91,22a1.09,1.09,0,0,1-.26,0C90.91,22.08,91,22.29,91,22Z"/><path class="cls-2" d="M70,6.91c0-.07,0-.11,0-.13l0,0A.23.23,0,0,0,70,6.91Z"/><path class="cls-2" d="M88.16,1.11h.23A.45.45,0,0,0,88.16,1.11Z"/><path class="cls-2" d="M93.21,12.41l0,.06S93.24,12.43,93.21,12.41Z"/><path class="cls-2" d="M89,.94a.4.4,0,0,0,.16.16.15.15,0,0,0,0-.07Z"/><path class="cls-2" d="M90.71,22.07Z"/><path class="cls-2" d="M91.19,23.59c0-.21-.34-.14-.55-.21-.07-.26.28-.08.48-.15-.07-.16-.4-.32-.37-.43s.09,0,.16,0c-.27-.2,0-.48-.29-.73h.09a1.87,1.87,0,0,1-.5,0c0-.09-.21-.21,0-.21,0,.06.08.08.15.12l-.09-.12c.36,0,.1.15.36.19-.09-.21-.34-.47-.22-.6.34,0,.06.35.39.2l-.16.21c.56-.09-.06.13.53.06.15-.28-.12-.36,0-.64-.18-.09-.28,0-.46-.11-.27-.48.9-.2.5-.58-.21-.12-.63-.22-.37-.4l.37.14c.09-.28-.52-.26-.21-.51.14.08.09.24.14.21.33-.14-.19-.18-.16-.33l.34,0c0-.32-.18-.7-.17-1.05.1,0,.19.12.31.06A1.66,1.66,0,0,1,92,17.47l-.25-.23s.14,0,.19,0c.15-.13-.18-.05-.27-.15s.19-.08.26,0c-.17-.34-.32-.93,0-1.14l.07.08c.17-.2-.51-.41-.19-.55l0,.05c.26-.45.15-1.08.69-1.32-.39-.19.33-.43-.23-.63.37-.2.44-.08.75-.41.06-.1-.3-.27-.32-.42l.3.09-.25-.27.38,0,0-.14a.3.3,0,0,1-.25,0c-.07-.23.36-.39.51-.34l-.1-.53c.12.05.13.14.19.22-.22-.34.32.07.12-.24-.08,0-.17-.08-.23-.11a.44.44,0,0,0,.3-.49l.19.11a9.9,9.9,0,0,0,.3-1.08c-.14.09-.47-.07-.46-.19l.32.08c-.16-.15-.16.06-.33-.17.09-.12.38.05.44.16l0-.2c.09,0,.12.08.23.14-.16-.15.42-.16.13-.39l.1,0c.15-.36.11-.57.22-.86-.26-.12-.15-.21-.32-.38.17-.18.48-.33.57-.6s-.19-.15-.31-.3c.24.09.33-.17.44,0a2.07,2.07,0,0,0,.13-.89c-.11,0-.18,0-.25,0s.18-.11.28,0l0,0c-.14-.6,1.15-.66.85-1.23v0l-.06-.48c.12-.14.12.18.32.14a.57.57,0,0,1,.12-.61A1,1,0,0,0,97,3.52a.85.85,0,0,0,.47-1,5.82,5.82,0,0,1-.28-1.21L97,1.39c-.22,0,0-.21-.06-.34-.1.1,0,.23-.16.21a4.24,4.24,0,0,0-1.74-1,5.22,5.22,0,0,0-1.14-.2c-.29,0-.55,0-.75-.06s0,.94-.48.58l.06-.34c-.56.49-1.27.19-1.81.63,0-.08,0-.17.06-.18-.17-.22-.47.07-.44.26-.1,0,0-.17-.13-.26s-.27.36-.38.14c0,0,0-.08,0-.1-.07.13-.4,0-.27.3-.25-.09-.41.2-.62.07-.06.33-.41-.07-.37.37-.07-.45-.46-.28-.56,0,0-.15-.16-.12-.14-.31a.27.27,0,0,0-.22.37c-.41-.47-.51.55-.82-.1a6.36,6.36,0,0,1-1.25.8c-.09-.44.47-.15.35-.61-.38.28-.53.7-1,.69-.12,0,0-.2,0-.29-.37.28-.81.14-1.11.47a.2.2,0,0,1,0-.14c-.07,0-.19,0-.13.17l.06-.07c.18.26-.15.67-.12.83,0-.6-.39-.06-.37-.83a.32.32,0,0,0,0,.29c-.07,0-.12-.09-.08-.26-.23.17-.09.36-.32.41a1.15,1.15,0,0,1,0-.26c-.07.21-.14.43-.36.39,0-.06,0-.13,0-.14-.34.11-.45.64-.87.55,0-.44-.16-.1-.27-.46l-.17.16.13.16c-.18,0-.26.34-.44.26l.09-.19L81,3.48l.22.09c-.13.23.14.45-.12.41,0,0-.17,0-.32-.15h0c0,.13-.11.28-.26.22s-.08-.4-.12-.47c0,.32-.38.19-.4.54A.81.81,0,0,0,80,3.81v.26c-.1-.05-.13-.09-.15-.24-.26,0,.2.43-.14.31,0,0,0-.06,0-.11-.31,0-.51.31-.8.26-.18-.34.2-.15,0-.43-.37.17-.67.66-1.06.67l.08,0c.1.53-.34-.17-.46.13,0-.06,0-.3,0-.24-.28,0-.48.27-.81.55V4.84c-.18-.07-.41,0-.59,0,0,.14-.1.15,0,.32-.72-.59-.81.69-1.43.2,0,0,.09-.15,0-.14l-.33.24c.09.21.09.12.22.27a.36.36,0,0,1-.17.31c.12-.2-.11-.36-.22-.46,0,.07,0,.15.06.22-.32-.33.11.45-.24.27L74,6c-.08.09-.12.27-.24.27-.13-.24.07-.15,0-.36-.15.06-.14.58-.36.37,0-.1.13-.13.17-.22-.24-.25-.23-.17-.36-.18h0L73,5.82l.09.06c0,.73-.34.25-.44.77.1-.49,0-.25-.12-.55-.09,0-.22-.11-.22-.2,0,.27-.25-.12-.31.28,0-.09-.13,0-.18-.21-.13.13.09.15.12.27-.13.39-.69-.19-.88.36-.23.28-.17.61-.39.86-.14-.12,0-.36,0-.36a.28.28,0,0,0-.4.13c0-.09,0-.15-.13-.24-.11.07,0,.37-.15.28a1.82,1.82,0,0,1,0-.41c-.1.14-.17.36-.28.49-.09-.15,0-.27,0-.4-.13.13-.34.29-.3.56l.13.06s-.11-.21-.08-.27c.06-.25.22,0,.26.11l-.08.09c.3.5.36-.23.56-.27l.06.43.09-.4c.08.09.18.29.11.39.21.14.07-.19.27,0a.11.11,0,0,1,0,.07l.09-.17c0,.1.12.27,0,.25.32.14.29-.44.48-.17v0c.29-.25-.07-.3.07-.73l.42.65-.07-.3a.12.12,0,0,1,.14.12c.06-.25-.06-.12,0-.33.26.2.42-.28.62.16,0-.24-.22-.11-.09-.32.22.47.17-.16.41,0,0,.27-.16.18.07.36,0-.47.34,0,.44-.14-.11-.34.23-.24.41-.42,0,.12.48.06.72.12V6.9c-.07-.37.16-.37.29-.49a.55.55,0,0,1,0,.42l.14,0a.3.3,0,0,1,.1-.26l0,.27c.19-.08.29-.43.59-.33-.06-.25-.41-.62-.2-.86,0,.13.13.35.08.42s0-.13.11-.09l0,.26c.15.06,0-.21.1-.21.06.18.11.11.14.26s-.1,0-.11,0a.49.49,0,0,1,.35.21c0-.1-.08-.25,0-.3s.14.21.28.27c0-.15.17,0,.09-.33,0,0,.1.11.15.18.06-.16.45-.17.25-.44l0,0h0c.24-.38.73,0,1-.26l0,.09c.16-.16.41-.19.49-.43.06,0,.19.14.2.26.12-.12.11-.23.37-.13-.1.2.09.13-.12.16.22,0,.3.17.44-.15,0,.26.23.27.3.17l-.18-.14a.47.47,0,0,1,.28-.07l0,.33c.5.28.53-.86,1-.28,0-.26-.26-.1-.24-.39.2,0,.51.4.57.39.29.11.1-.53.4-.48-.07-.11-.18-.41,0-.56s.35.42.26.54-.07,0-.08,0-.11.13,0,.23V4.94c.12.1.36,0,.35.22.11-.14,0-.2-.1-.23.27.1.36-.09.63,0,0,0-.12-.18-.08-.19.39,0,.1-.26.32-.37.18.14.06.43.26.22.18.09.11.3.08.41.16-.27.44,0,.58.06l-.09.12a.24.24,0,0,1,.17-.1l-.13-.21c.08,0,.14,0,.16.1,0-.16-.15-.37-.06-.61.12.1.25-.19.35.11-.31,0,.11.3-.12.41a.14.14,0,0,1,.17,0,.07.07,0,0,1,0,.09c.34.21,0-.38.33-.44,0,.18.14.31.18.26s-.12-.27,0-.43c.22.09.18-.14.28-.15l-.13,0c0-.18.09-.18.21-.26,0,.13-.1.12,0,.17.07-.34.4.24.54,0,.12.09.09.32.19.38.16-.27.29.18.48,0-.12-.22-.12-.16,0-.43l-.34.25.16-.39c-.11,0-.2.2-.28.18.07-.22.07-.16,0-.34.24.32.27-.27.51-.08l.12.58c.33.2.42-.4.81-.33l-.14-.08c0-.24.21-.08.31-.2a.72.72,0,0,0,.19.36c0-.14.26,0,.21-.43l.22.22c.31.05.21-.62.5-.61,0,.23.12.34,0,.53.09,0,.18,0,.16-.13.08.11.2-.32.32-.15,0-.09,0-.3.11-.3a.39.39,0,0,1,0,.09c0-.09.14-.16,0-.36.4.55.79-.2,1.14.28a2.86,2.86,0,0,1,.6-.27c0,.06,0,.1,0,.09.29.13.05-.59.38-.44s-.12.2,0,.3c.16.63.33-.15.6.19l0,0c.18.19.31-.31.57-.31a.19.19,0,0,0,0,.1A1.18,1.18,0,0,1,92.6,2c0,.27-.09.15,0,.4.1,0-.1-.4.1-.51.09.13.26.22.33.49l-.2.05c.16.33.26-.06.37,0v.15c.3-.1.24-.48.57-.51l0-.11c.11-.41.17.19.3-.11l.09.38a1.06,1.06,0,0,1,.47-.47,3.06,3.06,0,0,0-.4.63s.16,0,.25-.23c0,0-.08.13-.1.07.12-.31.34-.46.53-.42-.2.37-.14.43-.07.49s.16.14-.1.39c.18-.06.21,0,.15.15s-.16.18-.15.24c.66-.08,0,0,.66.06,0,.07,0,.1,0,.1a1.41,1.41,0,0,1-.44.08c-.18,0-.11-.08-.25-.11s-.25-.06-.41-.12l.21.1s0,.11-.08.15a1,1,0,0,1,.33,0c.15.41-.59,0-.46.47l-.12-.19c0,.22-.31.61,0,1-.07,0-.24,0-.25-.13-.27.36.05,1.1-.37,1.28l-.12-.1c0,.1.19.25,0,.28s-.12-.09-.15-.06.15.3,0,.37l-.11-.16c-.36.31.11.77,0,1.14a.69.69,0,0,0-.8.19l0,0c-.26.44,0,.93,0,1.42-.55.08-.54.82-.95,1.16.1,0,.32.13.33.22s.19.39-.19.23l0,0c-.4-.06-.38.18-.44.34l.48.21c-.87.17-.11,1.21-.84,1.22.09.15,0,.28.14.42l-.26-.09a1.65,1.65,0,0,0-.29.78l-.17-.13c-.08.2.7.49.66.68l-.42-.07c-.09.36-.55.62-.28,1.07-.06,0-.17-.06-.17-.13-.06.17-.46.58.12.67-.37-.1-.13.36,0,.59l-.26-.1c.3.25.39.28.43.53,0,0-.22,0-.14-.06-.18.14.22.2,0,.38L90,16.59c-.06.18,0,.18.21.33s-.14.33-.4.31c.15.05.33.2.23.29a.27.27,0,0,1-.17-.08c-.25.27.22.53-.09.68a.44.44,0,0,0-.17,0c.06-.24.11-.44.13-.41-.25-.06-.34.13-.65-.1.15.2.51.56.35.73h-.1l0,0s0,.09,0,.13-.09.09-.1.15c-.22,0-.16.21-.19.31.28,0,.21.16.46.08,0,0,0,0,0-.09a.06.06,0,0,0,0,0h0l0-.25c.13.11.23.21.06.29l.42.23c-.41.06-.67.28-.92.28.1.33,0,.74.47,1,0,.09-.17.07-.26.09s0-.12-.09-.16c.1.2,0,.53.33.62-.2.2-.32-.17-.31.14l-.1-.06c-.68.51.79,1.09,0,1.65a.18.18,0,0,1,.14-.06c-.44.71.14,1.57-.46,2.26-.12.2.11.25.28.39l-.3,0,.33.25c.24.32-.77.49-.32.91l.21,0c0,.14.1.46-.13.42,0,0,.21.06.1.11h-.16l.26.36c-.13.26-.63-.07-.67.33.05.15.44.43.55.38a.25.25,0,0,1,.26-.15l.08.13c.46,0,.94.15,1.27-.16l-.27-.23.23-.07v.19c.22-.1,0-.17-.09-.25a.39.39,0,0,0,.25-.09l-.44-.23c.19,0,.36.11.47,0-.2-.11-.41.08-.54-.1.21-.09.38-.05.21-.19a.28.28,0,0,1,.24.07c-.13-.12,0-.29-.29-.37.27-.09,0-.38.4-.34-.11,0-.34-.22-.35-.32.52.22.06-.38.62-.29-.46-.17-.18-.51-.42-.78,0,0,.11.05.09.07s.19-.16.29-.24c-.39-.05-.45-.27-.68-.41.39-.14.44.14.81.12-.32,0-.29-.32-.56-.29a.86.86,0,0,1,.46-.13c-.49-.07-.07-.13-.36-.27.26-.16.46,0,.33-.21C91,23.39,91.19,23.59,91.19,23.59Zm-.07-5h0v0Zm.08-.4c0,.05,0,.11,0,.17s-.19,0-.18-.08S91.11,18.27,91.2,18.23Zm-2.09.48c0-.07,0-.09.09-.08a.57.57,0,0,0,0,.12h0Z"/><path class="cls-2" d="M89.45,18.9l0,0,.07,0-.08,0Z"/><path class="cls-2" d="M76.73,5.86h0l0,0Z"/><polygon class="cls-2" points="93.19 12.88 93.13 12.86 93.17 12.92 93.19 12.88"/><path class="cls-2" d="M74.24,5.62l-.06-.06A.17.17,0,0,0,74.24,5.62Z"/><path class="cls-2" d="M73.26,5.87l-.16,0A.32.32,0,0,0,73.26,5.87Z"/><path class="cls-2" d="M72.49,6a.37.37,0,0,0,0,.12h0Z"/><path class="cls-2" d="M84.21,2.31s0,0,0,0S84.25,2.25,84.21,2.31Z"/><path class="cls-2" d="M80.82,3.83a1.19,1.19,0,0,1,.08-.16C80.83,3.66,80.78,3.67,80.82,3.83Z"/><polygon class="cls-2" points="88.13 1.11 88.13 1.12 88.16 1.11 88.13 1.11"/><path class="cls-2" d="M81.07,3.63a.12.12,0,0,0-.17,0C81,3.67,81,3.69,81.07,3.63Z"/><path class="cls-2" d="M69.29,7h0a.09.09,0,0,1,0,0Z"/><path class="cls-2" d="M69.26,7l0,0S69.27,7.05,69.26,7Z"/><path class="cls-2" d="M69.18,7.16l0-.1S69.17,7.08,69.18,7.16Z"/><path class="cls-2" d="M70.29,6.75l0-.1A.84.84,0,0,0,70.29,6.75Z"/><path class="cls-2" d="M70.58,6.61c-.08,0-.25-.14-.33,0l0,.08C70.27,6.49,70.57,6.8,70.58,6.61Z"/><path class="cls-2" d="M72.21,7.38h-.27c.08.08.18.2.08.27C72.43,7.86,71.87,7.45,72.21,7.38Z"/><path class="cls-2" d="M73,7.27c-.11.1.06.15.07.21C73.13,7.36,73.14,7.33,73,7.27Z"/><path class="cls-2" d="M78.52,5.57l.06.24C78.67,5.75,78.55,5.72,78.52,5.57Z"/><polygon class="cls-2" points="79.23 3.99 79.08 3.87 79.1 4.11 79.23 3.99"/><polygon class="cls-2" points="80.34 5.58 80.3 5.63 80.45 5.49 80.34 5.58"/><path class="cls-2" d="M89.72,3.32,89.62,3C89.56,3.08,89.62,3.43,89.72,3.32Z"/><path class="cls-2" d="M93.77,2.28c.07.15.18.23.22.07S93.81,2.23,93.77,2.28Z"/><polygon class="cls-2" points="91.16 11.02 91.09 10.9 91.12 11.09 91.16 11.02"/></g></g></svg>