<svg xmlns="http://www.w3.org/2000/svg" viewBox="0 0 522.32 494.44"><defs><style>.cls-1{fill:#fac645;}.cls-2{fill:#b7dcf2;}.cls-3{fill:#d0e9f4;}.cls-4{fill:#e9f4f8;}.cls-37,.cls-5{fill:#fff;}.cls-6{fill:#9fd1f0;}.cls-7{fill:#e7e6e5;opacity:0.3;}.cls-8{fill:#25888f;}.cls-9{fill:#21888f;}.cls-10{fill:#1c8081;}.cls-11{fill:#e8ad3c;}.cls-12{fill:#d2a055;opacity:0.4;}.cls-13{fill:#1b1a1a;}.cls-14{fill:#daeef8;}.cls-15{fill:#da9d34;}.cls-16{fill:#f4c065;}.cls-17{fill:#137c7e;}.cls-18{fill:#47b3b4;}.cls-19{fill:#636363;}.cls-20{fill:#14147a;}.cls-21{font-size:33.3px;fill:#090723;font-family:ShadowsIntoLight, Shadows Into Light;}.cls-22{letter-spacing:-0.06em;}.cls-23{letter-spacing:-0.03em;}.cls-24{letter-spacing:0em;}.cls-25{letter-spacing:-0.09em;}.cls-26{letter-spacing:-0.03em;}.cls-27{font-size:53.96px;}.cls-28{fill:none;stroke:#000;}.cls-28,.cls-37,.cls-38{stroke-miterlimit:10;}.cls-29{font-size:24px;}.cls-29,.cls-38{font-family:Delius-Regular, Delius;}.cls-30{letter-spacing:-0.02em;}.cls-31{letter-spacing:-0.01em;}.cls-32{letter-spacing:-0.01em;}.cls-33{letter-spacing:-0.01em;}.cls-34{letter-spacing:-0.01em;}.cls-35{letter-spacing:-0.01em;}.cls-36{letter-spacing:-0.01em;}.cls-37{stroke:#fff;}.cls-38{font-size:35.6px;fill:#5d0d7a;stroke:#5d0d7a;}</style></defs><title>POP UP SOLIDO</title><g id="Capa_2" data-name="Capa 2"><g id="Capa_1-2" data-name="Capa 1"><rect class="cls-1" width="522.32" height="494.44" rx="68.09"/><polygon class="cls-2" points="351.14 224.46 338.83 235.83 287.68 166.68 278.21 170.47 247.9 137.32 172.12 230.14 155.07 233.93 91.61 331.02 430.7 331.02 351.14 224.46"/><polygon class="cls-3" points="123.76 331.02 192.76 331.02 229.43 237.72 214.27 241.98 247.9 137.32 172.12 230.14 181.6 259.5 123.76 331.02"/><polygon class="cls-3" points="155.07 233.93 91.61 331.02 104.88 331.02 159.81 245.46 155.07 233.93"/><polygon class="cls-3" points="278.21 170.47 260.53 237.25 268.1 236.3 238.74 331.02 257.05 331.02 291.78 222.09 283.57 221.14 287.68 166.68 278.21 170.47"/><polygon class="cls-3" points="351.14 224.46 365.82 284.84 356.35 296.21 365.11 293.37 375.53 331.25 321.3 331.25 334.56 289.1 338.83 235.83 351.14 224.46"/><polygon class="cls-4" points="241.58 147.74 177.33 229.35 187.59 259.98 130.21 331.06 170.23 331.06 206.22 260.93 198.88 227.06 241.58 147.74"/><polygon class="cls-4" points="155.07 233.93 104.88 331.02 91.61 331.02 155.07 233.93"/><polygon class="cls-4" points="287.68 166.68 268.1 236.3 260.53 237.25 278.21 170.47 287.68 166.68"/><polygon class="cls-4" points="234.87 244.11 203.26 331.07 216.64 331.07 234.87 244.11"/><polygon class="cls-4" points="338.83 235.83 334.56 289.1 321.3 331.25 340.48 331.25 348.77 270.16 338.83 235.83"/><polygon class="cls-5" points="203.26 331.07 210.96 331.07 225.52 269.81 203.26 331.07"/><polygon class="cls-5" points="146.87 324.39 185.07 270.08 159.18 324.86 146.87 324.39"/><polygon class="cls-5" points="227.69 168.89 180.49 229.83 191.38 258.08 188.86 228.56 227.69 168.89"/><polygon class="cls-6" points="278.21 170.47 260.53 237.25 268.1 236.3 238.74 331.02 221.85 331.02 255 247.66 240.08 249.56 278.21 170.47"/><polygon class="cls-6" points="338.83 235.83 334.56 289.1 321.3 331.25 277.58 331.25 296.83 276.71 297.15 241.98 304.41 276.4 295.57 320.6 312.31 320.6 326.51 286.5 338.83 235.83"/><polygon class="cls-6" points="172.12 230.14 181.6 259.5 123.76 331.02 112.45 331.02 174.73 258.79 172.12 230.14"/><ellipse class="cls-7" cx="332.39" cy="358.71" rx="39.92" ry="7.84"/><path class="cls-8" d="M311,242.6c-6.91,5.64-24.41,52.15-24.41,52.15s-4.2,3.38-3.47,4.64c.56,1,2.67-1.36,2.67-1.36s-1.85,3.27-1.11,4,2.54-3,2.54-3-.79,4,0,4,1.89-4.07,1.89-4.07,1,1.8,1.8,1.37-1.12-4.28-1.12-4.28a203.55,203.55,0,0,1,24.37-50.83Z"/><path class="cls-9" d="M359.48,262.4h0c-.53-.88-1.09-1.73-1.69-2.56-10.07-16.16-8.07-31.27-7.25-35.44.09-.37.18-.75.25-1.13h0a30.12,30.12,0,0,0,.6-6c0-14.43-10.19-26.14-22.77-26.14s-22.77,11.71-22.77,26.14a29.75,29.75,0,0,0,1.19,8.37h0c.15.51.32,1,.5,1.52,4.38,14.44-1.13,29.6-4.17,36.28-.64,1.14-1.22,2.31-1.75,3.52h0a41.61,41.61,0,0,0-3.41,16.61c0,20.83,15,37.73,33.52,37.73s33.53-16.9,33.53-37.73A40.94,40.94,0,0,0,359.48,262.4Z"/><rect class="cls-9" x="320.48" y="315.74" width="3.29" height="41.69"/><rect class="cls-9" x="338.22" y="315.74" width="3.29" height="41.69"/><path class="cls-9" d="M320.48,356.35s-7.12.63-5.58,3h8.87v-3Z"/><path class="cls-9" d="M341.51,356.35s7.12.63,5.58,3h-8.87v-3Z"/><path class="cls-10" d="M361.36,266s6.39,12.91,2.86,26.92-14.5,29.72-35.1,28.29C329.12,321.18,373.17,314.14,361.36,266Z"/><path class="cls-10" d="M320.48,319.12a9.62,9.62,0,0,0,3.29,1.11v1.92a4.26,4.26,0,0,1-3.29-.81Z"/><path class="cls-10" d="M341.51,319.66a8.85,8.85,0,0,1-3.29.9v1.57s2.16.43,3.29-.83Z"/><path class="cls-10" d="M347.35,199.07s-.81,7.72-28.33,7.26c0,0,7.39-3,7.39-4.88a23.4,23.4,0,0,1-10.22,3.41s3.68-3.85,3.52-5.29c0,0-8.6.26-11.43,7.16l.91-7.43,9.06-3,5.4.87,22.72-.74Z"/><path class="cls-5" d="M326,215.29a4.63,4.63,0,1,1-4.63-4.63A4.63,4.63,0,0,1,326,215.29Z"/><path class="cls-11" d="M324.54,215.29a3.22,3.22,0,1,1-3.21-3.22A3.22,3.22,0,0,1,324.54,215.29Z"/><path class="cls-12" d="M324.22,215.29a2.9,2.9,0,1,1-5.79,0c0-1.6,1.3,1.44,2.9,1.44S324.22,213.69,324.22,215.29Z"/><path class="cls-13" d="M323.67,215.29a2.35,2.35,0,1,1-2.34-2.34A2.35,2.35,0,0,1,323.67,215.29Z"/><circle class="cls-5" cx="322.41" cy="214.37" r="0.35"/><path class="cls-14" d="M318.25,212.31s-1,3.22-.2,5.26C316.28,214.35,317.26,212.78,318.25,212.31Z"/><path class="cls-5" d="M342,215.06a4.64,4.64,0,1,1-4.64-4.64A4.63,4.63,0,0,1,342,215.06Z"/><path class="cls-11" d="M340.55,215.06a3.22,3.22,0,1,1-3.22-3.22A3.22,3.22,0,0,1,340.55,215.06Z"/><path class="cls-12" d="M340.23,215.06a2.9,2.9,0,0,1-5.79,0c0-1.6,1.29,1.44,2.89,1.44S340.23,213.46,340.23,215.06Z"/><path class="cls-13" d="M339.68,215.06a2.35,2.35,0,1,1-2.35-2.35A2.35,2.35,0,0,1,339.68,215.06Z"/><path class="cls-5" d="M338.77,214.14a.36.36,0,0,1-.71,0,.36.36,0,1,1,.71,0Z"/><path class="cls-14" d="M340.29,212.25a7.75,7.75,0,0,1,.2,4.95C342.07,214.21,341.71,212.88,340.29,212.25Z"/><path class="cls-11" d="M351.32,219.36c1.17-5.34,1.93-17,1.47-21.7-.29-2.9-2.1-10.07-7.37-8,.11-1.55-.65-4.34-2.62-5a3.35,3.35,0,0,1,0,3.49c-2.19-2.52-4.54-2.52-7.81-3.11-6.12-1.16-22.91-.88-27.5,8-2.63,5-2.87,19.84-1.59,25.94,0,0,.74-20.13,11.75-19.24a22,22,0,0,1-2.81,5.18,37.09,37.09,0,0,0,10.3-4c-.25,1.07-2.29,3-7.6,5,7.64-.09,21.06-1.61,26.09-5.3C349.16,200.83,351.32,219.36,351.32,219.36Z"/><path class="cls-15" d="M317.76,205.76l-.22.09c7.64-.1,21.06-1.62,26.09-5.3a3.41,3.41,0,0,1,2.06.91,17.69,17.69,0,0,0-2.95-2.7C337.26,202.31,326.8,204.39,317.76,205.76Z"/><path class="cls-11" d="M314.84,204.86a36.88,36.88,0,0,0,10.3-4,2.66,2.66,0,0,1-.76,1.18,2.65,2.65,0,0,0,1.55-2.49C322.88,201.88,315.12,204.53,314.84,204.86Z"/><path class="cls-11" d="M352.79,197.65c-.29-2.9-2.1-10.06-7.37-8,0-.12,0-.23,0-.36-.22.12-.35.25-.11.48,5.54,2.14,7.18,7.91,7.42,14.21A39.19,39.19,0,0,0,352.79,197.65Z"/><path class="cls-16" d="M342.74,188.09h0c-2.17-2.45-4.51-2.46-7.75-3-6.12-1.16-22.91-.89-27.5,7.94a17.94,17.94,0,0,0-1.5,5C311.49,186.53,327.61,183.88,342.74,188.09Z"/><path class="cls-17" d="M313.94,218.26a8.44,8.44,0,0,0,.85,1.7,5.71,5.71,0,0,0,1.23,1.36,5.14,5.14,0,0,0,1.59.91,7.2,7.2,0,0,0,.9.28c.15.05.31.05.46.09l.48.09-.49,0h-.48a5.31,5.31,0,0,1-1-.16,4.44,4.44,0,0,1-1.77-.9,5.13,5.13,0,0,1-1.25-1.53A5,5,0,0,1,313.94,218.26Z"/><path class="cls-17" d="M343.42,218.19a4.36,4.36,0,0,1-.34,1.66,4.27,4.27,0,0,1-1,1.45,4.1,4.1,0,0,1-.71.53,3.32,3.32,0,0,1-.8.34,3.68,3.68,0,0,1-1.71.08,6.74,6.74,0,0,0,1.59-.4,3.94,3.94,0,0,0,1.32-.87,5,5,0,0,0,1-1.27A8.91,8.91,0,0,0,343.42,218.19Z"/><path class="cls-17" d="M331.76,225.53c-2.59-2.73-1.77-3-2.11-4.29s-.88-.76-.88-.76c-2.45,3.87-.42,6.71.39,7.61a1.7,1.7,0,0,0,.3.3h0a1.87,1.87,0,0,0,1.15.4,1.84,1.84,0,0,0,1.84-1.84A1.82,1.82,0,0,0,331.76,225.53Z"/><path class="cls-17" d="M320.4,232.37c1.07.48,2.1.95,3.15,1.38s2.09.82,3.15,1.17a32.19,32.19,0,0,0,3.24.87l.83.17.83.13.42.07.43.05c.28,0,.57.06.86.11-.28.08-.56.13-.85.19l-.44.08-.43,0-.89,0-.88,0a14,14,0,0,1-3.45-.69,15.68,15.68,0,0,1-3.21-1.44A13,13,0,0,1,320.4,232.37Z"/><path class="cls-13" d="M323.42,209.24a7.77,7.77,0,0,0-5.12,1,.53.53,0,0,1-.69-.07h0a.51.51,0,0,1,.18-.69,9,9,0,0,1,5.75-1.79c1,0,1.71.61,1.56,1h0C325,209.23,324.18,209.34,323.42,209.24Z"/><path class="cls-13" d="M335.24,209a7.83,7.83,0,0,1,5.12,1.06.54.54,0,0,0,.69-.07h0a.5.5,0,0,0-.18-.69,9,9,0,0,0-5.75-1.79c-1,0-1.71.61-1.56,1.05h0C333.7,209,334.48,209.1,335.24,209Z"/><path class="cls-17" d="M325.3,207.27s1.14,1.62-.16,2.11C326.82,209.44,326.22,207.76,325.3,207.27Z"/><path class="cls-18" d="M309.77,210.35l1.42-3.62,1.42,3.62a1.52,1.52,0,1,1-2.84,1.11A1.47,1.47,0,0,1,309.77,210.35Z"/><path class="cls-18" d="M312.77,208.05l.68-1.72.67,1.72a.73.73,0,0,1-.41.95.74.74,0,0,1-.94-.41A.77.77,0,0,1,312.77,208.05Z"/><path class="cls-8" d="M391.17,233.72c-.56-1-2.67,1.37-2.67,1.37s1.85-3.28,1.11-4-2.55,3-2.55,3,.8-4,0-4-1.88,4.08-1.88,4.08-1-1.8-1.8-1.38,1.1,4.33,1.1,4.33c-5.45,17.26-9.28,25.17-11.52,28.78l-22.09-21,1.58,7.16,18.14,16.8h0l1.63,1.5a1.42,1.42,0,0,0,2-.09c6.59-7.28,13.19-32,13.19-32S391.9,235,391.17,233.72Z"/><rect class="cls-19" x="301.82" y="193.23" width="6.95" height="7.82"/><rect class="cls-19" x="349.7" y="193.23" width="6.95" height="7.82"/><path class="cls-20" d="M354.7,201.33c0-.28,0-.55,0-.82,0-11.65-11.42-21.1-25.5-21.1s-25.51,9.45-25.51,21.1c0,.27,0,.54,0,.82Z"/><polygon class="cls-19" points="333.93 200.2 324.05 200.2 320.29 176.1 337.7 176.1 333.93 200.2"/><path class="cls-19" d="M356.79,204.69a3.89,3.89,0,0,1-4.08,3.66h-46.8a3.89,3.89,0,0,1-4.09-3.66h0v-3.64h54.83s.14,1.63.14,3.64Z"/><rect class="cls-19" x="320.55" y="316.71" width="3.27" height="12.01"/><rect class="cls-19" x="338.23" y="316.71" width="3.27" height="12.01"/><path class="cls-19" d="M308.7,245.35s-4.52,14.39-8.53,25.43c0,0-8.16,24.89,9.49,41.19,0,0,15.48,17.4,38.61,4.63,0,0,16.59-9.71,17-33,0,0,.92-10.52-6.59-22.47-7.14-11.34-5.8-9.66-7.11-15.55l-.87-3.71-3.28,18.77H312.7L309,241.84Z"/><text class="cls-21" transform="translate(226.05 68.62)"><tspan class="cls-22">P</tspan><tspan x="16.06" y="0">ri</tspan><tspan class="cls-23" x="33.65" y="0">m</tspan><tspan class="cls-24" x="53.36" y="0">e</tspan><tspan class="cls-25" x="68.71" y="0">r</tspan><tspan class="cls-24" x="79.05" y="0">a </tspan><tspan class="cls-26" x="110" y="0">f</tspan><tspan x="121.12" y="0">ase</tspan><tspan class="cls-27"><tspan x="0" y="54">SÓLIDO</tspan></tspan></text><path d="M216.58,94.58c-20.46,18-34.35,41.73-35.89,69.32-1.61,28.79,9.24,57.49,28.87,78.5.87.93,2.27-.48,1.4-1.41a105.3,105.3,0,0,1-28.29-77.09C184.19,136.83,197.93,113.63,218,96c1-.84-.45-2.24-1.41-1.4Z"/><polyline class="cls-28" points="204.58 96.08 218.54 94.23 216.02 107.34"/><path class="cls-19" d="M387.37,228.21a7.84,7.84,0,1,1,7.83-7.84A7.84,7.84,0,0,1,387.37,228.21Zm0-13.1a5.27,5.27,0,1,0,5.26,5.26A5.27,5.27,0,0,0,387.37,215.11Z"/><rect class="cls-19" x="385.88" y="226" width="2.97" height="15.11"/><text class="cls-29" transform="translate(133.19 397.53)"><tspan class="cls-30">I</tspan><tspan class="cls-31" x="10.01" y="0">d</tspan><tspan x="24" y="0">e</tspan><tspan class="cls-32" x="36.94" y="0">n</tspan><tspan x="50.62" y="0">tifi</tspan><tspan class="cls-33" x="77.3" y="0">c</tspan><tspan x="89.33" y="0">a y explo</tspan><tspan class="cls-34" x="185.37" y="0">r</tspan><tspan x="194.9" y="0">a una </tspan><tspan x="54.36" y="28.8">p</tspan><tspan class="cls-35" x="68.04" y="28.8">r</tspan><tspan x="77.62" y="28.8">oblemáti</tspan><tspan class="cls-36" x="170.88" y="28.8">c</tspan><tspan x="182.9" y="28.8">a.</tspan></text><path class="cls-37" d="M472.27,63h0A19.07,19.07,0,0,1,453.2,43.92h0a19.07,19.07,0,0,1,19.07-19.07h0a19.07,19.07,0,0,1,19.07,19.07h0A19.07,19.07,0,0,1,472.27,63Z"/><text class="cls-38" transform="translate(463.56 52.45)">x</text></g></g></svg>