<svg xmlns="http://www.w3.org/2000/svg" viewBox="0 0 281.7 253.7"><defs><style>.cls-1{fill:#b7dcf2;}.cls-2{fill:#d0e9f4;}.cls-3{fill:#e9f4f8;}.cls-20,.cls-4{fill:#fff;}.cls-5{fill:#9fd1f0;}.cls-6{fill:#e7e6e5;opacity:0.3;}.cls-7{fill:#25888f;}.cls-8{fill:#21888f;}.cls-9{fill:#1c8081;}.cls-10{fill:#e8ad3c;}.cls-11{fill:#d2a055;opacity:0.4;}.cls-12{fill:#1b1a1a;}.cls-13{fill:#daeef8;}.cls-14{fill:#da9d34;}.cls-15{fill:#f4c065;}.cls-16{fill:#137c7e;}.cls-17{fill:#47b3b4;}.cls-18{fill:#636363;}.cls-19{fill:#14147a;}.cls-20{font-size:39.13px;font-family:ShadowsIntoLight, Shadows Into Light;}.cls-21{letter-spacing:-0.06em;}.cls-22{letter-spacing:-0.03em;}.cls-23{letter-spacing:-0.09em;}.cls-24{font-size:64.6px;fill:#fac645;stroke:#fac645;stroke-width:1.2px;}.cls-24,.cls-25{stroke-miterlimit:10;}.cls-25{fill:none;stroke:#fff;stroke-linecap:round;stroke-width:2px;}</style></defs><title>SOLIDO</title><g id="Capa_2" data-name="Capa 2"><g id="Capa_1-2" data-name="Capa 1"><polygon class="cls-1" points="153.59 169.61 146.3 176.34 116.03 135.42 110.43 137.66 92.49 118.04 47.65 172.98 37.56 175.22 0 232.67 200.67 232.67 153.59 169.61"/><polygon class="cls-2" points="19.02 232.67 59.86 232.67 81.56 177.46 72.59 179.98 92.49 118.04 47.65 172.98 53.25 190.35 19.02 232.67"/><polygon class="cls-2" points="37.56 175.22 0 232.67 7.85 232.67 40.36 182.04 37.56 175.22"/><polygon class="cls-2" points="110.43 137.66 99.96 177.18 104.45 176.62 87.07 232.67 97.91 232.67 118.46 168.21 113.6 167.65 116.03 135.42 110.43 137.66"/><polygon class="cls-2" points="153.59 169.61 162.28 205.35 156.67 212.07 161.85 210.39 168.02 232.81 135.93 232.81 143.78 207.87 146.3 176.34 153.59 169.61"/><polygon class="cls-3" points="88.75 124.21 50.73 172.51 56.8 190.63 22.84 232.7 46.52 232.7 67.83 191.19 63.48 171.15 88.75 124.21"/><polygon class="cls-3" points="37.56 175.22 7.85 232.67 0 232.67 37.56 175.22"/><polygon class="cls-3" points="116.03 135.42 104.45 176.62 99.96 177.18 110.43 137.66 116.03 135.42"/><polygon class="cls-3" points="84.78 181.24 66.07 232.71 73.99 232.71 84.78 181.24"/><polygon class="cls-3" points="146.3 176.34 143.78 207.87 135.93 232.81 147.28 232.81 152.19 196.66 146.3 176.34"/><polygon class="cls-4" points="66.07 232.71 70.63 232.71 79.25 196.45 66.07 232.71"/><polygon class="cls-4" points="32.7 228.75 55.31 196.61 39.98 229.03 32.7 228.75"/><polygon class="cls-4" points="80.53 136.73 52.6 172.79 59.04 189.51 57.55 172.04 80.53 136.73"/><polygon class="cls-5" points="110.43 137.66 99.96 177.18 104.45 176.62 87.07 232.67 77.07 232.67 96.69 183.35 87.86 184.47 110.43 137.66"/><polygon class="cls-5" points="146.3 176.34 143.78 207.87 135.93 232.81 110.05 232.81 121.45 200.54 121.64 179.98 125.93 200.35 120.7 226.51 130.6 226.51 139.01 206.33 146.3 176.34"/><polygon class="cls-5" points="47.65 172.98 53.25 190.35 19.02 232.67 12.33 232.67 49.19 189.93 47.65 172.98"/><path class="cls-6" d="M166.11,249.06c0,2.56-10.57,4.64-23.62,4.64s-23.62-2.08-23.62-4.64,10.57-4.64,23.62-4.64S166.11,246.5,166.11,249.06Z"/><path class="cls-7" d="M129.83,180.35c-4.09,3.34-14.44,30.86-14.44,30.86s-2.49,2-2.06,2.75c.33.57,1.58-.81,1.58-.81s-1.09,1.94-.65,2.37,1.5-1.8,1.5-1.8-.47,2.35,0,2.34,1.11-2.41,1.11-2.41.59,1.07,1.07.82-.66-2.54-.66-2.54a120.38,120.38,0,0,1,14.42-30.08Z"/><path class="cls-8" d="M158.52,192.06h0c-.32-.52-.65-1-1-1.51a29.69,29.69,0,0,1-4.29-21l.15-.66h0a18,18,0,0,0,.36-3.55c0-8.54-6-15.47-13.48-15.47s-13.48,6.93-13.48,15.47a17.42,17.42,0,0,0,.71,5h0c.09.31.19.61.29.91,2.6,8.54-.67,17.51-2.46,21.47a21.23,21.23,0,0,0-1,2.08h0a24.42,24.42,0,0,0-2,9.82c0,12.33,8.88,22.33,19.84,22.33s19.84-10,19.84-22.33A24.23,24.23,0,0,0,158.52,192.06Z"/><rect class="cls-8" x="135.44" y="223.63" width="1.95" height="24.67"/><rect class="cls-8" x="145.94" y="223.63" width="1.95" height="24.67"/><path class="cls-8" d="M135.44,247.66s-4.21.38-3.3,1.77h5.25v-1.77Z"/><path class="cls-8" d="M147.89,247.66s4.21.38,3.3,1.77h-5.25v-1.77Z"/><path class="cls-9" d="M159.63,194.18s3.78,7.64,1.7,15.93-8.59,17.59-20.77,16.74C140.56,226.85,166.63,222.69,159.63,194.18Z"/><path class="cls-9" d="M135.44,225.63a5.67,5.67,0,0,0,1.95.66v1.13a2.53,2.53,0,0,1-1.95-.47Z"/><path class="cls-9" d="M147.89,226a5.38,5.38,0,0,1-1.95.53v.93a2.29,2.29,0,0,0,1.95-.49Z"/><path class="cls-9" d="M151.34,154.59s-.48,4.56-16.76,4.3c0,0,4.37-1.8,4.37-2.89a13.9,13.9,0,0,1-6,2s2.18-2.29,2.08-3.14c0,0-5.08.16-6.76,4.24l.54-4.4,5.36-1.77,3.2.52,13.45-.44Z"/><path class="cls-4" d="M138.69,164.19a2.75,2.75,0,1,1-2.75-2.74A2.75,2.75,0,0,1,138.69,164.19Z"/><path class="cls-10" d="M137.85,164.19a1.91,1.91,0,1,1-1.91-1.91A1.9,1.9,0,0,1,137.85,164.19Z"/><path class="cls-11" d="M137.66,164.19a1.72,1.72,0,0,1-3.43,0c0-.95.77.85,1.71.85S137.66,163.24,137.66,164.19Z"/><path class="cls-12" d="M137.33,164.19a1.39,1.39,0,1,1-1.39-1.39A1.38,1.38,0,0,1,137.33,164.19Z"/><path class="cls-4" d="M136.8,163.64a.21.21,0,0,1-.21.21.21.21,0,0,1-.21-.21.21.21,0,0,1,.21-.21A.22.22,0,0,1,136.8,163.64Z"/><path class="cls-13" d="M134.12,162.42a5.9,5.9,0,0,0-.11,3.11C133,163.63,133.54,162.7,134.12,162.42Z"/><path class="cls-4" d="M148.16,164.05a2.74,2.74,0,1,1-2.74-2.74A2.74,2.74,0,0,1,148.16,164.05Z"/><path class="cls-10" d="M147.32,164.05a1.91,1.91,0,1,1-1.9-1.91A1.9,1.9,0,0,1,147.32,164.05Z"/><path class="cls-11" d="M147.13,164.05a1.72,1.72,0,0,1-3.43,0c0-1,.77.85,1.72.85S147.13,163.1,147.13,164.05Z"/><path class="cls-12" d="M146.8,164.05a1.39,1.39,0,1,1-1.38-1.39A1.39,1.39,0,0,1,146.8,164.05Z"/><path class="cls-4" d="M146.27,163.5a.21.21,0,0,1-.21.21.21.21,0,0,1-.21-.21.21.21,0,0,1,.21-.21A.22.22,0,0,1,146.27,163.5Z"/><path class="cls-13" d="M147.17,162.39a4.55,4.55,0,0,1,.11,2.92C148.22,163.55,148,162.76,147.17,162.39Z"/><path class="cls-10" d="M153.69,166.59a58.17,58.17,0,0,0,.87-12.84c-.17-1.72-1.24-5.95-4.36-4.71.07-.92-.38-2.57-1.55-3a2,2,0,0,1,0,2.06c-1.29-1.49-2.68-1.49-4.62-1.83-3.62-.69-13.56-.53-16.27,4.7-1.56,3-1.71,11.74-1,15.35,0,0,.44-11.91,7-11.39a13.13,13.13,0,0,1-1.66,3.07,21.88,21.88,0,0,0,6.09-2.36c-.15.63-1.35,1.78-4.5,2.94,4.53-.06,12.47-1,15.44-3.14C152.42,155.63,153.69,166.59,153.69,166.59Z"/><path class="cls-14" d="M133.84,158.55l-.14,0c4.53-.06,12.46-1,15.44-3.14a2,2,0,0,1,1.22.54,10.3,10.3,0,0,0-1.75-1.59C145.37,156.5,139.18,157.74,133.84,158.55Z"/><path class="cls-10" d="M132.11,158a21.88,21.88,0,0,0,6.09-2.36,1.61,1.61,0,0,1-.45.7,1.59,1.59,0,0,0,.92-1.48C136.86,156.25,132.27,157.82,132.11,158Z"/><path class="cls-10" d="M154.56,153.75c-.17-1.72-1.24-6-4.36-4.71a1.48,1.48,0,0,0,0-.21c-.13.07-.21.15-.06.28,3.27,1.27,4.24,4.68,4.39,8.41A23.82,23.82,0,0,0,154.56,153.75Z"/><path class="cls-15" d="M148.61,148.09h0c-1.28-1.45-2.66-1.45-4.58-1.8-3.62-.68-13.56-.52-16.27,4.7a10.2,10.2,0,0,0-.89,3C130.12,147.16,139.66,145.6,148.61,148.09Z"/><path class="cls-16" d="M131.57,166a5.19,5.19,0,0,0,.5,1,4,4,0,0,0,.73.81,3.27,3.27,0,0,0,.95.53,4.11,4.11,0,0,0,.53.17,2.16,2.16,0,0,0,.27,0l.28.06h-.57a2.91,2.91,0,0,1-.58-.09,2.78,2.78,0,0,1-1-.53,2.83,2.83,0,0,1-.74-.91A2.92,2.92,0,0,1,131.57,166Z"/><path class="cls-16" d="M149,165.9a2.82,2.82,0,0,1-.2,1,2.54,2.54,0,0,1-.57.85,2.59,2.59,0,0,1-.42.32,2.55,2.55,0,0,1-.48.2,2.3,2.3,0,0,1-1,.05,4.13,4.13,0,0,0,.95-.24,2.51,2.51,0,0,0,.78-.51,3,3,0,0,0,.56-.76A4.53,4.53,0,0,0,149,165.9Z"/><path class="cls-16" d="M142.12,170.24c-1.53-1.61-1.05-1.76-1.25-2.54s-.52-.44-.52-.44a3.53,3.53,0,0,0,.23,4.5.77.77,0,0,0,.18.18h0a1.09,1.09,0,1,0,1.36-1.7Z"/><path class="cls-16" d="M135.4,174.29c.63.29,1.24.56,1.86.82s1.24.49,1.87.69a17.33,17.33,0,0,0,1.91.52l.49.1.49.07.25,0,.26,0,.51.07a4.64,4.64,0,0,1-.51.11l-.26,0-.25,0c-.18,0-.35,0-.53,0l-.52,0a8.38,8.38,0,0,1-2-.4,9.87,9.87,0,0,1-1.9-.86A7.16,7.16,0,0,1,135.4,174.29Z"/><path class="cls-12" d="M137.18,160.6a4.67,4.67,0,0,0-3,.63.31.31,0,0,1-.4,0h0a.3.3,0,0,1,.1-.41,5.31,5.31,0,0,1,3.41-1.06c.56,0,1,.36.92.62h0C138.09,160.6,137.63,160.66,137.18,160.6Z"/><path class="cls-12" d="M144.18,160.46a4.67,4.67,0,0,1,3,.63.3.3,0,0,0,.4,0h0a.3.3,0,0,0-.1-.41,5.31,5.31,0,0,0-3.41-1.06c-.56,0-1,.36-.92.62h0C143.27,160.46,143.73,160.52,144.18,160.46Z"/><path class="cls-16" d="M138.3,159.44s.67,1-.1,1.25C139.2,160.72,138.84,159.73,138.3,159.44Z"/><path class="cls-17" d="M129.1,161.26l.85-2.14.84,2.14a.91.91,0,0,1-1.69.66A.94.94,0,0,1,129.1,161.26Z"/><path class="cls-17" d="M130.88,159.9l.4-1,.4,1a.43.43,0,1,1-.8.32A.44.44,0,0,1,130.88,159.9Z"/><path class="cls-7" d="M177.28,175.09c-.34-.57-1.58.81-1.58.81s1.09-1.94.65-2.37-1.5,1.8-1.5,1.8.47-2.35,0-2.34-1.12,2.41-1.12,2.41-.58-1.07-1.06-.81.65,2.56.65,2.56c-3.22,10.21-5.49,14.89-6.82,17l-13.07-12.44.94,4.23,10.73,9.94h0l1,.89a.83.83,0,0,0,1.18-.06c3.9-4.31,7.81-18.95,7.81-18.95S177.71,175.84,177.28,175.09Z"/><rect class="cls-18" x="124.4" y="151.13" width="4.11" height="4.63"/><rect class="cls-18" x="152.73" y="151.13" width="4.11" height="4.63"/><path class="cls-19" d="M155.69,155.93c0-.17,0-.33,0-.49,0-6.9-6.76-12.49-15.1-12.49s-15.09,5.59-15.09,12.49c0,.16,0,.32,0,.49Z"/><polygon class="cls-18" points="143.4 155.26 137.55 155.26 135.33 141 145.63 141 143.4 155.26"/><path class="cls-18" d="M156.93,157.91a2.3,2.3,0,0,1-2.42,2.17H126.82a2.3,2.3,0,0,1-2.42-2.17h0v-2.15h32.45s.08,1,.08,2.15Z"/><rect class="cls-18" x="135.49" y="224.21" width="1.94" height="7.1"/><rect class="cls-18" x="145.95" y="224.21" width="1.94" height="7.1"/><path class="cls-18" d="M128.47,182s-2.67,8.51-5,15.05c0,0-4.84,14.73,5.61,24.37,0,0,9.16,10.3,22.85,2.74,0,0,9.82-5.75,10.05-19.55,0,0,.54-6.22-3.9-13.29-4.22-6.72-3.44-5.72-4.21-9.21l-.52-2.19L151.38,191H130.84l-2.2-11.11Z"/><text class="cls-20" transform="translate(83.33 35.77)"><tspan class="cls-21">P</tspan><tspan x="18.88" y="0">ri</tspan><tspan class="cls-22" x="39.55" y="0">m</tspan><tspan x="62.7" y="0">e</tspan><tspan class="cls-23" x="80.74" y="0">r</tspan><tspan x="92.89" y="0">a </tspan><tspan class="cls-22" x="129.27" y="0">f</tspan><tspan x="142.34" y="0">ase</tspan><tspan class="cls-24"><tspan x="0" y="64.6">SÓLIDO</tspan></tspan></text><path class="cls-4" d="M73.67,92.46c-12.09,10.72-20.34,24.64-21.34,41a64.08,64.08,0,0,0,17.18,47c.87.94,2.27-.46,1.4-1.4a62,62,0,0,1-16.59-45.64c1-15.85,9.07-29.24,20.75-39.6,1-.85-.45-2.25-1.4-1.41Z"/><polyline class="cls-25" points="66.86 93.64 75.11 92.54 73.62 100.3"/><path class="cls-18" d="M175,171.83a4.64,4.64,0,1,1,4.63-4.63A4.64,4.64,0,0,1,175,171.83Zm0-7.75a3.12,3.12,0,1,0,3.11,3.12A3.12,3.12,0,0,0,175,164.08Z"/><rect class="cls-18" x="174.15" y="170.52" width="1.76" height="8.94"/></g></g></svg>