<svg xmlns="http://www.w3.org/2000/svg" viewBox="0 0 470.18 70.71"><defs><style>.cls-1{fill:#fac645;}.cls-2{font-size:35px;fill:#230821;font-family:ShadowsIntoLightTwo-Regular, Shadows Into Light Two;}.cls-3{letter-spacing:-0.09em;}.cls-4{letter-spacing:-0.05em;}.cls-5{letter-spacing:-0.02em;}.cls-6{letter-spacing:0.03em;}.cls-7{letter-spacing:0.05em;}</style></defs><title>IALEATORIO</title><g id="Capa_2" data-name="Capa 2"><g id="Capa_1-2" data-name="Capa 1"><path class="cls-1" d="M120.84.38c-24-.76-50.92-.76-73.55,3.7C14.76,10-3.64,25.66.6,42.79c5.66,16.38,32.53,22.35,60.82,23.1,32.53,1.5,65.06-.73,97.6.77,33.94.75,66.48,1.51,99,1.52,36.78,0,73.55,1.51,110.32,2.26,29.71.75,63.65.76,84.87-11.15,20.55-11.52,24.24-32.89,1-44.46C427,1.36,154.79.38,120.84.38Z"/><text class="cls-2" transform="translate(140.58 52.62) rotate(0.02)">Inf<tspan class="cls-3" x="33.63" y="0">r</tspan><tspan class="cls-4" x="44.5" y="0">a</tspan><tspan class="cls-5" x="57.9" y="0">e</tspan><tspan x="73.49" y="0">s</tspan><tspan class="cls-6" x="87.64" y="0">t</tspan><tspan x="96.8" y="0">ruc</tspan><tspan class="cls-7" x="139.35" y="0">t</tspan><tspan x="149.06" y="0">u</tspan><tspan class="cls-3" x="163.11" y="0">r</tspan><tspan x="173.97" y="0">a</tspan></text></g></g></svg>