<svg xmlns="http://www.w3.org/2000/svg" viewBox="0 0 470.18 70.71"><defs><style>.cls-1{fill:#fac645;}.cls-2{font-size:35px;fill:#230821;font-family:ShadowsIntoLightTwo-Regular, Shadows Into Light Two;}.cls-3{letter-spacing:-0.13em;}.cls-4{letter-spacing:-0.09em;}.cls-5{letter-spacing:-0.02em;}</style></defs><title>TALEATORIO</title><g id="Capa_2" data-name="Capa 2"><g id="Capa_1-2" data-name="Capa 1"><path class="cls-1" d="M120.84.38c-24-.76-50.92-.76-73.55,3.7C14.76,10-3.64,25.66.6,42.79c5.66,16.38,32.53,22.35,60.82,23.1,32.53,1.5,65.06-.73,97.6.77,33.94.75,66.48,1.51,99,1.52,36.78,0,73.55,1.51,110.32,2.26,29.71.75,63.65.76,84.87-11.15,20.55-11.52,24.24-32.89,1-44.46C427,1.36,154.79.38,120.84.38Z"/><text class="cls-2" transform="translate(164.05 52.63) rotate(0.02)"><tspan class="cls-3">T</tspan><tspan class="cls-4" x="18.8" y="0">r</tspan><tspan x="29.67" y="0">ans</tspan><tspan class="cls-5" x="74.79" y="0">p</tspan><tspan x="90.37" y="0">orte</tspan></text></g></g></svg>