<svg xmlns="http://www.w3.org/2000/svg" viewBox="0 0 671.52 418.87"><defs><style>.cls-1{fill:#f4f4f4;opacity:0.92;}.cls-2{fill:none;stroke-linecap:round;stroke-width:4.16px;stroke-dasharray:13 13 13 13;}.cls-2,.cls-8{stroke:#fac645;stroke-miterlimit:10;}.cls-3{font-size:30px;fill:#230821;font-family:Delius-Regular, Delius;}.cls-4{letter-spacing:-0.01em;}.cls-5{letter-spacing:0em;}.cls-6{letter-spacing:-0.03em;}.cls-7{letter-spacing:-0.04em;}.cls-8{font-size:72px;fill:#fac645;stroke-width:0.92px;font-family:ShadowsIntoLight, Shadows Into Light;}.cls-9{fill:#d84b3b;}.cls-10{fill:#427bb5;}.cls-11{fill:#f7d2aa;}.cls-12{fill:#b7382b;}.cls-13{fill:#e5bc25;}.cls-14{fill:#ac8c45;}.cls-15{fill:#fff;}.cls-16{fill:#2a2e37;}.cls-17{fill:#92a2a2;}.cls-18{fill:#7e5232;}.cls-19{fill:#5f3d25;}.cls-20{fill:#e9cd5c;}.cls-21{fill:#db7a29;}</style></defs><title>FISICOALEATORIO</title><g id="Capa_2" data-name="Capa 2"><g id="Capa_1-2" data-name="Capa 1"><rect class="cls-1" x="2.08" y="204.93" width="626.92" height="211.86" rx="12"/><rect class="cls-2" x="2.08" y="65.8" width="626.92" height="350.99" rx="12"/><text class="cls-3" transform="translate(88.08 318.33)">A<tspan class="cls-4" x="19.26" y="0">C</tspan><tspan x="38.73" y="0">E</tspan><tspan class="cls-5" x="56.37" y="0">R</tspan><tspan x="75.3" y="0">CA TU </tspan><tspan class="cls-4" x="164.76" y="0">C</tspan><tspan x="184.23" y="0">E</tspan><tspan class="cls-6" x="201.87" y="0">L</tspan><tspan x="217.38" y="0">ULAR AL </tspan><tspan class="cls-7" x="342.38" y="0">T</tspan><tspan x="356.81" y="0">ABLE</tspan><tspan class="cls-5" x="429.68" y="0">R</tspan><tspan x="448.61" y="0">O</tspan></text><text class="cls-8" transform="translate(333.73 162.39)">FÍSICO</text><path class="cls-9" d="M251.47,80.82c-.42.88-.83,1.83-1.23,2.84l-14.83,35.81L218.23,94.83,226.86,74c.38-1,.76-1.86,1.08-2.72Z"/><path class="cls-10" d="M203.81,69.81c-.32,6.33-1,12.65-1.94,19L179.8,92.36a155.26,155.26,0,0,1,.44-24v0Z"/><path class="cls-11" d="M150.25,31.09S153,55.71,143.8,57.86s-18.19-21-18.19-21l.6-16.19c2.63.94,2.92-9.91,5.86-10.61s8.53,8.8,10.46,6.77Z"/><path class="cls-9" d="M166.89,102.23l-6.48,21.07-1.78-1.52-16.48-14.3-16.54-70.6s5.25,8.51,14.49,6.33,10.15-12.12,10.15-12.12Z"/><path class="cls-12" d="M158.63,121.78l-16.48-14.3-16.54-70.6s5.25,8.51,14.49,6.33Z"/><path class="cls-13" d="M129,109.29l-.26,39.32-25-9.24L78.57,78.48a3.18,3.18,0,0,1,1.71-4.15L106.6,63.45a3.18,3.18,0,0,1,4.14,1.71L113.15,71l1.2,2.91,1.2,2.91L118,82.68l1.2,2.91,1.23,3,2.41,5.85L124,97.3l1.2,2.91L128.9,109Z"/><path class="cls-14" d="M115.55,76.83,101,82.91a3.71,3.71,0,0,1-1.23.22,3.17,3.17,0,0,1-1.21-6.08l14.62-6,1.2,2.91Z"/><path class="cls-14" d="M120.42,88.54l-8.79,3.63a2.91,2.91,0,0,1-1.2.22,3.16,3.16,0,0,1-1.21-6.07L118,82.68l1.2,2.91Z"/><path class="cls-14" d="M125.23,100.21l-14.58,6.07a3.31,3.31,0,0,1-1.2.22,3.16,3.16,0,0,1-1.24-6.07l14.62-6L124,97.3Z"/><path class="cls-15" d="M261.63,161.26a22.14,22.14,0,0,1-22.14,22.14H100.31A22.15,22.15,0,1,1,106.63,140a33.21,33.21,0,0,1,53.14-25.9A39.54,39.54,0,0,1,236.32,128a38.71,38.71,0,0,1-1.74,11.61,23.82,23.82,0,0,1,4.91-.54,22.16,22.16,0,0,1,22.14,22.15"/><path class="cls-16" d="M142.53,16.86a16,16,0,0,1-7.49,4.8,16.06,16.06,0,0,1-8.83-1l.6-16.7A4.16,4.16,0,0,1,130,.09a4.68,4.68,0,0,1,.91-.09,4.15,4.15,0,0,1,3.67,2.18Z"/><path class="cls-17" d="M203.81,69.81a104,104,0,0,1-23.57-1.49c.47-5.16,1.17-10.25,2-15.34,7.12.45,14.3.89,21.6,1.33a140.6,140.6,0,0,1,0,15.5"/><path class="cls-18" d="M182.23,53s-12.72-11.53-1.18-24.26c9.59-10.58,13.4-17.8,13.16-24.65a1.55,1.55,0,0,1,2.65-1.17c7.8,7.63,25.37,28.92,6.79,51.4"/><path class="cls-19" d="M197.37,46.43a3.16,3.16,0,0,1-2.53-5.06A17.62,17.62,0,0,0,198,28.18a3.14,3.14,0,0,1,.78-3.11,3.16,3.16,0,0,1,5.32,1.48,23.69,23.69,0,0,1-4.2,18.63,3.16,3.16,0,0,1-2.52,1.25"/><path class="cls-13" d="M261.44,63.55a1.66,1.66,0,0,1-.38,1.42,56.91,56.91,0,0,0-9.59,15.85,11,11,0,0,1-3.73,1.8,15.62,15.62,0,0,1-10.37-.85s0,0-.07,0a15.52,15.52,0,0,1-8-6.78,11.23,11.23,0,0,1-1.36-3.73,57.9,57.9,0,0,0,4.46-18.12,1.55,1.55,0,0,1,.76-1.27L250.9,40.77l4.59-2.88,1.24,5.29Z"/><path class="cls-20" d="M255.49,37.89l-9.65,23.38h0l-8.44,20.5s0,0-.07,0a15.48,15.48,0,0,1-8-6.76,11.36,11.36,0,0,1-1.36-3.74,57.9,57.9,0,0,0,4.46-18.12,1.59,1.59,0,0,1,.76-1.27L250.9,40.77Z"/><path class="cls-21" d="M256.73,43.18l-6.81,16.38a3.14,3.14,0,0,1-2.9,2,3,3,0,0,1-1.18-.25h0a3.15,3.15,0,0,1-2-2.91,3.64,3.64,0,0,1,.25-1.23l6.8-16.36,4.59-2.88Z"/></g></g></svg>