<svg xmlns="http://www.w3.org/2000/svg" viewBox="0 0 686.44 413.95"><defs><style>.cls-1{fill:#f4f4f4;opacity:0.92;}.cls-2{fill:none;stroke-linecap:round;stroke-width:4.19px;stroke-dasharray:13.08 13.08 13.08 13.08;}.cls-2,.cls-8{stroke:#fac645;stroke-miterlimit:10;}.cls-3{font-size:30px;fill:#230821;font-family:Delius-Regular, Delius;}.cls-4{letter-spacing:-0.01em;}.cls-5{letter-spacing:0em;}.cls-6{letter-spacing:-0.03em;}.cls-7{letter-spacing:-0.04em;}.cls-8{font-size:72px;fill:#fac645;stroke-width:0.92px;font-family:ShadowsIntoLight, Shadows Into Light;}.cls-9{letter-spacing:0.13em;}.cls-10{fill:#8b8b8b;}.cls-11{fill:#5e5e5e;}.cls-12{fill:#c0c0bf;}.cls-13{fill:#dbdada;}.cls-14{fill:#f2f2f1;}</style></defs><title>VIRTUALALEATORIO</title><g id="Capa_2" data-name="Capa 2"><g id="Capa_1-2" data-name="Capa 1"><rect class="cls-1" x="57.42" y="189.13" width="626.92" height="222.73" rx="12"/><rect class="cls-2" x="57.42" y="56.52" width="626.92" height="355.34" rx="12"/><text class="cls-3" transform="translate(143.43 307.99)">A<tspan class="cls-4" x="19.26" y="0">C</tspan><tspan x="38.73" y="0">E</tspan><tspan class="cls-5" x="56.37" y="0">R</tspan><tspan x="75.3" y="0">CA TU </tspan><tspan class="cls-4" x="164.76" y="0">C</tspan><tspan x="184.23" y="0">E</tspan><tspan class="cls-6" x="201.87" y="0">L</tspan><tspan x="217.38" y="0">ULAR AL </tspan><tspan class="cls-7" x="342.38" y="0">T</tspan><tspan x="356.81" y="0">ABLE</tspan><tspan class="cls-5" x="429.68" y="0">R</tspan><tspan x="448.61" y="0">O</tspan></text><text class="cls-8" transform="translate(111.63 155.12)">VIR<tspan class="cls-9" x="92.39" y="0">T</tspan><tspan x="149.06" y="0">UAL</tspan></text><path class="cls-10" d="M600.36,0H426.85a10.43,10.43,0,0,0-10.43,10.43V145.56H610.79V10.43A10.43,10.43,0,0,0,600.36,0"/><path class="cls-11" d="M609.88,160.71H418.42A16.45,16.45,0,0,1,402,144.26v-7.58H626.33v7.58a16.44,16.44,0,0,1-16.45,16.45"/><rect class="cls-12" x="429.24" y="12.82" width="168.73" height="111.04"/><polygon class="cls-13" points="597.97 12.82 597.97 123.86 523.99 123.86 495.09 12.82 597.97 12.82"/><path class="cls-14" d="M529.72,148.7H498.58a8.81,8.81,0,0,1-8.81-8.82v-3.2h48.76v3.2a8.81,8.81,0,0,1-8.81,8.82"/></g></g></svg>