<svg xmlns="http://www.w3.org/2000/svg" viewBox="0 0 369.35 102.24"><defs><style>.cls-1{fill:#fac645;}.cls-2{font-size:30px;font-family:Delius-Regular, Delius;}.cls-3{letter-spacing:-0.01em;}.cls-4{letter-spacing:0em;}.cls-5{letter-spacing:-0.01em;}.cls-6{font-size:24px;}.cls-7{letter-spacing:-0.05em;}</style></defs><title>AVANZAR GALEATORIO</title><g id="Capa_2" data-name="Capa 2"><g id="Capa_1-2" data-name="Capa 1"><path class="cls-1" d="M94.93.54C76.05-.54,54.94-.55,37.15,5.91c-25.55,8.61-40,31.23-36.68,56C4.91,85.61,26,94.23,48.24,95.32c25.56,2.16,51.11-1.07,76.67,1.09,26.67,1.09,52.22,2.17,77.78,2.18,28.89,0,57.78,2.17,86.66,3.26,23.34,1.08,50,1.09,66.67-16.14,16.15-16.68,19.05-47.59.77-64.31C335.44,1.91,121.6.55,94.93.54Z"/><text class="cls-2" transform="translate(128.94 45.73)"><tspan class="cls-3">A</tspan><tspan class="cls-4" x="19.08" y="0">v</tspan><tspan x="33.48" y="0">an</tspan><tspan class="cls-5" x="67.98" y="0">z</tspan><tspan x="82.11" y="0">ar</tspan><tspan class="cls-6"><tspan class="cls-7" x="-18.52" y="28.8">F</tspan><tspan x="-6.06" y="28.8">ase Gaseoso</tspan></tspan></text></g></g></svg>