<svg xmlns="http://www.w3.org/2000/svg" viewBox="0 0 428.36 246.27"><defs><style>.cls-1,.cls-13,.cls-3,.cls-8{fill:none;}.cls-1,.cls-13,.cls-16,.cls-3,.cls-8{stroke:#fff;stroke-miterlimit:10;}.cls-1{stroke-linecap:round;stroke-width:5.09px;}.cls-2{fill:#474964;}.cls-3{stroke-width:2.87px;}.cls-4{font-size:35.65px;}.cls-14,.cls-4,.cls-9{fill:#fff;}.cls-11,.cls-14,.cls-16,.cls-4,.cls-6,.cls-9{font-family:Delius-Regular, Delius;}.cls-5{letter-spacing:-0.02em;}.cls-6{font-size:140.04px;fill:#e06f68;}.cls-16,.cls-7{fill:#1a8890;}.cls-8{stroke-width:2.53px;}.cls-9{font-size:31.47px;}.cls-10{letter-spacing:-0.02em;}.cls-11{font-size:123.62px;fill:#eebe48;}.cls-12{fill:#fac645;}.cls-13{stroke-width:2.54px;}.cls-14{font-size:31.61px;}.cls-15{letter-spacing:-0.02em;}.cls-16{font-size:124.18px;stroke-width:2.38px;}</style></defs><title>FASES COMPLETADASALEATORIO</title><g id="Capa_2" data-name="Capa 2"><g id="Capa_1-2" data-name="Capa 1"><path class="cls-1" d="M330.23,135.12c2.5-.32,5-.75,7.66-1.32"/><path class="cls-2" d="M284.21,69.9c0,37.81-31.73,68.46-70.86,68.46s-70.86-30.65-70.86-68.46S174.22,1.43,213.35,1.43s70.86,30.66,70.86,68.47"/><path class="cls-3" d="M284.21,69.9c0,37.81-31.73,68.46-70.86,68.46s-70.86-30.65-70.86-68.46S174.22,1.43,213.35,1.43,284.21,32.09,284.21,69.9Z"/><text class="cls-4" transform="translate(173.41 50.57) scale(1.03 1)"><tspan class="cls-5">P</tspan><tspan x="20.6" y="0">aso</tspan></text><text class="cls-6" transform="translate(173.89 169.42) scale(1.03 1)">2</text><path class="cls-3" d="M192.44,160.46a28.29,28.29,0,0,1,5.07-7.28c2.52-2.8,5.89-6.35,10.15-10.64s7.27-7.45,9.06-9.45,4.63-5.07,8.55-9.18a113.55,113.55,0,0,0,10.36-12.46,30.49,30.49,0,0,0,5.65-17.51q0-9.24-7.61-16.94t-20.36-7.7q-12.75,0-21.16,7t-8.4,12.46a4.36,4.36,0,0,0,1.37,3.29,4.7,4.7,0,0,0,3.41,1.33q3.76,0,8.55-7.42a17.16,17.16,0,0,1,6-5.11,21.88,21.88,0,0,1,10.73-2.31,17.19,17.19,0,0,1,11.81,4.69,15.08,15.08,0,0,1,5.22,11.69,18.49,18.49,0,0,1-3,9.39c-1.07,1.77-2,3.34-2.9,4.69a48.44,48.44,0,0,1-3.84,5l-3.7,4.27c-.78.89-2.08,2.29-3.92,4.2l-5.07,5.32q-2.31,2.46-8.4,8.83t-8.7,9.17q-2.61,2.81-6.67,7.77t-4.05,10.15q0,6.45,7.24,6.45l24.79-.7,27.54.7q7.25,0,7.24-5.19a4.51,4.51,0,0,0-2-3.64,8.42,8.42,0,0,0-5.21-1.54l-27.54.7Z"/><path class="cls-7" d="M126.36,123.47c0,33.38-28,60.44-62.55,60.44S1.27,156.85,1.27,123.47,29.27,63,63.81,63s62.55,27.06,62.55,60.43"/><path class="cls-8" d="M126.36,123.47c0,33.38-28,60.44-62.55,60.44S1.27,156.85,1.27,123.47,29.27,63,63.81,63,126.36,90.1,126.36,123.47Z"/><text class="cls-9" transform="translate(28.56 107.23) scale(1.03 1)"><tspan class="cls-10">P</tspan><tspan x="18.19" y="0">aso</tspan></text><text class="cls-11" transform="translate(38.64 211.28) scale(1.03 1)">1</text><path class="cls-8" d="M76.25,163q0-14.14.51-26.88.13-5.44.13-7.3a5.49,5.49,0,0,0-1.47-3.58,5.4,5.4,0,0,0-4.35-1.73c-1.92,0-3.94,1.32-6.08,4-.93,1.08-2.45,2.91-4.54,5.5s-4,4.89-5.75,6.86-3.51,3.9-5.25,5.75l-3.78,4c-.76.82-1.53,1.71-2.3,2.66a9.75,9.75,0,0,0-1.47,2.22,5.87,5.87,0,0,0-.32,2.1,4.09,4.09,0,0,0,4,3.77,5.56,5.56,0,0,0,3.32-1.23,18,18,0,0,0,1.6-1.49c.47-.49,1.15-1.27,2.05-2.34s1.68-2,2.37-2.85,1.68-2.08,3-3.77,2.5-3.15,3.52-4.39l6.14-7.41v31q0,19.77-.51,32.13c-.08,3.55-.13,5.94-.13,7.17a5.62,5.62,0,0,0,1.41,3.59,4.57,4.57,0,0,0,7.16,0,5.62,5.62,0,0,0,1.41-3.59q0-1.84-.19-7.17t-.32-14.09Q76.26,177.17,76.25,163Z"/><path class="cls-12" d="M427.08,123.43c0,33.53-28.13,60.71-62.83,60.71S301.42,157,301.42,123.43s28.13-60.71,62.83-60.71,62.83,27.18,62.83,60.71"/><path class="cls-13" d="M427.08,123.43c0,33.53-28.13,60.71-62.83,60.71S301.42,157,301.42,123.43s28.13-60.71,62.83-60.71S427.08,89.9,427.08,123.43Z"/><text class="cls-14" transform="translate(328.84 107.9) scale(1.03 1)"><tspan class="cls-15">P</tspan><tspan x="18.27" y="0">aso</tspan></text><text class="cls-16" transform="translate(327.97 211.55) scale(1.03 1)">3</text></g></g></svg>