<svg xmlns="http://www.w3.org/2000/svg" viewBox="0 0 730.67 296.64"><defs><style>.cls-1,.cls-10{fill:#230821;}.cls-1{opacity:0.9;}.cls-2{font-size:26px;fill:#fff;font-family:Delius-Regular, Delius;}.cls-3{letter-spacing:-0.02em;}.cls-4{letter-spacing:0em;}.cls-5{letter-spacing:-0.01em;}.cls-6{letter-spacing:-0.01em;}.cls-7{letter-spacing:-0.01em;}.cls-8{letter-spacing:-0.03em;}.cls-9{fill:#fac645;}</style></defs><title>EMPRESARIAL 2</title><g id="Capa_2" data-name="Capa 2"><g id="Capa_1-2" data-name="Capa 1"><rect class="cls-1" width="730.67" height="296.64"/><text class="cls-2" transform="translate(157.39 139.1)"><tspan class="cls-3">R</tspan><tspan x="15.99" y="0">es</tspan><tspan class="cls-4" x="41.83" y="0">u</tspan><tspan x="56.89" y="0">elve p</tspan><tspan class="cls-5" x="124.35" y="0">r</tspan><tspan x="134.73" y="0">oblemáti</tspan><tspan class="cls-6" x="235.76" y="0">c</tspan><tspan x="248.79" y="0">as labo</tspan><tspan class="cls-7" x="331.29" y="0">r</tspan><tspan x="341.61" y="0">ales, o </tspan><tspan class="cls-4" x="93.27" y="31.2">d</tspan><tspan x="108.43" y="31.2">e emp</tspan><tspan class="cls-8" x="180.27" y="31.2">r</tspan><tspan x="190.09" y="31.2">endimie</tspan><tspan class="cls-5" x="282.91" y="31.2">n</tspan><tspan x="297.73" y="31.2" xml:space="preserve">to  </tspan></text><circle class="cls-9" cx="42.52" cy="256.94" r="26.15" transform="translate(-217.91 257.75) rotate(-80.78)"/><path class="cls-10" d="M50.73,245.71a1.25,1.25,0,0,1,1,.38,1.12,1.12,0,0,1,.34.77,2.39,2.39,0,0,1-.32,1c-.22.41-.63,1.08-1.22,2q-2.94,4.65-5.37,8.56a113.23,113.23,0,0,0,6.19,9.69,4.83,4.83,0,0,0,1.25,1.16,1.72,1.72,0,0,0,.91.31,1.17,1.17,0,0,1,.48,0c.11.05.17.19.17.41a2.16,2.16,0,0,1-.55,1.55,1.75,1.75,0,0,1-1.3.58c-.87,0-1.81-.72-2.84-2.16q-1.68-2.46-5.82-9.28-3.12,5-4.68,7.62c-1,1.77-1.61,2.73-1.72,2.89a1.65,1.65,0,0,1-1.34.82c-.91,0-1.37-.4-1.37-1.19a1.92,1.92,0,0,1,.31-1.05c.2-.33.68-1.07,1.44-2.21l2.86-4.33q1.72-2.61,3.06-4.71-3.18-5.82-5.1-9A4,4,0,0,0,36,248.5a1.65,1.65,0,0,0-.91-.29c-.53,0-.79-.13-.79-.51a2.17,2.17,0,0,1,.53-1.53,1.73,1.73,0,0,1,1.29-.56,2.29,2.29,0,0,1,1.35.41A6.83,6.83,0,0,1,39,247.73q.88,1.5,4.76,8.66,1.71-2.83,3.59-6.11c1.26-2.18,2-3.49,2.33-3.92A1.31,1.31,0,0,1,50.73,245.71Z"/></g></g></svg>