<svg xmlns="http://www.w3.org/2000/svg" viewBox="0 0 730.67 301.02"><defs><style>.cls-1,.cls-10{fill:#230821;}.cls-1{opacity:0.9;}.cls-2{font-size:26px;fill:#fff;font-family:Delius-Regular, Delius;}.cls-3{letter-spacing:-0.01em;}.cls-4{letter-spacing:-0.01em;}.cls-5{letter-spacing:-0.03em;}.cls-6{letter-spacing:-0.01em;}.cls-7{letter-spacing:0em;}.cls-8{letter-spacing:-0.01em;}.cls-9{fill:#fac645;}</style></defs><title>FAMILIAR 2</title><g id="Capa_2" data-name="Capa 2"><g id="Capa_1-2" data-name="Capa 1"><rect class="cls-1" width="730.67" height="301.02"/><text class="cls-2" transform="translate(157.36 146.94)">Diviér<tspan class="cls-3" x="67.31" y="0">t</tspan><tspan x="75.79" y="0">e</tspan><tspan class="cls-4" x="89.8" y="0">t</tspan><tspan x="98.28" y="0">e </tspan><tspan class="cls-5" x="118.48" y="0">r</tspan><tspan x="128.31" y="0">esolviendo p</tspan><tspan class="cls-6" x="273" y="0">r</tspan><tspan x="283.37" y="0">oblemas </tspan><tspan class="cls-7" x="387.84" y="0">d</tspan><tspan x="402.99" y="0">e </tspan><tspan x="99.75" y="31.2">tu e</tspan><tspan class="cls-6" x="143.89" y="31.2">n</tspan><tspan x="158.71" y="31.2">torno </tspan><tspan class="cls-8" x="228.55" y="31.2">f</tspan><tspan x="236.69" y="31.2">amiliar</tspan></text><circle class="cls-9" cx="43.27" cy="261.79" r="26.15" transform="translate(-96.89 36.49) rotate(-22.5)"/><path class="cls-10" d="M51.48,250.56a1.28,1.28,0,0,1,1,.38,1.14,1.14,0,0,1,.34.77,2.26,2.26,0,0,1-.32,1c-.22.41-.62,1.08-1.22,2q-2.94,4.67-5.37,8.56A106.57,106.57,0,0,0,52.1,273a4.37,4.37,0,0,0,1.25,1.16,1.61,1.61,0,0,0,.9.31,1,1,0,0,1,.48,0c.12,0,.17.18.17.41a2.18,2.18,0,0,1-.54,1.54,1.73,1.73,0,0,1-1.31.58c-.86,0-1.81-.72-2.84-2.16q-1.68-2.46-5.82-9.28-3.12,5-4.67,7.62c-1,1.77-1.62,2.74-1.73,2.9a1.67,1.67,0,0,1-1.34.82c-.91,0-1.37-.4-1.37-1.2a2,2,0,0,1,.31-1c.21-.33.69-1.07,1.44-2.21l2.86-4.33q1.72-2.62,3.06-4.71-3.18-5.82-5.1-9a3.74,3.74,0,0,0-1.11-1.08,1.74,1.74,0,0,0-.91-.29c-.52.05-.79-.12-.79-.51a2.13,2.13,0,0,1,.53-1.52,1.72,1.72,0,0,1,1.29-.57,2.36,2.36,0,0,1,1.35.41,7,7,0,0,1,1.49,1.71q.88,1.51,4.76,8.67,1.71-2.85,3.6-6.12c1.25-2.17,2-3.48,2.32-3.92A1.32,1.32,0,0,1,51.48,250.56Z"/></g></g></svg>