<svg xmlns="http://www.w3.org/2000/svg" viewBox="0 0 730.67 299.18"><defs><style>.cls-1,.cls-11{fill:#230821;}.cls-1{opacity:0.9;}.cls-2{font-size:26px;fill:#fff;font-family:Delius-Regular, Delius;}.cls-3{letter-spacing:-0.02em;}.cls-4{letter-spacing:0em;}.cls-5{letter-spacing:-0.03em;}.cls-6{letter-spacing:-0.01em;}.cls-7{letter-spacing:-0.01em;}.cls-8{letter-spacing:-0.01em;}.cls-9{letter-spacing:0em;}.cls-10{fill:#fac645;}</style></defs><title>SOCIAL 2</title><g id="Capa_2" data-name="Capa 2"><g id="Capa_1-2" data-name="Capa 1"><rect class="cls-1" width="730.67" height="299.18"/><text class="cls-2" transform="translate(139.32 136.28)"><tspan class="cls-3">J</tspan><tspan class="cls-4" x="13.18" y="0">u</tspan><tspan x="28.24" y="0">ega y </tspan><tspan class="cls-5" x="98.75" y="0">r</tspan><tspan x="108.57" y="0">es</tspan><tspan class="cls-4" x="134.42" y="0">u</tspan><tspan x="149.47" y="0">elve p</tspan><tspan class="cls-6" x="216.94" y="0">r</tspan><tspan x="227.31" y="0">oblemáti</tspan><tspan class="cls-7" x="328.35" y="0">c</tspan><tspan x="341.37" y="0">as q</tspan><tspan class="cls-4" x="388.61" y="0">u</tspan><tspan x="403.67" y="0">e se </tspan><tspan x="10.09" y="31.2">h</tspan><tspan class="cls-4" x="25.09" y="31.2">a</tspan><tspan x="39.81" y="31.2">yan gene</tspan><tspan class="cls-8" x="148.25" y="31.2">r</tspan><tspan class="cls-9" x="158.57" y="31.2">a</tspan><tspan x="173.31" y="31.2">do en tu e</tspan><tspan class="cls-6" x="288.8" y="31.2">n</tspan><tspan x="303.62" y="31.2" xml:space="preserve">torno social    </tspan></text><circle class="cls-10" cx="41.45" cy="263.55" r="26.15"/><path class="cls-11" d="M49.66,252.32a1.28,1.28,0,0,1,1,.37,1.16,1.16,0,0,1,.34.78,2.44,2.44,0,0,1-.32,1c-.22.4-.62,1.08-1.22,2q-2.94,4.65-5.37,8.56a113.23,113.23,0,0,0,6.19,9.69,4.83,4.83,0,0,0,1.25,1.16,1.75,1.75,0,0,0,.91.31,1,1,0,0,1,.48,0c.11.05.17.18.17.41a2.14,2.14,0,0,1-.55,1.54,1.71,1.71,0,0,1-1.3.58c-.87,0-1.81-.71-2.84-2.15q-1.68-2.47-5.82-9.28-3.12,5-4.67,7.62c-1,1.77-1.62,2.73-1.73,2.89a1.65,1.65,0,0,1-1.34.82c-.91,0-1.37-.4-1.37-1.2a1.91,1.91,0,0,1,.31-1c.21-.33.68-1.07,1.44-2.21l2.86-4.33q1.73-2.62,3.06-4.71-3.18-5.82-5.1-9a3.72,3.72,0,0,0-1.11-1.08,1.57,1.57,0,0,0-.91-.29c-.53,0-.79-.13-.79-.52a2.15,2.15,0,0,1,.53-1.52,1.69,1.69,0,0,1,1.29-.56,2.35,2.35,0,0,1,1.35.4,7.12,7.12,0,0,1,1.49,1.72q.88,1.5,4.76,8.66,1.71-2.83,3.59-6.11c1.26-2.18,2-3.49,2.33-3.92A1.29,1.29,0,0,1,49.66,252.32Z"/></g></g></svg>