<svg xmlns="http://www.w3.org/2000/svg" viewBox="0 0 255.34 70.68"><defs><style>.cls-1{fill:#fff;}.cls-2{font-size:32px;fill:#230821;stroke:#230821;stroke-miterlimit:10;font-family:ShadowsIntoLightTwo-Regular, Shadows Into Light Two;}.cls-3{letter-spacing:-0.09em;}.cls-4{letter-spacing:0.05em;}.cls-5{letter-spacing:-0.02em;}.cls-6{letter-spacing:-0.06em;}</style></defs><title>EXPLORA</title><g id="Capa_2" data-name="Capa 2"><g id="Capa_1-2" data-name="Capa 1"><path class="cls-1" d="M65.63.37C52.57-.38,38-.38,25.69,4.08,8,10-2,25.67.33,42.8,3.4,59.18,18,65.15,33.35,65.89c17.67,1.5,35.33-.73,53,.76,18.44.75,36.1,1.5,53.77,1.51,20,0,39.94,1.5,59.91,2.25,16.13.75,34.57.75,46.09-11.16,11.16-11.53,13.17-32.9.53-44.46C231.89,1.32,84.07.38,65.63.37Z"/><text class="cls-2" transform="translate(20.01 48.87) rotate(0.02)">Explo<tspan class="cls-3" x="60.63" y="0">r</tspan><tspan x="70.56" y="0">a </tspan><tspan class="cls-4" x="100.31" y="0">t</tspan><tspan x="109.19" y="0">u </tspan><tspan class="cls-5" x="138.03" y="0">t</tspan><tspan x="144.91" y="0">able</tspan><tspan class="cls-6" x="192.13" y="0">r</tspan><tspan x="203.06" y="0">o</tspan></text></g></g></svg>