<svg xmlns="http://www.w3.org/2000/svg" viewBox="0 0 507.09 477.63" fill="none" stroke="cur" style="supported-color-schemes:dark" ><defs><style>
@font-face {
  font-family: ShadowsIntoLight;
  src: url("../../../fonts/ShadowsIntoLight.TTF") format("truetype");
}
.cls-1{fill:red;background:yellow !important}.cls-2{font-size:62.54px;fill:blue;font-family:ShadowsIntoLight, Shadows Into Light;}.cls-3{letter-spacing:-0.03em;}.cls-4{letter-spacing:0.05em;}.cls-5{letter-spacing:-0.05em;}</style></defs><title>LOGO</title><g id="Capa_2" data-name="Capa 2"><g id="Capa_1-2" data-name="Capa 1"><path class="cls-1" d="M139.18,334.16c-1.74,7.67-6.27,25.45-22.31,30.68-2.1.7-4.89,2.79-8.37,3.83a74.77,74.77,0,0,1-8,.7c-2.44,0-5.58.35-7-4.88,3.49.35,4.89.7,6.63.7,14,0,31-13.6,32.43-27.55.35-2.09,1.74-5.23,1.74-7.67.35-12.55.35-16,.35-17.44,0-12.9-5.93-32.07-14-34.86-1-.35-2.09-2.09-3.48-3.14-2.79-1.74-8-3.49-11.16-3.49s-8.72,2.44-12.9,0v92a14.87,14.87,0,0,0-2.1,2.79c-1-.69-3.14-2.09-3.14-3.48-.34-2.79-.69-8-.69-9.42v-65.9L89,234.78c0-1.4.7-8.37.7-12.56.35-7,1.39-15.34,1.74-23,.7-11.16,1-23,1-34.17,4.53-.7,12.9-2.44,14.29-2.44s7,.35,9.77,2.09c2.44,1,5.58,5.23,6.62,6.62.35.7,1.75,1.4,2.45,2.44s2.09,2.79,2.44,4.19c1.74,4.53,3.48,10.11,4.88,15,.35,1-.7,2.44-.35,3.49s1.74,3.14,1.74,4.53v17.79c0,1.39-2.09,7.32-2.44,10.11-2.44,12.55-12.55,29.64-22,36.61,1.75,1.4,2.79,1.05,4.19,1.75.35.35,1,.69,1.74,1.39,7,0,19.53,12.9,21.62,22a189.56,189.56,0,0,1,3.14,20.57C140.58,312.53,140.58,328.23,139.18,334.16ZM106.75,167.83c-1.74,0-7.32,1.39-10.11,1.74,0,5.93.7,13.6.35,18.13-.35,13.25-2.44,24.06-2.79,34.18-.35,13.59-1,33.47-1,46,22.66-5.23,35.21-35.91,35.21-50.21C128.37,211.07,128.37,167.83,106.75,167.83Z"/><path class="cls-1" d="M314.22,370.07h-2.79c-1.4-4.53-3.84-9.76-5.23-14.3-1.05-3.48-1.74-9.06-2.79-12.9,0-1.74-1.74-4.88-2.44-7-3.84-14.65-7.67-27.9-12.9-44.29-2.79-8-4.54-20.92-7.33-31.38-2.44-8-8.36-26.85-11.5-40.45-2.44-10.11-4.54-25.45-9.42-36.26a295.77,295.77,0,0,0-1.39,36.61c.35,7.32.69,20.57,1,30.69.35,2.79-.69,6.62-1,10.11,0,4.88.69,10.81-.35,16.39a58.91,58.91,0,0,1-1.4,7.67,4.71,4.71,0,0,1,1.05,1.74c-.35,4.19.35,10.81.35,16a15.72,15.72,0,0,0-.7,2.79c0,2.09.35,4.88.35,7,0,2.45-1.74,7.33-1.74,8.37v20.58c0,1.39-.35,13.6-.7,18.83,0,.69-.7,3.48-1.75,3.48h-2.09c-1-1.74-2.44-4.53-2.44-5.93s.7-7.32,1.05-11.15c0-3.14-.7-8.72-.35-13.25.35-9.07,2.44-18.48,2.44-27.2.35-17.09,1-50.56,1-52V161.9c1-1.4,1.74-2.79,3.48-2.79,1.4,0,3.49,2.09,3.84,3.84,2.44,9.76,7,27.19,10.81,40.79.35,1.4-.35,3.49.35,5.24,3.49,15.34,8.37,31,12.2,46.37.7,2.44,1.05,6.63,1.74,9.42,3.84,13.25,8.72,25.8,12.56,39.05.35,1.39.7,4.53,1,5.92,2.45,7,5.93,16.4,6.63,21.63,0,1.39,1.74,3.48,2.44,5.23a2.56,2.56,0,0,0,.7-2.09l-1.05-157.27a76.52,76.52,0,0,0,.35-15.69c-.35-.7-1-1.05-1-2.44s2.09-2.79,3.48-2.79c5.58,0,1.75,20.22,1.75,25.45-.35,47.43,1,23,1,35.92,0,12.55-.7,26.85-.7,38,0,2.09,1.05,5.58,1.4,8.72a201.71,201.71,0,0,1-.35,20.57c0,1.39-.7,3.83-.7,5.23s1.05,12.55,1.4,18.48c.35,9.07-.35,23.36,0,33.48.35,6.62,2.09,23.36,2.09,24.75A3.88,3.88,0,0,1,314.22,370.07Zm-4.88-31.38v-1.4h-1v1.4Z"/><path class="cls-1" d="M419.17,181.08c-3.84-2.45-5.58-8.37-10.46-11.51-7.33-4.88-12.21-4.88-18.48-4.88-1.05,0-6.28,2.44-9.42,3.49-9.41,2.78-17.43,8.71-24.06,14.64-3.49,3.49-11.16,14.3-15,21.27a51.45,51.45,0,0,0-4.19,8.72c-3.13,7.67-2.79,12.2-3.48,16.39,0,1.39-1.75,4.18-1.75,6.62-.34,3.84-.69,8-1.39,12.21l.7,28.94c.69,28.59,8.36,66.95,31.38,80.2l1.74,1.74c3.14,1.4,7.67,3.14,8.72,3.14,1.74,0,7.67,1,9.41,1,14,0,15.7-25.45,15.7-31,0-1.39-1.75-13.95-1.4-18.48.35-9.07.7-25.45,0-35.22-4.88-2.09-10.46-1.74-16-1.74-1.05,0-4.18.35-17.78.35a10.25,10.25,0,0,1-.7-3.14c5.93-1.39,12.55-1,18.13-.7,1.05,0,1.75-1.39,3.49-1.39,1.05,0,11.16.7,16.39,1.05a4.17,4.17,0,0,1,1.74,1.74c.35,8.72.35,16,.7,26.5l-.7,1.39c-.7,12.21,2.09,24.76,2.09,30.34,0,9.76-3.48,23.36-4.88,25.45-1,1.05-3.14,4.19-4.53,5.58-2.79,2.09-7.67,4.88-9.07,4.88h-5.23c-1,0-5.58-2.44-7.67-2.44-7.67.35-20.22-7.67-25.11-13.59-8-9.07-12.9-25.11-16-34.53-3.84-12.55-4.19-21.62-4.89-31-.34-4.18-1.39-13.95-1.39-15.69V245.93c0-1.39,1.39-5.92,1.39-8.37A128.33,128.33,0,0,1,329.55,224c.7-3.49,1.4-10.46,3.84-15.34,1.05-2.1,3.84-5.23,4.88-8.37,5.58-15,27.55-31,37-35.22,11.16-4.54,10.46-5.23,18.48-5.23,7,0,22.67,6.62,26.16,17.08Z"/><path class="cls-1" d="M293,66.48C293,48.88,282.55,31,262.75,26.41c-9.22-3.85-21.14-3.56-28,4.2a42.2,42.2,0,0,0-6.41-11.11.79.79,0,0,0-.2-.62c-6.8-7.94-14.91-16.17-26.6-18.33C190.09-1.57,178,2.76,168.4,8.62,148.84,20.62,135.28,42.28,137,63h0a36.33,36.33,0,0,0-12.9,2.63,33.14,33.14,0,0,0-9.79,6.29c-13.42,7.74-18.51,23.37-12.63,36.31,4.35,9.57,14.72,18.47,26.56,21.16a24.6,24.6,0,0,0,17.19-.73l.09.19a2,2,0,0,1,1.14.42l1,.77a4.12,4.12,0,0,1,.63.39c1,.78,2.05,1.5,3.11,2.21,1.51.8,3.14,1.31,4.64,2.12a2.24,2.24,0,0,1,.37.1l0,0a23.37,23.37,0,0,0,4.31,1.62l.38.3,1.47,1.33.73.67.67.72a46.43,46.43,0,0,1,8.61,13.12,76.81,76.81,0,0,1,2.85,7.34l1,3.81c.17.64.37,1.26.51,1.91l.38,1.94.79,3.87.55,3.93c.43,2.6.58,5.24.79,7.88a198.43,198.43,0,0,1-.71,31.77l-.87,7.93c-.29,2.64-.75,5.27-1.12,7.91-.68,5.28-1.78,10.51-2.72,15.75-.42,2.64-1.06,5.23-1.59,7.85l-1.66,7.83L167,277.89l-4.14,15.5c-1.33,4.46-2.62,8.92-3.91,13.4-1.35-.64-2.68-1.31-4-2l-.88,1.07q2.07,1.34,4.38,2.55l-.12.43c-6.17,20.52-13,40.85-19.83,61.26q13.24-29.32,23.72-59.86c.73.32,1.47.64,2.23.94a70.86,70.86,0,0,0,11,3.33c3.62.83,7.26,1.41,11,2,2.1.33,3.84.58,5.5.78,2.12.23,3.87.35,5.52.39l1.62,0a63.78,63.78,0,0,0,18-2.62c6.74,19.5,14.45,38.63,22.93,57.38-6.6-19.51-13.22-39-19.19-58.59l1.93-.73a8.68,8.68,0,0,0,2.37-1.24,3,3,0,0,0,1.2-2.78,5.1,5.1,0,0,0-1.58-2.82,7.65,7.65,0,0,0-2.81-1.73,12.35,12.35,0,0,0-4-.65q-1.57-5.64-3.21-11.28c-1.43-5.38-2.75-10.78-4.14-16.17s-2.46-10.84-3.7-16.26c-.57-2.72-1-5.46-1.56-8.19s-1.07-5.45-1.47-8.19l-1.24-8.22c-.2-1.37-.44-2.74-.6-4.11l-.43-4.13c-.26-2.75-.62-5.5-.81-8.26l-.47-8.27a145.3,145.3,0,0,1,2.1-32.84l.39-2a17,17,0,0,1,.44-2l1.1-3.95.55-2,.72-1.91,1.42-3.84a57.08,57.08,0,0,1,8.42-13.89,41.66,41.66,0,0,1,12.65-10.25l1.83-1,1.9-.81c.51-.23,1-.42,1.55-.6a5.54,5.54,0,0,1,.81-.07c1.44,0,2.88,0,4.32-.05a6.68,6.68,0,0,1,1.81-.35h0l.38-.22a5.75,5.75,0,0,1,2.13-.76.31.31,0,0,1,.05-.1,27.44,27.44,0,0,0,15.54-12.88A13.74,13.74,0,0,0,260,117.8a22,22,0,0,0,1.19-6.19.8.8,0,0,0-.07-.39A38.92,38.92,0,0,0,266,109c16.23-4.94,24.84-21.86,26.67-36.49a.83.83,0,0,0,.21-.61c0-.24,0-.48-.06-.72A46.58,46.58,0,0,0,293,66.48ZM221.31,306a5.7,5.7,0,0,1,2,1.34,3,3,0,0,1,.89,1.73,1.25,1.25,0,0,1-.6,1.13,6.62,6.62,0,0,1-1.86.83l-1.47.49c-.29-1-.59-1.91-.87-2.87l-.93-3.32A10.79,10.79,0,0,1,221.31,306Zm6.23-169.23a42.62,42.62,0,0,0-13.94,9.83A59.51,59.51,0,0,0,204,160.83l-1.69,4-.82,2-.66,2-1.3,4.09a16.72,16.72,0,0,0-.54,2.08l-.49,2.08c-2.63,11.13-3.21,22.56-3.07,33.87l.37,8.48c.18,2.82.52,5.63.77,8.44l.41,4.22c.15,1.4.39,2.79.57,4.19l1.21,8.37a434.23,434.23,0,0,0,16.7,65.28l1,2.77a68.3,68.3,0,0,1-8.93,1.76,61.35,61.35,0,0,1-10.18.54c-1.54,0-3.2-.13-5.21-.34-1.17-.13-2.36-.29-3.55-.46l-1.83-.25c-3-.4-6.85-.95-10.77-1.72a73.23,73.23,0,0,1-13-3.74,468.87,468.87,0,0,0,16.39-60.83c.92-5.34,2-10.64,2.64-16,.35-2.68.79-5.35,1.07-8.05l.78-8.09a181.83,181.83,0,0,0-.17-32.58c-.32-2.71-.58-5.42-1.13-8.1l-.72-4-1-4-.5-2c-.18-.66-.43-1.3-.63-2L178.3,159a71.11,71.11,0,0,0-3.39-7.5,46.49,46.49,0,0,0-9.92-13l-.75-.69-.81-.63-.21-.16a18.09,18.09,0,0,0,9.85-1.5A21.29,21.29,0,0,0,184.72,122h0s5.19-12.43-1.4-20.36c-.08-.13-.17-.25-.26-.37a52.74,52.74,0,0,0-7-6.35c-.55-.4-1.09-.81-1.6-1.23a32.06,32.06,0,1,1,40.71,0c-.5.41-1,.83-1.62,1.25a53,53,0,0,0-7,6.33,8.19,8.19,0,0,0-.72,1.11l-.39.17a14.36,14.36,0,0,0,1.11,15.4h0c4.21,9.18,12.64,16.69,24,17.73C229.47,136,228.5,136.37,227.54,136.79Zm58.91-65.56c-1,19.68-15.22,38.49-39.33,41.08-1.26.13-1.31,1.8,0,1.75a43.65,43.65,0,0,0,11.62-2,14.26,14.26,0,0,1-.16,2.55,23.27,23.27,0,0,1-1.69,4.9c-4.17,7.34-14.7,11.29-24.3,10.8-10.41-.53-18.85-5.69-23.55-13.21h0c-5-9.73-1.25-14.91-.44-15.86a66.19,66.19,0,0,1,5.87-5.1c.58-.42,1.15-.85,1.65-1.27l1.63-1.42a33.64,33.64,0,1,0-45.94,0l1.62,1.42c.53.44,1.09.87,1.65,1.27a53,53,0,0,1,6.68,6h0s3.28,3.63.73,14.14c-.11.47-.23.92-.34,1.33l0,.13h0a29.33,29.33,0,0,1-2.94,6.87,19.31,19.31,0,0,1-13.54,8.24c-10.3,1.5-19.5-4.82-22.09-13.22-.22-.7-1.39-.37-1.24.33a16.7,16.7,0,0,0,2.54,5.91.55.55,0,0,0-.43.76c.17.33.33.66.49,1l-.3.08a36.43,36.43,0,0,1-17.22-.72,38,38,0,0,1-12.59-8c-8.54-8.06-11.7-18-8.78-29.14A32.58,32.58,0,0,1,114.49,75c1.74-1.21,3.47-2.35,5.24-3.4.32-.12.62-.26,1-.38a1.19,1.19,0,0,0,.63-.52,58,58,0,0,1,12-5.08,31.21,31.21,0,0,1,20.84,4.73.86.86,0,0,0,1.09-1.3c-4.09-4-10.1-5.87-16.33-6.07a48.88,48.88,0,0,1,1.74-15q.8-2.76,1.84-5.46c6.57-16.28,21.68-29.49,42.19-33.47,14.89-2.88,30.33-.57,40,9.86,8.6,9.26,10.7,21,11,32.82,0,1.07,1.73,1,1.85,0a43.75,43.75,0,0,0-2.3-19.87C246.47,22.37,261.44,26,271,34.57a47.05,47.05,0,0,1,15.08,28.37,42.36,42.36,0,0,1,.43,6.25C286.47,69.86,286.45,70.55,286.45,71.23Z"/><path class="cls-1" d="M203.38,125q-7.83,0-15.68,0c-1.1,0-1.77.56-1.74,1.42s.65,1.33,1.73,1.33c2.58,0,5.17,0,7.75,0h7.93c1.07,0,1.69-.51,1.7-1.36S204.44,125,203.38,125Z"/><path class="cls-1" d="M203.38,121c-2.62,0-5.23,0-7.84,0s-5.29,0-7.93,0c-1,0-1.62.48-1.65,1.3s.59,1.4,1.65,1.4h15.76c1.09,0,1.7-.51,1.7-1.36S204.46,121,203.38,121Z"/><path class="cls-1" d="M202.08,129H189c-1.06,0-1.58.45-1.59,1.33s.52,1.37,1.55,1.37H202c1.1,0,1.66-.48,1.64-1.37S203.13,129,202.08,129Z"/><path class="cls-1" d="M198.63,132.9q-3.09,0-6.18,0c-1,0-1.59.51-1.6,1.36s.57,1.39,1.65,1.4h6.09c1,0,1.61-.53,1.62-1.36A1.39,1.39,0,0,0,198.63,132.9Z"/><path class="cls-1" d="M190.4,82.31c.07.43.14.85.2,1.27.34,2.54.31,5.11.69,7.63.73,4.89,2.78,9.64,2.85,14.61H194V121h2.16V105.82h-.24c.1-4,2-7.87,3.2-11.67a24.23,24.23,0,0,0,1-6.87,49.49,49.49,0,0,1,.34-5.17l1.27-.26a16.86,16.86,0,0,0,7-2.74,9.59,9.59,0,0,0,3.77-5.86,7.84,7.84,0,0,0-1.59-6.59,4,4,0,0,0-3.13-1.55,4.08,4.08,0,0,0-2.71,1.43c-1.78,1.92-2.78,4.74-3.6,7.18a39.87,39.87,0,0,0-1.72,7.7,27.54,27.54,0,0,1-4.2.48,28.86,28.86,0,0,1-4.47-.26,41,41,0,0,0-1.82-7c-1.15-3.13-4.67-12-9.32-8-3.78,3.25-2.32,9.36,1,12.28a14.38,14.38,0,0,0,7.5,3.1Zm10.47-3.14a36.37,36.37,0,0,1,2.36-7.89c.81-1.86,2.12-5.26,4.56-5.39,2.67-.13,4,3.36,4.07,5.53a8.51,8.51,0,0,1-2.81,6.39A14.15,14.15,0,0,1,201.9,81l-1.37.28C200.63,80.57,200.74,79.87,200.87,79.17Zm-5.31,3.52a27.25,27.25,0,0,0,4.07-.44.78.78,0,0,0,0,.16c-.17,1.53-.27,3.06-.3,4.6a25.75,25.75,0,0,1-.28,4.21c-.92,4.94-3.76,9.56-3.88,14.6h-.25c-.08-4.79-1.91-9.33-2.73-14-.5-2.89-.44-5.85-.86-8.76,0-.2-.07-.39-.1-.59A29.72,29.72,0,0,0,195.56,82.69ZM179,74.7a7.36,7.36,0,0,1,.69-6.58,3.13,3.13,0,0,1,3.3-1.55,5.14,5.14,0,0,1,2.6,2.27,29.83,29.83,0,0,1,3.25,7,40.3,40.3,0,0,1,1.46,5.72l-.45-.07a19.93,19.93,0,0,1-6.34-1.74A9.41,9.41,0,0,1,179,74.7Z"/><text class="cls-2" transform="translate(64.09 456.8)"><tspan class="cls-3">A</tspan><tspan x="34.75" y="0">c</tspan><tspan class="cls-4" x="60.4" y="0">t</tspan><tspan x="77.75" y="0">i</tspan><tspan class="cls-5" x="85.5" y="0">v</tspan><tspan x="108.77" y="0">a </tspan><tspan class="cls-4" x="166.92" y="0">t</tspan><tspan x="184.26" y="0">us ideas</tspan></text></g></g></svg>