<svg xmlns="http://www.w3.org/2000/svg" xmlns:xlink="http://www.w3.org/1999/xlink" viewBox="0 0 764.03 539.51"><defs><style>
@font-face {
  font-family: Delius;
  src: url("../../../fonts/Delius.TTF") format("truetype");
}
.cls-1{fill:none;}.cls-2{fill:#fac645;}.cls-3{fill:#fff;}.cls-4{font-size:24px;font-family:Delius, Delius;}.cls-5{letter-spacing:-0.01em;}.cls-6{letter-spacing:0em;}.cls-7{letter-spacing:-0.01em;}.cls-8{letter-spacing:0em;}.cls-9{letter-spacing:0em;}.cls-10{letter-spacing:-0.01em;}.cls-11{letter-spacing:0em;}.cls-12{letter-spacing:-0.01em;}.cls-13{letter-spacing:-0.03em;}.cls-14{clip-path:url(#clip-path);}.cls-15{fill:#1e9099;}.cls-16{fill:#1a9099;}.cls-17{fill:#188689;}.cls-18{fill:#f3b436;}.cls-19{fill:#dba756;opacity:0.4;}.cls-20{fill:#1a1a1a;}.cls-21{fill:#dff3fd;}.cls-22{fill:#e5a330;}.cls-23{fill:#ffc764;}.cls-24{fill:#138184;}.cls-25{fill:#3fc4c4;}</style><clipPath id="clip-path" transform="translate(0 -13.88)"><rect class="cls-1" x="366.51" width="301.7" height="511.74"/></clipPath></defs><title>TEXTO</title><g id="Capa_2" data-name="Capa 2"><g id="Capa_1-2" data-name="Capa 1"><path class="cls-2" d="M353.13,211.91c20.88-34,30.47-82.66,15.21-121.24a98.63,98.63,0,0,0-43.18-49.35c-18-10.21-37.75-14.43-57.38-16.73C206.53,17.45,145,28.31,84,39.14c-15.66,2.79-31.77,5.76-45.5,15.79C7.78,77.4-2.27,128.78.41,173.88,1,183,2,192.56,6.27,199.94c5,8.68,13.41,12.79,21.41,16.18,63.65,26.91,132,35.51,198.55,25,28.39-4.49,68.78-.47,98.79-17.4" transform="translate(0 -13.88)"/><path class="cls-2" d="M336,153c17,9.84,42.93,43.64,60.12,53C377.48,211.31,344,217.73,325,220.46" transform="translate(0 -13.88)"/><path class="cls-3" d="M359.09,203.5c20.87-34,30.46-82.67,15.2-121.25A98.67,98.67,0,0,0,331.11,32.9c-18-10.2-37.75-14.43-57.38-16.72C212.48,9,150.91,19.89,90,30.72c-15.67,2.79-31.78,5.76-45.5,15.79C13.73,69,3.69,120.36,6.37,165.46c.54,9.14,1.61,18.68,5.86,26.06,5,8.68,13.4,12.79,21.41,16.18,63.64,26.91,132,35.51,198.54,25,28.39-4.49,68.78-.47,98.79-17.4" transform="translate(0 -13.88)"/><path class="cls-3" d="M341.92,144.62c17,9.85,42.93,43.64,60.13,53-18.62,5.23-52.14,11.65-71.08,14.39" transform="translate(0 -13.88)"/><path class="cls-3" d="M340.39,147.25C363.46,161,377,187,400.51,200.28l.73-5.56C378,201.19,354,205.63,330.16,209.11c-3.86.57-2.22,6.43,1.62,5.87,23.84-3.48,47.85-7.93,71.08-14.39a3.08,3.08,0,0,0,.72-5.56c-11.71-6.61-21.14-17.44-30.51-26.89-9.15-9.23-18.34-19.44-29.61-26.15-3.37-2-6.44,3.25-3.07,5.26Z" transform="translate(0 -13.88)"/><text class="cls-4" transform="translate(91.03 56.37)">Bie<tspan class="cls-5" x="34.03" y="0">n</tspan><tspan class="cls-6" x="47.74" y="0">venid@ a Bang </tspan><tspan x="-50.02" y="57.6">El j</tspan><tspan class="cls-7" x="-19.46" y="57.6">u</tspan><tspan x="-5.57" y="57.6">ego </tspan><tspan class="cls-8" x="39.96" y="57.6">d</tspan><tspan x="53.95" y="57.6">e inno</tspan><tspan class="cls-7" x="119.25" y="57.6">va</tspan><tspan class="cls-9" x="144.36" y="57.6">ción q</tspan><tspan class="cls-8" x="208.32" y="57.6">u</tspan><tspan x="222.21" y="57.6">e </tspan><tspan class="cls-10" x="240.86" y="57.6">t</tspan><tspan x="248.69" y="57.6">e </tspan><tspan class="cls-7" x="-53.95" y="86.4">a</tspan><tspan x="-40.37" y="86.4">y</tspan><tspan class="cls-11" x="-26.74" y="86.4">u</tspan><tspan x="-12.82" y="86.4">da</tspan><tspan class="cls-10" x="15" y="86.4">r</tspan><tspan x="24.53" y="86.4">á a </tspan><tspan class="cls-12" x="63.36" y="86.4">r</tspan><tspan x="72.94" y="86.4">omper bloq</tspan><tspan class="cls-8" x="194.98" y="86.4">u</tspan><tspan x="208.87" y="86.4">eos y </tspan><tspan x="-20.23" y="115.2">gene</tspan><tspan class="cls-10" x="32.93" y="115.2">r</tspan><tspan x="42.46" y="115.2">ar i</tspan><tspan class="cls-7" x="77.04" y="115.2">d</tspan><tspan x="91.03" y="115.2">eas c</tspan><tspan class="cls-13" x="146.52" y="115.2">r</tspan><tspan x="155.59" y="115.2">eati</tspan><tspan class="cls-7" x="195.69" y="115.2">v</tspan><tspan class="cls-9" x="207.21" y="115.2">as</tspan></text><g class="cls-14"><path class="cls-15" d="M607,185c26.85,5.41,140.17,107.31,140.17,107.31s17,2.5,16.84,7c-.13,3.44-9.2.11-9.2.11s9.71,6.25,8.73,9.28-11.26-4.62-11.26-4.62,7.86,9.67,5.6,10.81S747,306.49,747,306.49s-.12,6.3-2.93,6.31c-3.21,0-3.2-13.33-3.2-13.33-67.57-66.82-138.83-103-138.83-103Z" transform="translate(0 -13.88)"/><path class="cls-16" d="M658.81,226.38h0l0,0c-2.7-1.63-5.46-3.13-8.25-4.52-50.48-29.46-66.69-73.35-70.42-85.87-.28-1.13-.59-2.27-.92-3.41v0h0a91.56,91.56,0,0,0-6.95-17.14C551.57,76.2,507.14,59,473,77s-45.07,64.37-24.41,103.56a90.7,90.7,0,0,0,15.21,21h0q1.72,1.77,3.53,3.43c32.56,32.94,39.29,82,40.61,104.48q-.17,6,.28,12v.05h0a127.3,127.3,0,0,0,14.49,50c29.83,56.59,94.77,81,145,54.46s66.85-93.85,37-150.43A125.57,125.57,0,0,0,658.81,226.38Z" transform="translate(0 -13.88)"/><rect class="cls-16" x="658.54" y="417.29" width="10.1" height="127.97" transform="translate(-147.87 351.13) rotate(-27.8)"/><rect class="cls-16" x="706.71" y="391.89" width="10.1" height="127.97" transform="translate(-130.46 370.66) rotate(-27.8)"/><path class="cls-16" d="M687.41,537.3S669,549.21,676.53,553.4l24.09-12.7-4.28-8.11Z" transform="translate(0 -13.88)"/><path class="cls-16" d="M744.51,507.19s20.24-8.47,19.43.12L739.86,520l-4.28-8.11Z" transform="translate(0 -13.88)"/><path class="cls-17" d="M669,233.39s35.82,25.91,46.3,69,3.17,101.46-54.79,127.06C660.54,429.45,770.07,347.28,669,233.39Z" transform="translate(0 -13.88)"/><path class="cls-17" d="M634.13,436.22s4,.36,10.51-1.7l2.75,5.21s-4.47,3.69-10.09,2.51Z" transform="translate(0 -13.88)"/><path class="cls-17" d="M692,407.59a27.54,27.54,0,0,1-7.65,7.13L686.6,419s6.46-1.91,7.74-7Z" transform="translate(0 -13.88)"/><path class="cls-17" d="M535.23,71.79s8.83,22.12-66.52,60.27c0,0,15.73-18.8,13.08-23.84,0,0-6.75,13.13-22.88,23.9,0,0,4.47-15.73,2-19.41,0,0-23,13-20.78,35.8L431.94,127l20.32-21.11,15.91-5.33L528.8,66Z" transform="translate(0 -13.88)"/><path class="cls-3" d="M500.37,146.45a14.22,14.22,0,1,1-19.21-5.95A14.22,14.22,0,0,1,500.37,146.45Z" transform="translate(0 -13.88)"/><path class="cls-18" d="M496.52,148.48a9.87,9.87,0,1,1-13.34-4.13A9.87,9.87,0,0,1,496.52,148.48Z" transform="translate(0 -13.88)"/><path class="cls-19" d="M495.65,148.94a8.89,8.89,0,0,1-15.72,8.29c-2.29-4.35,5.58,2.06,9.92-.23S493.36,144.6,495.65,148.94Z" transform="translate(0 -13.88)"/><circle class="cls-20" cx="487.79" cy="153.08" r="7.2" transform="translate(98.47 470.56) rotate(-57.83)"/><path class="cls-3" d="M490.38,148.52a1.09,1.09,0,1,1-1.47-.46A1.09,1.09,0,0,1,490.38,148.52Z" transform="translate(0 -13.88)"/><path class="cls-21" d="M475.17,149.39s1.92,10.15,7,14.56C472.73,157.76,473.16,152.08,475.17,149.39Z" transform="translate(0 -13.88)"/><circle class="cls-3" cx="530.91" cy="129.53" r="14.22" transform="matrix(0.84, -0.55, 0.55, 0.84, 16.18, 299.23)"/><path class="cls-18" d="M539.65,124.93a9.87,9.87,0,1,1-13.34-4.13A9.88,9.88,0,0,1,539.65,124.93Z" transform="translate(0 -13.88)"/><path class="cls-19" d="M538.77,125.39a8.89,8.89,0,0,1-15.72,8.29c-2.29-4.34,5.59,2.06,9.93-.23S536.49,121.05,538.77,125.39Z" transform="translate(0 -13.88)"/><path class="cls-20" d="M537.28,126.18a7.2,7.2,0,1,1-9.72-3A7.19,7.19,0,0,1,537.28,126.18Z" transform="translate(0 -13.88)"/><path class="cls-3" d="M533.5,125a1.09,1.09,0,1,1-1.47-.45A1.09,1.09,0,0,1,533.5,125Z" transform="translate(0 -13.88)"/><path class="cls-21" d="M534.93,117.68s6.71,5.72,7.61,13.15C542.56,120.47,539.69,117.35,534.93,117.68Z" transform="translate(0 -13.88)"/><path class="cls-18" d="M575,121.19c-4.44-16.17-19.13-49-27.07-61C543,52.7,527.88,35.84,516.57,49.1c-1.91-4.37-8-10.85-14.34-9.94,2.9,1.18,5.12,5.38,5,9.48-9.54-3.71-15.92-.35-25.65,2.76-18.28,5.6-63.46,30.37-63.29,60.92.09,17.48,20.6,58,32.8,72.72,0,0-26.79-55.7,4.38-69.07,0,0,1.33,10.45-.21,18.08,0,0,13.26-10.79,22.26-25.56.84,3.27-1.92,11.43-13.53,24.38,20.62-11.2,54.87-34.53,63.24-51.73C542.66,74,575,121.19,575,121.19Z" transform="translate(0 -13.88)"/><path class="cls-22" d="M464.47,132.3l-.49.56c20.62-11.19,54.87-34.53,63.25-51.73a10.5,10.5,0,0,1,6.92-.49c-2.09-1.47-11.89-3.08-11.89-3.08C512.45,95,487,115.66,464.47,132.3Z" transform="translate(0 -13.88)"/><path class="cls-18" d="M455.26,134.05s13.25-10.79,22.26-25.57a8.5,8.5,0,0,1-.38,4.29c1.72-2.62,2.47-5.47.63-9C472.82,114.45,455.52,132.74,455.26,134.05Z" transform="translate(0 -13.88)"/><path class="cls-18" d="M548,60.15C543,52.7,527.87,35.84,516.57,49.09q-.21-.47-.48-1c-.44.63-.6,1.18.39,1.43,18.1-2.09,30.82,11.2,40.48,28A122.29,122.29,0,0,0,548,60.15Z" transform="translate(0 -13.88)"/><path class="cls-23" d="M507,48.59l0,0c-9.4-3.56-15.75-.24-25.4,2.84-18.28,5.61-63.45,30.38-63.29,60.92,0,4.4,1.16,9.8,3,15.67C419.89,89.07,459.89,58.8,507,48.59Z" transform="translate(0 -13.88)"/><path class="cls-24" d="M472,171.72a25.57,25.57,0,0,0,4.72,3.39,17.74,17.74,0,0,0,5.3,1.95,16.36,16.36,0,0,0,5.63.19,21.55,21.55,0,0,0,2.82-.54,11.28,11.28,0,0,0,1.4-.42c.46-.15.94-.29,1.42-.43-.42.27-.84.52-1.27.77l-.65.37a3.56,3.56,0,0,1-.68.33,15,15,0,0,1-2.86.95,14,14,0,0,1-6.08.1,15.05,15.05,0,0,1-5.58-2.38A14.78,14.78,0,0,1,472,171.72Z" transform="translate(0 -13.88)"/><path class="cls-24" d="M551.93,129.31a13.65,13.65,0,0,1,1.45,5,13.1,13.1,0,0,1-.55,5.3,12.48,12.48,0,0,1-1.14,2.46,12.23,12.23,0,0,1-1.7,2.09,11.67,11.67,0,0,1-4.52,2.65,20.68,20.68,0,0,0,3.76-3.37,12.94,12.94,0,0,0,2.33-4.24,16.08,16.08,0,0,0,.77-4.85A27.31,27.31,0,0,0,551.93,129.31Z" transform="translate(0 -13.88)"/><path class="cls-24" d="M530.76,165.94c-10.92-3.69-9.07-5.57-11.87-8.63s-3.46-.8-3.46-.8c-1.11,14,8.46,18.83,12,20.11a5.44,5.44,0,0,0,1.24.4h0a5.64,5.64,0,0,0,2.11-11.08Z" transform="translate(0 -13.88)"/><polygon class="cls-17" points="559.57 210.74 572.29 222.08 608.49 173.9 604.61 168.11 559.57 210.74"/><polygon class="cls-17" points="554.89 212.79 556.54 230.38 494.57 233.56 492.16 228.24 554.89 212.79"/><path class="cls-24" d="M509.73,200.77c3.57-.2,7-.43,10.5-.75s6.87-.77,10.25-1.35a90.82,90.82,0,0,0,10-2.26l2.49-.73,2.46-.84,1.25-.4c.41-.16.8-.34,1.22-.49.82-.32,1.65-.63,2.51-.92-.66.6-1.35,1.17-2.06,1.73-.35.29-.71.56-1.07.83l-1.13.73c-.77.47-1.53,1-2.32,1.39s-1.63.79-2.45,1.17A42.76,42.76,0,0,1,531.05,202a49.79,49.79,0,0,1-10.76.67A38.66,38.66,0,0,1,509.73,200.77Z" transform="translate(0 -13.88)"/><path class="cls-20" d="M484.79,133.65a23.82,23.82,0,0,0-12.37,10.18,1.63,1.63,0,0,1-2,.81h0a1.55,1.55,0,0,1-.52-2.13A27.61,27.61,0,0,1,483,129.41c2.65-1.28,5.5-.77,5.73.62h0C489,131.42,487,132.83,484.79,133.65Z" transform="translate(0 -13.88)"/><path class="cls-20" d="M516.57,116.08a23.85,23.85,0,0,1,15.4-4.45,1.63,1.63,0,0,0,1.77-1.17h0a1.55,1.55,0,0,0-1.46-1.64,27.66,27.66,0,0,0-18.19,3.39c-2.55,1.46-3.75,4.1-2.73,5.07h0C512.38,118.26,514.64,117.45,516.57,116.08Z" transform="translate(0 -13.88)"/><path class="cls-24" d="M487.1,125.6s5.42,2.79,2.58,6C494.32,129.32,490.3,125.61,487.1,125.6Z" transform="translate(0 -13.88)"/><path class="cls-25" d="M449.33,156.2,448,144.34l9,7.79a4.69,4.69,0,0,1-6.12,7.1A4.61,4.61,0,0,1,449.33,156.2Z" transform="translate(0 -13.88)"/><path class="cls-25" d="M454.19,145.68l-.63-5.64,4.3,3.7a2.23,2.23,0,1,1-3.67,1.94Z" transform="translate(0 -13.88)"/><path class="cls-18" d="M591.27,310.39c-3.25-8.43-6.59-16.83-9.85-25.26a432.6,432.6,0,0,0-23.32-50.67c-1-.07-1.49-2-.42-2.35a33.54,33.54,0,0,0,3.86-1.63.79.79,0,0,1,.79.06.33.33,0,0,1,.53.05c11.18,14.15,23.94,28.63,34.92,43,10.55,13.83,19.17,27.86,29.49,41.9a57.57,57.57,0,0,1,.39,11.61c-.44,4.53-1,9.34-2.6,13.4a135.61,135.61,0,0,0-16.28-10.18c-4-2.14-8.16-3.72-12.21-5.6C594.29,320.14,592.89,314.57,591.27,310.39Z" transform="translate(0 -13.88)"/><path class="cls-18" d="M551.57,230.82c3.38,6.27,8.73,11.8,13.63,7.86,3.49-2.81.71-12.88-3.88-17.41-2.5-2.46-5.23-3-7.38-2.3C550.41,220.2,548.43,225,551.57,230.82Z" transform="translate(0 -13.88)"/><polygon class="cls-3" points="489.72 223 553.57 204.62 551.12 222.92 493.09 230.26 489.72 223"/><polygon class="cls-3" points="601.99 164.65 553.57 204.62 569.25 213.36 607.02 171.11 601.99 164.65"/><path class="cls-16" d="M500.71,248.83s-36.07,70.5-40.6,72.42c-3.75,1.58-66.87-49.76-66.87-49.76l-6.06,6.28s69.51,60.8,73.83,59c6.07-2.59,42.7-66.32,42.7-66.32Z" transform="translate(0 -13.88)"/><path class="cls-16" d="M391.5,277.15c-3.47,3.52-8.22,4.05-10.61,1.19s-1.5-8,2-11.56,8.22-4,10.61-1.18S395,273.63,391.5,277.15Z" transform="translate(0 -13.88)"/><path class="cls-16" d="M389,265s4.52-3.69,6.51-1.63-.91,8.08-.91,8.08" transform="translate(0 -13.88)"/></g></g></g></svg>