<svg xmlns="http://www.w3.org/2000/svg" viewBox="0 0 522.32 494.44"><defs><style>.cls-1{fill:#35d379;}.cls-2{fill:#fff;stroke:#fff;}.cls-2,.cls-3,.cls-5{stroke-miterlimit:10;}.cls-3{font-size:35.6px;fill:#5d0d7a;stroke:#5d0d7a;}.cls-3,.cls-4{font-family:Delius-Regular, Delius;}.cls-4{font-size:30px;}.cls-5{stroke:#000;}.cls-6{letter-spacing:-0.01em;}.cls-7{letter-spacing:-0.01em;}.cls-8{letter-spacing:0em;}.cls-9{letter-spacing:-0.01em;}.cls-10{letter-spacing:-0.01em;}.cls-11{letter-spacing:0em;}.cls-12{letter-spacing:-0.06em;}.cls-13{letter-spacing:-0.01em;}.cls-14{letter-spacing:0em;}.cls-15{letter-spacing:-0.06em;}.cls-16{letter-spacing:-0.03em;}</style></defs><title>C POP UPALEATORIO</title><g id="Capa_2" data-name="Capa 2"><g id="Capa_1-2" data-name="Capa 1"><rect class="cls-1" width="522.32" height="494.44" rx="68.09"/><path class="cls-2" d="M472.27,63h0A19.07,19.07,0,0,1,453.2,43.92h0a19.07,19.07,0,0,1,19.07-19.07h0a19.07,19.07,0,0,1,19.07,19.07h0A19.07,19.07,0,0,1,472.27,63Z"/><text class="cls-3" transform="translate(463.56 52.45)">x</text><text class="cls-4" transform="translate(160.16 147.14)"><tspan class="cls-5"><tspan class="cls-6">C</tspan><tspan x="19.5" y="0">a</tspan><tspan class="cls-7" x="36.63" y="0">r</tspan><tspan class="cls-8" x="48.54" y="0">a</tspan><tspan x="65.52" y="0">c</tspan><tspan class="cls-9" x="80.79" y="0">t</tspan><tspan x="90.57" y="0">erísti</tspan><tspan class="cls-6" x="156.18" y="0">c</tspan><tspan x="171.21" y="0">as</tspan></tspan><tspan x="-82.68" y="72">Describe las </tspan><tspan class="cls-6" x="87.15" y="72">c</tspan><tspan x="102.18" y="72">a</tspan><tspan class="cls-7" x="119.31" y="72">r</tspan><tspan class="cls-8" x="131.22" y="72">a</tspan><tspan x="148.2" y="72">c</tspan><tspan class="cls-9" x="163.47" y="72">t</tspan><tspan x="173.25" y="72">erísti</tspan><tspan class="cls-6" x="238.85" y="72">c</tspan><tspan x="253.88" y="72">as </tspan><tspan x="-78.69" y="108">q</tspan><tspan class="cls-8" x="-62.1" y="108">u</tspan><tspan x="-44.73" y="108">e tiene q</tspan><tspan class="cls-10" x="68.85" y="108">u</tspan><tspan x="86.22" y="108">e </tspan><tspan class="cls-7" x="109.53" y="108">t</tspan><tspan x="119.31" y="108">ener tu i</tspan><tspan class="cls-8" x="229.89" y="108">d</tspan><tspan x="247.38" y="108">ea </tspan><tspan x="-21.39" y="144">pa</tspan><tspan class="cls-7" x="12.84" y="144">r</tspan><tspan class="cls-11" x="24.75" y="144">a q</tspan><tspan class="cls-10" x="65.61" y="144">u</tspan><tspan x="82.98" y="144">e funcione</tspan><tspan x="-56.07" y="180">(</tspan><tspan class="cls-12" x="-47.01" y="180">T</tspan><tspan x="-33.27" y="180">amaño, </tspan><tspan class="cls-13" x="74.97" y="180">c</tspan><tspan class="cls-14" x="89.97" y="180">olo</tspan><tspan class="cls-15" x="130.41" y="180">r</tspan><tspan x="140.94" y="180">, </tspan><tspan class="cls-9" x="154.38" y="180">t</tspan><tspan x="164.16" y="180">extu</tspan><tspan class="cls-7" x="222.72" y="180">r</tspan><tspan x="234.63" y="180">a, </tspan><tspan x="3.98" y="216">funciones, et</tspan><tspan class="cls-16" x="174.43" y="216">c</tspan><tspan x="188.92" y="216">)</tspan></text></g></g></svg>