<svg xmlns="http://www.w3.org/2000/svg" viewBox="0 0 522.32 494.44"><defs><style>.cls-1{fill:#ef5959;}.cls-2{fill:#fff;stroke:#fff;}.cls-2,.cls-3,.cls-5{stroke-miterlimit:10;}.cls-3{font-size:35.6px;fill:#5d0d7a;stroke:#5d0d7a;}.cls-3,.cls-4{font-family:Delius-Regular, Delius;}.cls-4{font-size:30px;}.cls-5{stroke:#000;}.cls-6{letter-spacing:-0.01em;}.cls-7{letter-spacing:0em;}.cls-8{letter-spacing:-0.01em;}</style></defs><title>P POP UPALEATORIO</title><g id="Capa_2" data-name="Capa 2"><g id="Capa_1-2" data-name="Capa 1"><rect class="cls-1" width="522.32" height="494.44" rx="68.09"/><path class="cls-2" d="M472.27,63h0A19.07,19.07,0,0,1,453.2,43.92h0a19.07,19.07,0,0,1,19.07-19.07h0a19.07,19.07,0,0,1,19.07,19.07h0A19.07,19.07,0,0,1,472.27,63Z"/><text class="cls-3" transform="translate(463.56 52.45)">x</text><text class="cls-4" transform="translate(135.82 199.82)"><tspan class="cls-5">Públi<tspan class="cls-6" x="65.55" y="0">c</tspan><tspan x="80.55" y="0">o a imp</tspan><tspan class="cls-7" x="178.95" y="0">a</tspan><tspan x="195.93" y="0">ctar</tspan></tspan><tspan x="-44.64" y="72">Describe el públi</tspan><tspan class="cls-6" x="175.2" y="72">c</tspan><tspan x="190.2" y="72">o al q</tspan><tspan class="cls-7" x="261.77" y="72">u</tspan><tspan x="279.14" y="72">e </tspan><tspan x="17.71" y="108">imp</tspan><tspan class="cls-7" x="67.84" y="108">a</tspan><tspan x="84.82" y="108">cta tu i</tspan><tspan class="cls-8" x="175.96" y="108">d</tspan><tspan x="193.45" y="108">ea.</tspan></text></g></g></svg>