<svg xmlns="http://www.w3.org/2000/svg" viewBox="0 0 522.32 494.44"><defs><style>.cls-1{fill:#3ac7ce;}.cls-2{fill:#fff;stroke:#fff;}.cls-2,.cls-3,.cls-5{stroke-miterlimit:10;}.cls-3{font-size:35.6px;fill:#5d0d7a;stroke:#5d0d7a;}.cls-3,.cls-4{font-family:Delius-Regular, Delius;}.cls-4{font-size:30px;}.cls-5{stroke:#000;}.cls-6{letter-spacing:-0.02em;}.cls-7{letter-spacing:0em;}.cls-8{letter-spacing:-0.01em;}.cls-9{letter-spacing:-0.03em;}.cls-10{letter-spacing:0em;}.cls-11{letter-spacing:-0.02em;}.cls-12{letter-spacing:-0.04em;}.cls-13{letter-spacing:-0.01em;}.cls-14{letter-spacing:-0.01em;}.cls-15{letter-spacing:-0.03em;}</style></defs><title>R POP UPALEATORIO</title><g id="Capa_2" data-name="Capa 2"><g id="Capa_1-2" data-name="Capa 1"><rect class="cls-1" width="522.32" height="494.44" rx="68.09"/><path class="cls-2" d="M472.27,63h0A19.07,19.07,0,0,1,453.2,43.92h0a19.07,19.07,0,0,1,19.07-19.07h0a19.07,19.07,0,0,1,19.07,19.07h0A19.07,19.07,0,0,1,472.27,63Z"/><text class="cls-3" transform="translate(463.56 52.45)">x</text><text class="cls-4" transform="translate(196.03 165.14)"><tspan class="cls-5"><tspan class="cls-6">R</tspan><tspan x="18.45" y="0">ecursos</tspan></tspan><tspan x="-145.83" y="72">Haz un list</tspan><tspan class="cls-7" x="-6.45" y="72">a</tspan><tspan x="10.56" y="72">do </tspan><tspan class="cls-8" x="52.2" y="72">c</tspan><tspan x="67.2" y="72">on los </tspan><tspan class="cls-9" x="152.94" y="72">r</tspan><tspan x="164.28" y="72">ecursos </tspan><tspan x="-142.23" y="108">q</tspan><tspan class="cls-10" x="-125.64" y="108">u</tspan><tspan x="-108.27" y="108">e ne</tspan><tspan class="cls-11" x="-51.42" y="108">c</tspan><tspan x="-36.69" y="108">esita tu i</tspan><tspan class="cls-10" x="75.72" y="108">d</tspan><tspan x="93.21" y="108">ea (</tspan><tspan class="cls-12" x="142.71" y="108">P</tspan><tspan x="159.6" y="108">ersonal, </tspan><tspan x="-93.93" y="144">alian</tspan><tspan class="cls-13" x="-28.86" y="144">z</tspan><tspan x="-14.73" y="144">as, her</tspan><tspan class="cls-14" x="75.21" y="144">r</tspan><tspan x="87.12" y="144">amie</tspan><tspan class="cls-8" x="153.45" y="144">n</tspan><tspan x="170.55" y="144">tas, </tspan><tspan x="-39.38" y="180">eleme</tspan><tspan class="cls-8" x="42.16" y="180">n</tspan><tspan x="59.26" y="180">tos, et</tspan><tspan class="cls-15" x="139.6" y="180">c</tspan><tspan x="154.09" y="180">)</tspan></text></g></g></svg>