<svg xmlns="http://www.w3.org/2000/svg" viewBox="0 0 522.32 494.44"><defs><style>.cls-1{fill:#e2e233;}.cls-2{fill:#fff;stroke:#fff;}.cls-2,.cls-3,.cls-5{stroke-miterlimit:10;}.cls-3{font-size:35.6px;fill:#5d0d7a;stroke:#5d0d7a;}.cls-3,.cls-4{font-family:Delius-Regular, Delius;}.cls-4{font-size:30px;}.cls-5{stroke:#000;}.cls-6{letter-spacing:-0.01em;}.cls-7{letter-spacing:-0.01em;}.cls-8{letter-spacing:-0.01em;}.cls-9{letter-spacing:0em;}.cls-10{letter-spacing:-0.01em;}</style></defs><title>V POP UPALEATORIO</title><g id="Capa_2" data-name="Capa 2"><g id="Capa_1-2" data-name="Capa 1"><rect class="cls-1" width="522.32" height="494.44" rx="68.09"/><path class="cls-2" d="M472.27,63h0A19.07,19.07,0,0,1,453.2,43.92h0a19.07,19.07,0,0,1,19.07-19.07h0a19.07,19.07,0,0,1,19.07,19.07h0A19.07,19.07,0,0,1,472.27,63Z"/><text class="cls-3" transform="translate(463.56 52.45)">x</text><text class="cls-4" transform="translate(164 201.07)"><tspan class="cls-5"><tspan class="cls-6">E</tspan><tspan x="17.43" y="0">xpli</tspan><tspan class="cls-7" x="62.73" y="0">c</tspan><tspan x="77.76" y="0">a tu i</tspan><tspan class="cls-8" x="143.52" y="0">d</tspan><tspan x="161.01" y="0">ea</tspan></tspan><tspan class="cls-6" x="-85.41" y="72">E</tspan><tspan x="-67.98" y="72">xpli</tspan><tspan class="cls-7" x="-22.68" y="72">c</tspan><tspan x="-7.65" y="72">a el </tspan><tspan class="cls-8" x="46.65" y="72">v</tspan><tspan x="61.05" y="72">alor q</tspan><tspan class="cls-9" x="137.73" y="72">u</tspan><tspan x="155.1" y="72">e tiene tu </tspan><tspan x="-96.01" y="108">i</tspan><tspan class="cls-9" x="-89.29" y="108">d</tspan><tspan x="-71.8" y="108">ea y </tspan><tspan class="cls-10" x="-7.18" y="108">c</tspan><tspan x="7.82" y="108">ómo se </tspan><tspan class="cls-8" x="111.94" y="108">d</tspan><tspan x="129.43" y="108">esar</tspan><tspan class="cls-10" x="188.62" y="108">r</tspan><tspan x="200.59" y="108">ollaría.</tspan></text></g></g></svg>