<svg xmlns="http://www.w3.org/2000/svg" viewBox="0 0 517.04 644.67"><defs><style>.cls-1{font-size:60px;fill:#fac645;font-family:ShadowsIntoLight, Shadows Into Light;}.cls-2{letter-spacing:-0.06em;}.cls-3{font-size:26px;font-family:Delius-Regular, Delius;}.cls-12,.cls-3{fill:#fff;}.cls-4{letter-spacing:-0.01em;}.cls-5{letter-spacing:0em;}.cls-6{letter-spacing:-0.01em;}.cls-7{letter-spacing:0em;}.cls-8{letter-spacing:-0.03em;}.cls-9{fill:#b7dcf2;}.cls-10{fill:#d0e9f4;}.cls-11{fill:#e9f4f8;}.cls-13{fill:#9fd1f0;}.cls-14{fill:#e7e6e5;opacity:0.3;}.cls-15{fill:#25888f;}.cls-16{fill:#21888f;}.cls-17{fill:#1c8081;}.cls-18{fill:#e8ad3c;}.cls-19{fill:#d2a055;opacity:0.4;}.cls-20{fill:#1b1a1a;}.cls-21{fill:#daeef8;}.cls-22{fill:#da9d34;}.cls-23{fill:#f4c065;}.cls-24{fill:#137c7e;}.cls-25{fill:#47b3b4;}.cls-26{fill:#636363;}.cls-27{fill:#14147a;}</style></defs><title>TEXTO_2</title><g id="Capa_2" data-name="Capa 2"><g id="Capa_1-2" data-name="Capa 1"><text class="cls-1" transform="translate(59.83 412.71)"><tspan class="cls-2">E</tspan><tspan x="28.13" y="0">stás a punto de </tspan><tspan x="99.84" y="60">empezar</tspan></text><text class="cls-3" transform="translate(80.1 575.24)">Debes es<tspan class="cls-4" x="104.67" y="0">c</tspan><tspan x="117.67" y="0">oger uno </tspan><tspan class="cls-5" x="228.64" y="0">d</tspan><tspan x="243.8" y="0">e los 5C ...</tspan><tspan x="-12.79" y="31.2">Q</tspan><tspan class="cls-5" x="6.81" y="31.2">u</tspan><tspan x="21.86" y="31.2">e </tspan><tspan class="cls-6" x="42.06" y="31.2">t</tspan><tspan x="50.54" y="31.2">e </tspan><tspan class="cls-5" x="70.74" y="31.2">a</tspan><tspan x="85.46" y="31.2">y</tspan><tspan class="cls-7" x="100.23" y="31.2">u</tspan><tspan x="115.3" y="31.2">da</tspan><tspan class="cls-6" x="145.44" y="31.2">r</tspan><tspan x="155.76" y="31.2">an a </tspan><tspan class="cls-4" x="212.88" y="31.2">c</tspan><tspan x="225.88" y="31.2">onstruir una </tspan><tspan x="63.42" y="62.4">p</tspan><tspan class="cls-8" x="78.24" y="62.4">r</tspan><tspan x="88.07" y="62.4">egu</tspan><tspan class="cls-4" x="131.78" y="62.4">n</tspan><tspan x="146.6" y="62.4">ta p</tspan><tspan class="cls-4" x="191.21" y="62.4">r</tspan><tspan x="201.58" y="62.4">oblema.</tspan></text><polygon class="cls-9" points="390.85 128.15 372.74 144.87 297.52 43.18 283.6 48.75 239.02 0 127.59 136.51 102.51 142.08 9.19 284.85 507.86 284.85 390.85 128.15"/><polygon class="cls-10" points="56.46 284.85 157.94 284.85 211.86 147.65 189.57 153.92 239.02 0 127.59 136.51 141.52 179.69 56.46 284.85"/><polygon class="cls-10" points="102.51 142.08 9.19 284.85 28.69 284.85 109.48 159.03 102.51 142.08"/><polygon class="cls-10" points="283.6 48.75 257.59 146.95 268.74 145.56 225.56 284.85 252.49 284.85 303.56 124.67 291.49 123.27 297.52 43.18 283.6 48.75"/><polygon class="cls-10" points="390.85 128.15 412.44 216.95 398.51 233.66 411.4 229.49 426.72 285.2 346.97 285.2 366.47 223.22 372.74 144.87 390.85 128.15"/><polygon class="cls-11" points="229.74 15.32 135.25 135.35 150.34 180.38 65.95 284.92 124.8 284.92 177.73 181.78 166.94 131.98 229.74 15.32"/><polygon class="cls-11" points="102.51 142.08 28.69 284.85 9.19 284.85 102.51 142.08"/><polygon class="cls-11" points="297.52 43.18 268.74 145.56 257.59 146.95 283.6 48.75 297.52 43.18"/><polygon class="cls-11" points="219.87 157.05 173.38 284.94 193.06 284.94 219.87 157.05"/><polygon class="cls-11" points="372.74 144.87 366.47 223.22 346.97 285.2 375.18 285.2 387.37 195.36 372.74 144.87"/><polygon class="cls-12" points="173.38 284.94 184.7 284.94 206.11 194.84 173.38 284.94"/><polygon class="cls-12" points="90.44 275.1 146.62 195.24 108.55 275.8 90.44 275.1"/><polygon class="cls-12" points="209.31 46.43 139.89 136.04 155.91 177.6 152.19 134.19 209.31 46.43"/><polygon class="cls-13" points="283.6 48.75 257.59 146.95 268.74 145.56 225.56 284.85 200.72 284.85 249.47 162.28 227.53 165.06 283.6 48.75"/><polygon class="cls-13" points="372.74 144.87 366.47 223.22 346.97 285.2 282.67 285.2 310.99 204.99 311.45 153.92 322.13 204.53 309.13 269.53 333.74 269.53 354.63 219.39 372.74 144.87"/><polygon class="cls-13" points="127.59 136.51 141.52 179.69 56.46 284.85 39.83 284.85 131.42 178.64 127.59 136.51"/><ellipse class="cls-14" cx="363.27" cy="325.58" rx="58.71" ry="11.53"/><path class="cls-15" d="M331.82,154.83c-10.16,8.3-35.9,76.69-35.9,76.69s-6.18,5-5.1,6.83c.82,1.43,3.92-2,3.92-2s-2.72,4.82-1.63,5.88,3.74-4.47,3.74-4.47-1.17,5.85,0,5.83,2.77-6,2.77-6,1.46,2.64,2.65,2c1.36-.72-1.65-6.3-1.65-6.3,13.71-43.42,35.85-74.75,35.85-74.75Z"/><path class="cls-16" d="M403.11,183.94h0q-1.17-2-2.48-3.76c-14.81-23.76-11.88-46-10.66-52.13.13-.54.26-1.09.37-1.65v0h0a43.87,43.87,0,0,0,.89-8.81c0-21.23-15-38.43-33.49-38.43s-33.48,17.2-33.48,38.43A43.55,43.55,0,0,0,326,129.87h0c.22.76.47,1.5.73,2.24,6.44,21.24-1.66,43.52-6.13,53.35a55.26,55.26,0,0,0-2.57,5.17v0h0a61,61,0,0,0-5,24.42c0,30.65,22.07,55.49,49.3,55.49s49.3-24.84,49.3-55.49A60.17,60.17,0,0,0,403.11,183.94Z"/><rect class="cls-16" x="345.77" y="262.38" width="4.84" height="61.31"/><rect class="cls-16" x="371.85" y="262.38" width="4.84" height="61.31"/><path class="cls-16" d="M345.77,322.11s-10.47.93-8.21,4.39h13v-4.39Z"/><path class="cls-16" d="M376.69,322.11s10.47.93,8.21,4.39h-13v-4.39Z"/><path class="cls-17" d="M405.88,189.2s9.39,19,4.2,39.58-21.32,43.71-51.61,41.61C358.47,270.39,423.25,260,405.88,189.2Z"/><path class="cls-17" d="M345.77,267.36A14.21,14.21,0,0,0,350.6,269v2.82a6.2,6.2,0,0,1-4.83-1.19Z"/><path class="cls-17" d="M376.69,268.16a13.14,13.14,0,0,1-4.84,1.31v2.31s3.17.64,4.84-1.22Z"/><path class="cls-17" d="M385.28,90.82s-1.2,11.34-41.66,10.67c0,0,10.87-4.45,10.87-7.18a34.48,34.48,0,0,1-15,5s5.41-5.67,5.17-7.79c0,0-12.64.39-16.8,10.53l1.34-10.92,13.33-4.4L350.42,88l33.42-1.1Z"/><path class="cls-12" d="M353.82,114.67a6.81,6.81,0,1,1-6.81-6.82A6.81,6.81,0,0,1,353.82,114.67Z"/><path class="cls-18" d="M351.74,114.67a4.73,4.73,0,1,1-4.73-4.73A4.73,4.73,0,0,1,351.74,114.67Z"/><path class="cls-19" d="M351.27,114.67a4.26,4.26,0,0,1-8.52,0c0-2.36,1.91,2.12,4.26,2.12S351.27,112.31,351.27,114.67Z"/><path class="cls-20" d="M350.46,114.67a3.45,3.45,0,1,1-3.45-3.45A3.45,3.45,0,0,1,350.46,114.67Z"/><path class="cls-12" d="M349.12,113.31a.52.52,0,1,1-.52-.52A.52.52,0,0,1,349.12,113.31Z"/><path class="cls-21" d="M342.49,110.28S341,115,342.2,118C339.58,113.28,341,111,342.49,110.28Z"/><path class="cls-12" d="M377.36,114.32a6.82,6.82,0,1,1-6.81-6.81A6.81,6.81,0,0,1,377.36,114.32Z"/><path class="cls-18" d="M375.28,114.32a4.73,4.73,0,1,1-4.73-4.73A4.73,4.73,0,0,1,375.28,114.32Z"/><path class="cls-19" d="M374.8,114.32a4.26,4.26,0,1,1-8.51,0c0-2.35,1.9,2.12,4.26,2.12S374.8,112,374.8,114.32Z"/><path class="cls-20" d="M374,114.32a3.45,3.45,0,1,1-3.44-3.45A3.44,3.44,0,0,1,374,114.32Z"/><path class="cls-12" d="M372.66,113a.52.52,0,1,1-.52-.53A.52.52,0,0,1,372.66,113Z"/><path class="cls-21" d="M374.89,110.2s1.57,3.92.29,7.27C377.51,113.08,377,111.12,374.89,110.2Z"/><path class="cls-18" d="M391.11,120.64c1.73-7.84,2.85-25,2.17-31.91-.43-4.26-3.09-14.8-10.84-11.7.17-2.28-1-6.38-3.86-7.42,1,1.15,1,3.43,0,5.14-3.21-3.71-6.66-3.71-11.49-4.57-9-1.71-33.67-1.3-40.43,11.68-3.87,7.43-4.23,29.19-2.35,38.15,0,0,1.1-29.59,17.29-28.29a32.46,32.46,0,0,1-4.13,7.61,54.41,54.41,0,0,0,15.15-5.86c-.38,1.58-3.37,4.42-11.18,7.31,11.24-.14,31-2.37,38.36-7.79C387.94,93.4,391.11,120.64,391.11,120.64Z"/><path class="cls-22" d="M341.77,100.65l-.33.13c11.24-.14,31-2.38,38.36-7.8a5,5,0,0,1,3,1.34c-.55-1.09-4.35-4-4.35-4C370.43,95.57,355.05,98.64,341.77,100.65Z"/><path class="cls-18" d="M337.47,99.33a54.41,54.41,0,0,0,15.15-5.86,4.06,4.06,0,0,1-1.12,1.73,3.89,3.89,0,0,0,2.27-3.66C349.3,95,337.88,98.84,337.47,99.33Z"/><path class="cls-18" d="M393.27,88.73c-.42-4.27-3.08-14.8-10.83-11.71,0-.16,0-.33,0-.51-.32.17-.52.37-.15.69,8.14,3.16,10.56,11.64,10.91,20.9A59,59,0,0,0,393.27,88.73Z"/><path class="cls-23" d="M378.49,74.67v0c-3.19-3.61-6.62-3.62-11.4-4.47-9-1.71-33.68-1.3-40.43,11.68a26.25,26.25,0,0,0-2.21,7.32C332.53,72.37,356.25,68.48,378.49,74.67Z"/><path class="cls-24" d="M336.15,119a12.06,12.06,0,0,0,1.24,2.49,8.92,8.92,0,0,0,1.81,2,8,8,0,0,0,2.34,1.33,11.87,11.87,0,0,0,1.32.41,5.25,5.25,0,0,0,.69.13l.69.14-.71,0h-.36a1.36,1.36,0,0,1-.35,0,6.89,6.89,0,0,1-1.43-.24,6.8,6.8,0,0,1-2.6-1.31,7.27,7.27,0,0,1-1.83-2.26A7.05,7.05,0,0,1,336.15,119Z"/><path class="cls-24" d="M379.5,118.92a6.7,6.7,0,0,1-1.92,4.58,5.33,5.33,0,0,1-2.22,1.29,5.48,5.48,0,0,1-2.51.11,9.86,9.86,0,0,0,2.35-.58,6.14,6.14,0,0,0,1.93-1.28,7.91,7.91,0,0,0,1.41-1.88A12.09,12.09,0,0,0,379.5,118.92Z"/><path class="cls-24" d="M362.35,129.72c-3.8-4-2.6-4.39-3.1-6.31s-1.29-1.12-1.29-1.12c-3.6,5.7-.63,9.87.57,11.2a2.68,2.68,0,0,0,.44.45h0a2.66,2.66,0,0,0,1.68.59,2.7,2.7,0,0,0,2.7-2.7A2.67,2.67,0,0,0,362.35,129.72Z"/><path class="cls-24" d="M345.65,139.78c1.56.71,3.08,1.39,4.62,2s3.08,1.21,4.64,1.72a45.75,45.75,0,0,0,4.76,1.28l1.22.25,1.23.19.62.11.63.06c.41.05.84.1,1.26.18-.41.1-.83.19-1.25.27l-.64.11-.65.06c-.43,0-.86.06-1.29.07l-1.3-.05a20.53,20.53,0,0,1-5.08-1,24.06,24.06,0,0,1-4.71-2.12A18.27,18.27,0,0,1,345.65,139.78Z"/><path class="cls-20" d="M350.08,105.76a11.43,11.43,0,0,0-7.52,1.55.77.77,0,0,1-1-.1h0a.74.74,0,0,1,.25-1,13.3,13.3,0,0,1,8.47-2.63c1.41,0,2.5.9,2.29,1.55h0C352.35,105.75,351.2,105.91,350.08,105.76Z"/><path class="cls-20" d="M367.47,105.42A11.42,11.42,0,0,1,375,107a.79.79,0,0,0,1-.1h0a.74.74,0,0,0-.26-1,13.2,13.2,0,0,0-8.46-2.63c-1.41,0-2.51.9-2.29,1.54h0C365.21,105.4,366.35,105.56,367.47,105.42Z"/><path class="cls-24" d="M352.86,102.87s1.67,2.39-.24,3.11C355.09,106.05,354.21,103.58,352.86,102.87Z"/><path class="cls-25" d="M330,107.39l2.09-5.32,2.09,5.32a2.25,2.25,0,1,1-4.18,0Z"/><path class="cls-25" d="M334.42,104l1-2.53,1,2.53a1.07,1.07,0,0,1-.6,1.39,1.08,1.08,0,0,1-1.39-.61A1.1,1.1,0,0,1,334.42,104Z"/><path class="cls-15" d="M449.72,141.77c-.83-1.43-3.93,2-3.93,2s2.72-4.82,1.63-5.88-3.74,4.47-3.74,4.47,1.17-5.86,0-5.83-2.77,6-2.77,6-1.46-2.65-2.65-2c-1.37.72,1.62,6.36,1.62,6.36-8,25.38-13.65,37-16.95,42.32L390.4,158.27l2.34,10.53,26.67,24.7h0l2.41,2.22a2.09,2.09,0,0,0,2.95-.13c9.69-10.72,19.4-47.11,19.4-47.11S450.79,143.62,449.72,141.77Z"/><rect class="cls-26" x="318.33" y="82.22" width="10.23" height="11.51"/><rect class="cls-26" x="388.73" y="82.22" width="10.23" height="11.51"/><path class="cls-27" d="M396.08,94.14c0-.41.07-.81.07-1.21,0-17.14-16.8-31-37.51-31s-37.51,13.89-37.51,31c0,.4.05.8.08,1.21Z"/><polygon class="cls-26" points="365.55 92.48 351.01 92.48 345.48 57.04 371.08 57.04 365.55 92.48"/><path class="cls-26" d="M399.16,99.08c0,3-2.69,5.37-6,5.37H324.33c-3.32,0-6-2.4-6-5.37h0V93.72H399s.21,2.4.21,5.36Z"/><rect class="cls-26" x="345.87" y="263.82" width="4.82" height="17.66"/><rect class="cls-26" x="371.87" y="263.82" width="4.82" height="17.66"/><path class="cls-26" d="M328.43,158.87S321.79,180,315.9,196.28c0,0-12,36.59,14,60.57,0,0,22.76,25.58,56.78,6.8,0,0,24.4-14.28,25-48.58,0,0,1.36-15.46-9.7-33-10.48-16.68-8.52-14.2-10.45-22.86l-1.28-5.46-4.82,27.61h-51l-5.45-27.61Z"/><path class="cls-26" d="M444.13,133.66a11.52,11.52,0,1,1,11.51-11.52A11.54,11.54,0,0,1,444.13,133.66Zm0-19.26a7.74,7.74,0,1,0,7.74,7.74A7.75,7.75,0,0,0,444.13,114.4Z"/><rect class="cls-26" x="441.94" y="130.41" width="4.37" height="22.23"/></g></g></svg>