<svg xmlns="http://www.w3.org/2000/svg" xmlns:xlink="http://www.w3.org/1999/xlink" viewBox="0 0 186.77 402.16"><defs><style>.cls-1{fill:none;}.cls-2{fill:#f4f4f4;opacity:0.92;}.cls-3{fill:#ed736c;}.cls-4{clip-path:url(#clip-path);}.cls-5{fill:#1e9099;}.cls-6{fill:#1a9099;}.cls-7{fill:#188689;}.cls-8{fill:#fff;}.cls-9{fill:#f3b436;}.cls-10{fill:#dba756;opacity:0.4;}.cls-11{fill:#1a1a1a;}.cls-12{fill:#dff3fd;}.cls-13{fill:#e5a330;}.cls-14{fill:#ffc764;}.cls-15{fill:#138184;}.cls-16{fill:#3fc4c4;}</style><clipPath id="clip-path"><path class="cls-1" d="M166.92,123.53c0,43.56-31.48,90-75,90s-72-43-72-86.56,28.46-74.39,72-74.39S166.92,80,166.92,123.53Z"/></clipPath></defs><title>CARTAALEATORIO</title><g id="Capa_2" data-name="Capa 2"><g id="Capa_1-2" data-name="Capa 1"><rect class="cls-2" width="186.77" height="266.05" rx="12"/><circle class="cls-3" cx="91.88" cy="152.35" r="61.15"/><g class="cls-4"><path class="cls-5" d="M133.32,179.38c13.2,10.76,46,99.66,46,99.66s8.63,6.32,7.24,8.72c-1.07,1.86-5.09-2.61-5.09-2.61s3.53,6.26,2.11,7.64-4.85-5.8-4.85-5.8,1.52,7.59-.06,7.56-3.59-7.78-3.59-7.78-1.9,3.44-3.44,2.62c-1.77-.92,2.1-8.25,2.1-8.25-17.79-56.35-46.49-96.93-46.49-96.93Z"/><path class="cls-5" d="M57.29,179.38C44.1,190.14,10.7,278.91,10.7,278.91s-8,6.45-6.62,8.85c1.07,1.86,5.09-2.61,5.09-2.61s-3.53,6.26-2.11,7.64,4.85-5.8,4.85-5.8-1.52,7.59.05,7.56,3.6-7.78,3.6-7.78,1.89,3.44,3.44,2.62c1.77-.92-2.14-8.17-2.14-8.17,17.79-56.35,46.52-97,46.52-97Z"/><path class="cls-6" d="M149.81,217.16h0q-1.53-2.52-3.23-4.88c-19.22-30.84-15.41-59.68-13.84-67.65.18-.7.34-1.42.49-2.14v0h0A57.2,57.2,0,0,0,134.37,131c0-27.55-19.45-49.88-43.46-49.88S47.46,103.46,47.46,131a56.81,56.81,0,0,0,2.27,16h0c.29,1,.61,2,1,2.91,8.36,27.56-2.16,56.48-8,69.24q-1.81,3.24-3.33,6.71l0,0h0a79.18,79.18,0,0,0-6.51,31.69c0,39.77,28.64,72,64,72s64-32.23,64-72A78.12,78.12,0,0,0,149.81,217.16Z"/><rect class="cls-6" x="75.38" y="318.95" width="6.28" height="79.57"/><rect class="cls-6" x="109.24" y="318.95" width="6.28" height="79.57"/><path class="cls-6" d="M75.38,396.46s-13.58,1.21-10.65,5.7H81.66v-5.7Z"/><path class="cls-6" d="M115.52,396.46s13.59,1.21,10.65,5.7H109.24v-5.7Z"/><path class="cls-7" d="M153.4,224s12.19,24.63,5.45,51.37-27.67,56.72-67,54C91.87,329.35,175.94,315.91,153.4,224Z"/><path class="cls-7" d="M75.38,325.42a18.55,18.55,0,0,0,6.28,2.11v3.66a8.08,8.08,0,0,1-6.28-1.54Z"/><path class="cls-7" d="M115.52,326.45a17.17,17.17,0,0,1-6.28,1.7v3s4.11.83,6.28-1.59Z"/><path class="cls-7" d="M126.66,96.3S125.11,111,72.6,110.16c0,0,14.1-5.78,14.1-9.32a44.73,44.73,0,0,1-19.51,6.51s7-7.36,6.71-10.1c0,0-16.4.5-21.81,13.66l1.74-14.17L71.13,91,81.42,92.7l43.38-1.43Z"/><circle class="cls-8" cx="77" cy="127.25" r="8.84"/><path class="cls-9" d="M83.14,127.25A6.14,6.14,0,1,1,77,121.11,6.14,6.14,0,0,1,83.14,127.25Z"/><path class="cls-10" d="M82.52,127.25a5.53,5.53,0,1,1-11,0c0-3,2.48,2.76,5.53,2.76S82.52,124.2,82.52,127.25Z"/><path class="cls-11" d="M81.47,127.25A4.48,4.48,0,1,1,77,122.78,4.47,4.47,0,0,1,81.47,127.25Z"/><path class="cls-8" d="M79.74,125.49a.68.68,0,1,1-.67-.67A.67.67,0,0,1,79.74,125.49Z"/><path class="cls-12" d="M71.13,121.56s-1.89,6.14-.38,10C67.36,125.46,69.24,122.46,71.13,121.56Z"/><circle class="cls-8" cx="107.54" cy="126.81" r="8.84"/><path class="cls-9" d="M113.68,126.81a6.14,6.14,0,1,1-6.14-6.14A6.14,6.14,0,0,1,113.68,126.81Z"/><path class="cls-10" d="M113.07,126.81a5.53,5.53,0,0,1-11,0c0-3.06,2.47,2.75,5.52,2.75S113.07,123.75,113.07,126.81Z"/><path class="cls-11" d="M112,126.81a4.48,4.48,0,1,1-4.48-4.48A4.47,4.47,0,0,1,112,126.81Z"/><path class="cls-8" d="M110.29,125.05a.68.68,0,1,1-.68-.68A.67.67,0,0,1,110.29,125.05Z"/><path class="cls-12" d="M113.19,121.45s2,5.1.37,9.44C116.58,125.2,115.9,122.65,113.19,121.45Z"/><path class="cls-9" d="M134.23,135c2.25-10.18,3.7-32.51,2.81-41.41-.55-5.54-4-19.2-14.06-15.19.21-3-1.25-8.28-5-9.62,1.26,1.48,1.26,4.44,0,6.66-4.17-4.81-8.65-4.81-14.91-5.93-11.68-2.21-43.7-1.69-52.47,15.16-5,9.65-5.49,37.88-3,49.51,0,0,1.41-38.41,22.43-36.72,0,0-2.29,6.14-5.36,9.89a70.55,70.55,0,0,0,19.66-7.61c-.49,2-4.37,5.73-14.51,9.48,14.58-.17,40.19-3.07,49.78-10.11C130.12,99.66,134.23,135,134.23,135Z"/><path class="cls-13" d="M70.2,109.06l-.43.17c14.58-.18,40.19-3.08,49.78-10.11a6.54,6.54,0,0,1,4,1.73c-.72-1.41-5.64-5.14-5.64-5.14C107.4,102.47,87.43,106.45,70.2,109.06Z"/><path class="cls-9" d="M64.62,107.35a70.71,70.71,0,0,0,19.66-7.6A5.38,5.38,0,0,1,82.83,102a5.07,5.07,0,0,0,3-4.75C80,101.67,65.15,106.71,64.62,107.35Z"/><path class="cls-9" d="M137,93.59c-.55-5.53-4-19.2-14.06-15.19,0-.21,0-.43,0-.67-.43.22-.68.48-.21.9,10.57,4.1,13.71,15.1,14.16,27.13A76.73,76.73,0,0,0,137,93.59Z"/><path class="cls-14" d="M117.86,75.35v0c-4.14-4.68-8.6-4.7-14.8-5.8-11.68-2.22-43.7-1.69-52.47,15.16a34.23,34.23,0,0,0-2.87,9.49C58.21,72.36,89,67.31,117.86,75.35Z"/><path class="cls-15" d="M62.9,132.93a16.51,16.51,0,0,0,1.61,3.23,11.31,11.31,0,0,0,2.36,2.61,10.16,10.16,0,0,0,3,1.73,13.59,13.59,0,0,0,1.71.53,8.24,8.24,0,0,0,.89.17l.9.18-.92.05-.47,0a3.54,3.54,0,0,1-.46,0,8.94,8.94,0,0,1-1.85-.31,8.55,8.55,0,0,1-3.37-1.71A9.17,9.17,0,0,1,64,136.49,9.27,9.27,0,0,1,62.9,132.93Z"/><path class="cls-15" d="M119.17,132.78a8.58,8.58,0,0,1-.66,3.18,8.2,8.2,0,0,1-1.84,2.76,7.9,7.9,0,0,1-1.34,1,7,7,0,0,1-4.79.8,13,13,0,0,0,3-.76,8,8,0,0,0,2.51-1.66,9.81,9.81,0,0,0,1.83-2.44A17.49,17.49,0,0,0,119.17,132.78Z"/><path class="cls-15" d="M96.9,146.79c-4.93-5.2-3.37-5.7-4-8.19s-1.68-1.45-1.68-1.45c-4.67,7.39-.8,12.81.75,14.53a3.48,3.48,0,0,0,.57.58h0a3.5,3.5,0,1,0,4.37-5.48Z"/><polygon class="cls-7" points="95.73 187.42 99.44 197.34 133.32 181.34 132.87 177.03 95.73 187.42"/><polygon class="cls-7" points="92.57 187.18 88.37 197.34 53.37 181.12 53.58 177.49 92.57 187.18"/><path class="cls-15" d="M75.24,159.84c2,.93,4,1.81,6,2.64s4,1.57,6,2.23a56.68,56.68,0,0,0,6.17,1.66l1.58.32,1.6.25.8.15c.27,0,.54,0,.81.08.55.06,1.1.13,1.65.22-.54.14-1.08.25-1.63.36l-.83.14-.83.07c-.56,0-1.12.08-1.69.1L93.21,168a26.54,26.54,0,0,1-6.6-1.3,31.65,31.65,0,0,1-6.11-2.75A24.33,24.33,0,0,1,75.24,159.84Z"/><path class="cls-11" d="M81,115.7a14.82,14.82,0,0,0-9.75,2,1,1,0,0,1-1.32-.13h0a1,1,0,0,1,.33-1.32,17.12,17.12,0,0,1,11-3.41c1.83.06,3.25,1.17,3,2h0C83.92,115.68,82.44,115.89,81,115.7Z"/><path class="cls-11" d="M103.56,115.25a14.86,14.86,0,0,1,9.76,2,1,1,0,0,0,1.31-.12h0a1,1,0,0,0-.33-1.33,17.18,17.18,0,0,0-11-3.41c-1.82.06-3.25,1.17-3,2h0C100.62,115.23,102.1,115.44,103.56,115.25Z"/><path class="cls-15" d="M84.59,111.94s2.17,3.1-.32,4C87.48,116.08,86.34,112.87,84.59,111.94Z"/><path class="cls-16" d="M54.94,117.82l2.71-6.91,2.72,6.91a2.92,2.92,0,1,1-5.43,0Z"/><path class="cls-16" d="M60.66,113.44l1.3-3.28,1.29,3.28a1.39,1.39,0,0,1-2.59,1A1.43,1.43,0,0,1,60.66,113.44Z"/><path class="cls-9" d="M88.3,243.78c.65-5.58,1.25-11.17,1.91-16.75a268.66,268.66,0,0,0,1.86-34.63c-.53-.33-.25-1.52.45-1.42a20.59,20.59,0,0,0,2.59.23.49.49,0,0,1,.43.26.2.2,0,0,1,.27.18c2,11,4.87,22.69,6.74,33.78,1.8,10.66,2.46,20.88,4.07,31.59a35,35,0,0,1-3.15,6.5,32.08,32.08,0,0,1-5.31,6.62,85.11,85.11,0,0,0-6-10.32c-1.58-2.34-3.41-4.41-5.09-6.62C87.13,250,88,246.55,88.3,243.78Z"/><path class="cls-9" d="M89.54,188.5c0,4.43,1.38,9,5.21,8.28,2.73-.53,4.13-6.88,2.92-10.7a4.47,4.47,0,0,0-3.39-3.4C92,182.33,89.5,184.39,89.54,188.5Z"/><polygon class="cls-8" points="53.76 173.91 94.21 182.31 87.55 191.66 53.51 178.88 53.76 173.91"/><polygon class="cls-8" points="132.43 174.37 94.21 182.31 100.3 191.66 133.32 179.38 132.43 174.37"/></g></g></g></svg>