<svg xmlns="http://www.w3.org/2000/svg" viewBox="0 0 255.34 77.67"><defs><style>.cls-1{fill:#fac645;}.cls-2{font-size:24px;font-family:Delius-Regular, Delius;}.cls-3{letter-spacing:-0.04em;}</style></defs><title>EJEMPLO 2ALEATORIO</title><g id="Capa_2" data-name="Capa 2"><g id="Capa_1-2" data-name="Capa 1"><path class="cls-1" d="M65.63.37C52.57-.38,38-.38,25.69,4.08,8,10-2,25.67.33,42.8,3.4,59.18,18,65.15,33.35,65.89c17.67,1.5,35.33-.73,53,.76,18.44.75,36.1,1.5,53.77,1.51,20,0,39.94,1.5,59.91,2.25,16.14.75,34.57.75,46.09-11.16,11.16-11.53,13.17-32.9.53-44.46C231.89,1.32,84.07.38,65.63.37Z"/><text class="cls-2" transform="translate(74.98 45.23)">EJEMP<tspan class="cls-3" x="74.69" y="0">L</tspan><tspan x="86.81" y="0">O</tspan></text></g></g></svg>