<svg xmlns="http://www.w3.org/2000/svg" viewBox="0 0 234.23 337.73"><defs><style>.cls-1{fill:#474964;}.cls-2{font-size:57.75px;fill:#fff;}.cls-2,.cls-5{font-family:Delius-Regular, Delius;}.cls-3{letter-spacing:-0.02em;}.cls-4{fill:none;stroke:#fff;stroke-miterlimit:10;stroke-width:4.65px;}.cls-5{font-size:226.87px;fill:#e06f68;}</style></defs><title>PASO 2_1ALEATORIO</title><g id="Capa_2" data-name="Capa 2"><g id="Capa_1-2" data-name="Capa 1"><path class="cls-1" d="M231.9,114.24c0,61.26-51.39,110.91-114.79,110.91S2.32,175.5,2.32,114.24,53.71,3.32,117.11,3.32,231.9,53,231.9,114.24"/><text class="cls-2" transform="translate(52.41 82.93) scale(1.03 1)"><tspan class="cls-3">P</tspan><tspan x="33.38" y="0">aso</tspan></text><path class="cls-4" d="M231.9,113.24c0,61.26-51.39,110.91-114.79,110.91S2.32,174.5,2.32,113.24,53.71,2.32,117.11,2.32,231.9,52,231.9,113.24Z"/><text class="cls-5" transform="translate(53.18 276.47) scale(1.03 1)">2</text><path class="cls-4" d="M83.24,262q2.1-5,8.21-11.79t16.44-17.25q10.33-10.42,14.68-15.31t13.85-14.86a185.26,185.26,0,0,0,16.79-20.19q9.15-13.38,9.16-28.36T150,126.74q-12.33-12.48-33-12.48T82.77,125.6Q69.15,137,69.15,145.8a7.12,7.12,0,0,0,2.23,5.33,7.65,7.65,0,0,0,5.52,2.15q6.1,0,13.85-12,3.06-4.53,9.75-8.28t17.37-3.75a27.91,27.91,0,0,1,19.14,7.6,24.47,24.47,0,0,1,8.45,18.95q0,7-4.93,15.2-2.58,4.31-4.7,7.6a75.15,75.15,0,0,1-6.22,8q-4.11,4.77-6,6.92t-6.34,6.81q-4.45,4.65-8.21,8.62T95.45,223.27q-9.87,10.33-14.09,14.86t-10.8,12.59Q64,258.77,64,267.17q0,10.44,11.73,10.44l40.15-1.14,44.62,1.14q11.73,0,11.74-8.4a7.27,7.27,0,0,0-3.29-5.89,13.55,13.55,0,0,0-8.45-2.5L115.87,262Z"/></g></g></svg>