<svg xmlns="http://www.w3.org/2000/svg" xmlns:xlink="http://www.w3.org/1999/xlink" viewBox="0 0 579.55 851.45"><defs><style>.cls-1,.cls-3{fill:none;}.cls-2{fill:#f4f4f4;opacity:0.92;}.cls-3{stroke:#fac645;stroke-linecap:round;stroke-width:5.64px;stroke-dasharray:17.62 17.62 17.62 17.62;}.cls-3,.cls-5{stroke-miterlimit:10;}.cls-4{font-size:35px;fill:#230821;font-family:Delius-Regular, Delius;}.cls-5{stroke:#230821;}.cls-6{letter-spacing:-0.03em;}.cls-7{letter-spacing:-0.03em;}.cls-8{letter-spacing:-0.01em;}.cls-9{fill:#ed736c;}.cls-10{clip-path:url(#clip-path);}.cls-11{fill:#1e9099;}.cls-12{fill:#1a9099;}.cls-13{fill:#188689;}.cls-14{fill:#fff;}.cls-15{fill:#f3b436;}.cls-16{fill:#dba756;opacity:0.4;}.cls-17{fill:#1a1a1a;}.cls-18{fill:#dff3fd;}.cls-19{fill:#e5a330;}.cls-20{fill:#ffc764;}.cls-21{fill:#138184;}.cls-22{fill:#3fc4c4;}</style><clipPath id="clip-path"><path class="cls-1" d="M465.66,185c0,104.19-75.3,215.21-179.49,215.21S113.89,297.36,113.89,193.17,182,15.25,286.17,15.25,465.66,80.83,465.66,185Z"/></clipPath></defs><title>PASO 2.AALEATORIO</title><g id="Capa_2" data-name="Capa 2"><g id="Capa_1-2" data-name="Capa 1"><rect class="cls-2" x="2.82" y="2.82" width="573.91" height="704.09" rx="12"/><rect class="cls-3" x="2.82" y="2.82" width="573.91" height="704.09" rx="12"/><text class="cls-4" transform="translate(227.55 464.63)"><tspan class="cls-5"><tspan class="cls-6">P</tspan><tspan x="20.02" y="0">ASO 2:</tspan></tspan><tspan x="-90.82" y="42">Escribir la p</tspan><tspan class="cls-7" x="91.49" y="42">r</tspan><tspan x="104.72" y="42">egu</tspan><tspan class="cls-8" x="163.55" y="42">n</tspan><tspan x="183.5" y="42">ta </tspan><tspan x="-12.92" y="84">p</tspan><tspan class="cls-8" x="7.04" y="84">r</tspan><tspan x="21" y="84">oblema</tspan></text><circle class="cls-9" cx="286.17" cy="253.97" r="146.26" transform="translate(-95.77 276.74) rotate(-45)"/><g class="cls-10"><path class="cls-11" d="M385.3,318.61c31.56,25.74,110,238.38,110,238.38s20.65,15.09,17.32,20.85c-2.57,4.44-12.18-6.24-12.18-6.24s8.44,15,5,18.26S493.85,576,493.85,576s3.63,18.17-.13,18.1-8.6-18.61-8.6-18.61-4.53,8.22-8.23,6.27c-4.23-2.22,5-19.74,5-19.74C439.37,427.22,370.74,330.17,370.74,330.17Z"/><path class="cls-11" d="M203.45,318.61C171.89,344.35,92,556.66,92,556.66s-19.17,15.42-15.84,21.18c2.56,4.44,12.17-6.24,12.17-6.24s-8.44,15-5,18.26S94.9,576,94.9,576s-3.63,18.17.13,18.1,8.6-18.61,8.6-18.61,4.53,8.22,8.23,6.27c4.23-2.22-5.12-19.55-5.12-19.55C149.3,427.42,218,330.17,218,330.17Z"/><path class="cls-12" d="M424.72,409h0l0,0q-3.63-6-7.71-11.67c-46-73.76-36.87-142.74-33.1-161.79.42-1.7.8-3.41,1.16-5.13v-.05h0a137.11,137.11,0,0,0,2.75-27.37c0-65.88-46.54-119.29-103.94-119.29S179.93,137,179.93,202.91a135.22,135.22,0,0,0,5.44,38.2h0q1,3.54,2.28,7c20,65.92-5.18,135.08-19.05,165.61q-4.35,7.76-8,16l0,.06h0A189.34,189.34,0,0,0,145,505.59c0,95.12,68.51,172.23,153,172.23s153-77.11,153-172.23C451.07,469.78,441.35,436.52,424.72,409Z"/><rect class="cls-12" x="246.72" y="652.44" width="15.01" height="190.31"/><rect class="cls-12" x="327.7" y="652.44" width="15.01" height="190.31"/><path class="cls-12" d="M246.72,837.82s-32.5,2.89-25.47,13.63h40.49V837.82Z"/><path class="cls-12" d="M342.72,837.82s32.5,2.89,25.47,13.63H327.7V837.82Z"/><path class="cls-13" d="M433.31,425.28s29.16,58.92,13.05,122.87-66.2,135.67-160.2,129.16C286.16,677.31,487.24,645.17,433.31,425.28Z"/><path class="cls-13" d="M246.72,667.9s5.05,3.25,15,5.05v8.75s-8.44,1.77-15-3.68Z"/><path class="cls-13" d="M342.72,670.36s-5.59,3.17-15,4.08v7.18s9.83,2,15-3.8Z"/><path class="cls-13" d="M369.37,119.9S365.65,155.12,240.06,153c0,0,33.74-13.82,33.74-22.29,0,0-18,12.59-46.67,15.58,0,0,16.8-17.59,16.05-24.17,0,0-39.23,1.2-52.16,32.69l4.16-33.91,41.36-13.67,24.63,4,103.74-3.42Z"/><circle class="cls-14" cx="250.58" cy="193.93" r="21.14"/><circle class="cls-15" cx="250.58" cy="193.93" r="14.68"/><path class="cls-16" d="M263.8,193.93a13.22,13.22,0,1,1-26.43,0c0-7.3,5.91,6.59,13.21,6.59S263.8,186.63,263.8,193.93Z"/><circle class="cls-17" cx="250.58" cy="193.93" r="10.7" transform="translate(4.26 393.25) rotate(-76.72)"/><circle class="cls-14" cx="255.53" cy="189.73" r="1.62"/><path class="cls-18" d="M236.54,180.32s-4.51,14.69-.9,24C227.52,189.64,232,182.47,236.54,180.32Z"/><circle class="cls-14" cx="323.64" cy="192.86" r="21.14" transform="translate(81.43 481.43) rotate(-80.78)"/><circle class="cls-15" cx="323.64" cy="192.86" r="14.68" transform="translate(21.61 418.06) rotate(-67.5)"/><path class="cls-16" d="M336.86,192.86a13.22,13.22,0,1,1-26.43,0c0-7.3,5.91,6.59,13.21,6.59S336.86,185.56,336.86,192.86Z"/><circle class="cls-17" cx="323.64" cy="192.86" r="10.7" transform="translate(81.43 481.43) rotate(-80.78)"/><path class="cls-14" d="M330.21,188.66a1.62,1.62,0,1,1-1.62-1.62A1.61,1.61,0,0,1,330.21,188.66Z"/><path class="cls-18" d="M337.14,180.06s4.87,12.18.9,22.57C345.26,189,343.63,182.92,337.14,180.06Z"/><path class="cls-15" d="M387.48,212.49c5.37-24.35,8.84-77.77,6.71-99.06-1.32-13.23-9.57-45.92-33.63-36.32.51-7.08-3-19.81-12-23,3,3.55,3,10.62,0,15.94-10-11.51-20.69-11.51-35.66-14.17-27.94-5.31-104.54-4-125.51,36.25-12,23.07-13.13,90.59-7.28,118.42,0,0,3.39-91.86,53.66-87.83,0,0-5.49,14.67-12.81,23.64,0,0,24.92-5,47-18.19-1.17,4.89-10.47,13.71-34.72,22.69,34.89-.43,96.13-7.37,119.08-24.2C377.63,127.93,387.48,212.49,387.48,212.49Z"/><path class="cls-19" d="M234.31,150.43l-1,.39c34.89-.43,96.14-7.36,119.08-24.19a15.74,15.74,0,0,1,9.45,4.15c-1.73-3.37-13.5-12.29-13.5-12.29C323.29,134.66,275.54,144.18,234.31,150.43Z"/><path class="cls-15" d="M221,146.33s24.92-5,47-18.19a12.67,12.67,0,0,1-3.47,5.39c4.07-2.26,7.05-5.5,7.05-11.37C257.68,132.74,222.24,144.79,221,146.33Z"/><path class="cls-15" d="M394.19,113.42c-1.32-13.23-9.57-45.92-33.63-36.32,0-.51.05-1,0-1.61-1,.53-1.61,1.15-.48,2.15,25.26,9.81,32.78,36.12,33.86,64.88C394.78,131.43,395,121.17,394.19,113.42Z"/><path class="cls-20" d="M348.31,69.78v-.06c-9.9-11.2-20.56-11.24-35.38-13.87C285,50.54,208.39,51.8,187.42,92.1c-3,5.8-5.27,13.7-6.87,22.71C205.66,62.63,279.27,50.56,348.31,69.78Z"/><path class="cls-21" d="M216.87,207.5a38.46,38.46,0,0,0,3.85,7.73,26.9,26.9,0,0,0,5.63,6.25,24.24,24.24,0,0,0,7.27,4.14,31.22,31.22,0,0,0,4.09,1.25,17.06,17.06,0,0,0,2.13.42q1.08.19,2.16.42c-.73.06-1.46.1-2.2.13l-1.12,0a5.89,5.89,0,0,1-1.11,0,22.19,22.19,0,0,1-4.42-.74,20.66,20.66,0,0,1-8.06-4.08,22.36,22.36,0,0,1-5.7-7A22,22,0,0,1,216.87,207.5Z"/><path class="cls-21" d="M351.44,207.15a19.67,19.67,0,0,1-1.58,7.6,19.37,19.37,0,0,1-4.39,6.6,18.16,18.16,0,0,1-3.2,2.44,17.88,17.88,0,0,1-3.69,1.57,17.38,17.38,0,0,1-7.78.35,30.5,30.5,0,0,0,7.27-1.82,19.23,19.23,0,0,0,6-4,24.55,24.55,0,0,0,4.38-5.83A41,41,0,0,0,351.44,207.15Z"/><path class="cls-21" d="M298.19,240.65c-11.8-12.43-8.06-13.62-9.62-19.58-1.62-6.2-4-3.46-4-3.46-11.17,17.67-1.93,30.64,1.79,34.76a8.45,8.45,0,0,0,1.36,1.38h0a8.39,8.39,0,1,0,10.46-13.11Z"/><polygon class="cls-13" points="295.4 337.83 304.26 361.57 385.3 323.29 384.22 312.99 295.4 337.83"/><polygon class="cls-13" points="287.82 337.27 277.79 361.57 194.07 322.76 194.58 314.1 287.82 337.27"/><path class="cls-21" d="M246.37,271.88c4.84,2.21,9.57,4.33,14.34,6.3s9.57,3.75,14.41,5.34a136.26,136.26,0,0,0,14.77,4c1.26.24,2.51.5,3.77.78l3.82.59,1.93.34c.65.07,1.29.12,1.94.2,1.3.15,2.61.31,3.94.54-1.28.33-2.59.59-3.9.84-.66.14-1.32.24-2,.36l-2,.17c-1.34.09-2.68.19-4,.22s-2.68-.09-4-.16a63.9,63.9,0,0,1-15.78-3.12A74.75,74.75,0,0,1,259,281.67,57.48,57.48,0,0,1,246.37,271.88Z"/><path class="cls-17" d="M260.12,166.29a35.48,35.48,0,0,0-23.34,4.82,2.42,2.42,0,0,1-3.15-.31h0a2.29,2.29,0,0,1,.79-3.16,41,41,0,0,1,26.28-8.16c4.37.15,7.77,2.79,7.11,4.78h0C267.15,166.25,263.61,166.75,260.12,166.29Z"/><path class="cls-17" d="M314.1,165.22A35.51,35.51,0,0,1,337.45,170a2.41,2.41,0,0,0,3.14-.31h0a2.29,2.29,0,0,0-.78-3.16,41,41,0,0,0-26.29-8.16c-4.37.15-7.77,2.79-7.1,4.78h0C307.07,165.18,310.62,165.68,314.1,165.22Z"/><path class="cls-21" d="M268.73,157.31s5.2,7.42-.74,9.65C275.66,167.2,272.94,159.53,268.73,157.31Z"/><path class="cls-22" d="M197.82,171.36l6.49-16.51,6.49,16.51a7,7,0,1,1-13,0Z"/><path class="cls-22" d="M211.52,160.9,214.6,153l3.09,7.86a3.31,3.31,0,1,1-6.17,2.42A3.26,3.26,0,0,1,211.52,160.9Z"/><path class="cls-15" d="M277.61,472.65c1.57-13.35,3-26.72,4.57-40.07a645.1,645.1,0,0,0,4.46-82.84c-1.29-.79-.6-3.62,1.07-3.37a51.86,51.86,0,0,0,6.2.53,1.2,1.2,0,0,1,1,.62.49.49,0,0,1,.66.43c4.89,26.38,11.64,54.28,16.11,80.8,4.3,25.5,5.9,49.94,9.74,75.57-2.73,6.71-4.56,11-7.53,15.54-3.71,5.65-7.81,11.58-12.71,15.82A202.82,202.82,0,0,0,286.83,511c-3.79-5.6-8.16-10.56-12.19-15.84C274.82,487.56,276.84,479.27,277.61,472.65Z"/><path class="cls-15" d="M280.57,340.43c.09,10.6,3.31,21.59,12.47,19.8,6.54-1.28,9.88-16.45,7-25.59-1.58-5-4.77-7.63-8.11-8.14C286.41,325.66,280.48,330.59,280.57,340.43Z"/><polygon class="cls-14" points="195.01 305.51 291.74 325.62 275.83 347.98 194.4 317.41 195.01 305.51"/><polygon class="cls-14" points="383.16 306.62 291.74 325.62 306.31 347.98 385.3 318.61 383.16 306.62"/></g></g></g></svg>