<svg xmlns="http://www.w3.org/2000/svg" viewBox="0 0 535.95 369.7"><defs><style>.cls-1{font-size:40px;fill:#fac645;font-family:Delius-Regular, Delius;}.cls-2{stroke:#fac645;stroke-miterlimit:10;}.cls-3{letter-spacing:-0.03em;}.cls-4{font-size:30px;fill:#fff;}.cls-5{letter-spacing:-0.01em;}.cls-6{letter-spacing:-0.01em;}.cls-7{letter-spacing:-0.01em;}.cls-8{letter-spacing:-0.01em;}.cls-9{letter-spacing:-0.02em;}.cls-10{letter-spacing:0em;}.cls-11{letter-spacing:0em;}.cls-12{letter-spacing:-0.03em;}.cls-13{letter-spacing:-0.01em;}.cls-14{letter-spacing:0em;}.cls-15{letter-spacing:-0.03em;}</style></defs><title>TEXTO_6ALEATORIO</title><g id="Capa_2" data-name="Capa 2"><g id="Capa_1-2" data-name="Capa 1"><text class="cls-1" transform="translate(196.76 31.6)"><tspan class="cls-2"><tspan class="cls-3">P</tspan><tspan x="22.88" y="0">ASO 2:</tspan></tspan><tspan class="cls-4"><tspan x="-166.1" y="78">¡Llegó el mome</tspan><tspan class="cls-5" x="36.12" y="78">n</tspan><tspan x="53.22" y="78">to más importa</tspan><tspan class="cls-5" x="258.03" y="78">n</tspan><tspan class="cls-6" x="275.13" y="78">t</tspan><tspan x="284.91" y="78">e! </tspan><tspan x="-189.82" y="150">Debes si</tspan><tspan class="cls-5" x="-78.49" y="150">n</tspan><tspan class="cls-6" x="-61.39" y="150">t</tspan><tspan x="-51.61" y="150">eti</tspan><tspan class="cls-7" x="-18.61" y="150">z</tspan><tspan x="-4.48" y="150">ar la lista </tspan><tspan class="cls-8" x="124.49" y="150">d</tspan><tspan x="141.97" y="150">e ne</tspan><tspan class="cls-9" x="198.82" y="150">c</tspan><tspan x="213.55" y="150">esid</tspan><tspan class="cls-10" x="267.73" y="150">a</tspan><tspan class="cls-11" x="284.74" y="150">d</tspan><tspan x="302.23" y="150">es </tspan><tspan x="-111.49" y="186">en una p</tspan><tspan class="cls-12" x="5.45" y="186">r</tspan><tspan x="16.79" y="186">egu</tspan><tspan class="cls-5" x="67.22" y="186">n</tspan><tspan x="84.32" y="186">ta p</tspan><tspan class="cls-5" x="135.8" y="186">r</tspan><tspan x="147.77" y="186">oblema.</tspan><tspan x="-168.02" y="258">Esta p</tspan><tspan class="cls-12" x="-85.25" y="258">r</tspan><tspan x="-73.92" y="258">egu</tspan><tspan class="cls-5" x="-23.49" y="258">n</tspan><tspan x="-6.39" y="258">ta p</tspan><tspan class="cls-5" x="45.09" y="258">r</tspan><tspan x="57.06" y="258">oblema </tspan><tspan class="cls-11" x="163.95" y="258">d</tspan><tspan x="181.44" y="258">ebe ser lo </tspan><tspan x="-160.46" y="294">más cla</tspan><tspan class="cls-13" x="-57.11" y="294">r</tspan><tspan class="cls-14" x="-45.2" y="294">a y b</tspan><tspan class="cls-15" x="19.8" y="294">r</tspan><tspan x="31.14" y="294">eve posible sob</tspan><tspan class="cls-12" x="233.16" y="294">r</tspan><tspan x="244.5" y="294">e un </tspan><tspan class="cls-13" x="-36.98" y="330">t</tspan><tspan x="-27.2" y="330">ema específi</tspan><tspan class="cls-5" x="141.15" y="330">c</tspan><tspan x="156.15" y="330">o.</tspan></tspan></text></g></g></svg>