<svg xmlns="http://www.w3.org/2000/svg" xmlns:xlink="http://www.w3.org/1999/xlink" viewBox="0 0 186.77 402.16"><defs><style>.cls-1{fill:none;}.cls-2{fill:#f4f4f4;opacity:0.92;}.cls-3{fill:#ed736c;}.cls-4{clip-path:url(#clip-path);}.cls-5{fill:#1e9099;}.cls-6{fill:#1a9099;}.cls-7{fill:#188689;}.cls-8{fill:#fff;}.cls-9{fill:#f3b436;}.cls-10{fill:#dba756;opacity:0.4;}.cls-11{fill:#1a1a1a;}.cls-12{fill:#dff3fd;}.cls-13{fill:#e5a330;}.cls-14{fill:#ffc764;}.cls-15{fill:#138184;}.cls-16{fill:#3fc4c4;}</style><clipPath id="clip-path"><path class="cls-1" d="M166,123.53c0,43.56-31.49,90-75.05,90s-72-43-72-86.56S47.41,52.55,91,52.55,166,80,166,123.53Z"/></clipPath></defs><title>CARTA_1ALEATORIO</title><g id="Capa_2" data-name="Capa 2"><g id="Capa_1-2" data-name="Capa 1"><rect class="cls-2" width="186.77" height="266.05" rx="12"/><circle class="cls-3" cx="90.97" cy="152.35" r="61.15"/><g class="cls-4"><path class="cls-5" d="M132.42,179.38c13.19,10.76,46,99.66,46,99.66s8.64,6.32,7.24,8.72c-1.07,1.86-5.09-2.61-5.09-2.61s3.53,6.26,2.11,7.64-4.85-5.8-4.85-5.8,1.52,7.59-.05,7.56-3.6-7.78-3.6-7.78-1.9,3.44-3.44,2.62c-1.77-.92,2.11-8.25,2.11-8.25-17.8-56.35-46.49-96.93-46.49-96.93Z"/><path class="cls-5" d="M56.38,179.38C43.19,190.14,9.79,278.91,9.79,278.91s-8,6.45-6.62,8.85c1.07,1.86,5.09-2.61,5.09-2.61s-3.53,6.26-2.11,7.64S11,287,11,287s-1.52,7.59.06,7.56,3.59-7.78,3.59-7.78,1.9,3.44,3.44,2.62c1.77-.92-2.14-8.17-2.14-8.17,17.79-56.35,46.52-97,46.52-97Z"/><path class="cls-6" d="M148.9,217.16h0c-1-1.68-2.09-3.31-3.23-4.88-19.22-30.84-15.41-59.68-13.83-67.65.17-.7.33-1.42.48-2.14v0h0A56.47,56.47,0,0,0,133.46,131c0-27.55-19.45-49.88-43.45-49.88S46.55,103.46,46.55,131a56.45,56.45,0,0,0,2.28,16h0c.29,1,.61,2,1,2.91,8.35,27.56-2.17,56.48-8,69.24a73.53,73.53,0,0,0-3.34,6.71v0h0A79.19,79.19,0,0,0,32,257.56c0,39.77,28.65,72,64,72s64-32.23,64-72A78.12,78.12,0,0,0,148.9,217.16Z"/><rect class="cls-6" x="74.48" y="318.95" width="6.28" height="79.57"/><rect class="cls-6" x="108.34" y="318.95" width="6.28" height="79.57"/><path class="cls-6" d="M74.48,396.46s-13.59,1.21-10.65,5.7H80.76v-5.7Z"/><path class="cls-6" d="M114.61,396.46s13.59,1.21,10.65,5.7H108.34v-5.7Z"/><path class="cls-7" d="M152.49,224s12.19,24.63,5.45,51.37-27.67,56.72-67,54C91,329.35,175,315.91,152.49,224Z"/><path class="cls-7" d="M74.48,325.42a18.55,18.55,0,0,0,6.28,2.11v3.66a8.08,8.08,0,0,1-6.28-1.54Z"/><path class="cls-7" d="M114.61,326.45a17.15,17.15,0,0,1-6.27,1.7v3s4.1.83,6.27-1.59Z"/><path class="cls-7" d="M125.75,96.3S124.2,111,71.69,110.16c0,0,14.11-5.78,14.11-9.32a44.79,44.79,0,0,1-19.51,6.51s7-7.36,6.71-10.1c0,0-16.41.5-21.81,13.66l1.74-14.17L70.22,91l10.3,1.68,43.37-1.43Z"/><circle class="cls-8" cx="76.09" cy="127.25" r="8.84"/><circle class="cls-9" cx="76.09" cy="127.25" r="6.14"/><path class="cls-10" d="M81.62,127.25a5.53,5.53,0,0,1-11.06,0c0-3,2.48,2.76,5.53,2.76S81.62,124.2,81.62,127.25Z"/><path class="cls-11" d="M80.57,127.25a4.48,4.48,0,1,1-4.48-4.47A4.48,4.48,0,0,1,80.57,127.25Z"/><path class="cls-8" d="M78.84,125.49a.68.68,0,1,1-.68-.67A.68.68,0,0,1,78.84,125.49Z"/><path class="cls-12" d="M70.22,121.56s-1.88,6.14-.38,10C66.45,125.46,68.34,122.46,70.22,121.56Z"/><circle class="cls-8" cx="106.64" cy="126.81" r="8.84"/><path class="cls-9" d="M112.78,126.81a6.14,6.14,0,1,1-6.14-6.14A6.14,6.14,0,0,1,112.78,126.81Z"/><path class="cls-10" d="M112.16,126.81a5.53,5.53,0,0,1-11,0c0-3.06,2.48,2.75,5.53,2.75S112.16,123.75,112.16,126.81Z"/><path class="cls-11" d="M111.11,126.81a4.48,4.48,0,1,1-4.47-4.48A4.47,4.47,0,0,1,111.11,126.81Z"/><path class="cls-8" d="M109.38,125.05a.68.68,0,1,1-.67-.68A.67.67,0,0,1,109.38,125.05Z"/><path class="cls-12" d="M112.28,121.45s2,5.1.38,9.44C115.67,125.2,115,122.65,112.28,121.45Z"/><path class="cls-9" d="M133.33,135c2.24-10.18,3.69-32.51,2.8-41.41-.55-5.54-4-19.2-14.06-15.19.22-3-1.25-8.28-5-9.62,1.25,1.48,1.25,4.44,0,6.66-4.18-4.81-8.65-4.81-14.91-5.93-11.68-2.21-43.71-1.69-52.48,15.16-5,9.65-5.49,37.88-3,49.51,0,0,1.42-38.41,22.44-36.72,0,0-2.3,6.14-5.36,9.89a70.55,70.55,0,0,0,19.66-7.61c-.49,2-4.38,5.73-14.52,9.48,14.59-.17,40.19-3.07,49.79-10.11C129.21,99.66,133.33,135,133.33,135Z"/><path class="cls-13" d="M69.29,109.06l-.43.17c14.59-.18,40.19-3.08,49.79-10.11a6.54,6.54,0,0,1,3.94,1.73c-.72-1.41-5.64-5.14-5.64-5.14C106.49,102.47,86.53,106.45,69.29,109.06Z"/><path class="cls-9" d="M63.72,107.35a70.59,70.59,0,0,0,19.65-7.6A5.18,5.18,0,0,1,81.92,102a5.06,5.06,0,0,0,3-4.75C79.06,101.67,64.24,106.71,63.72,107.35Z"/><path class="cls-9" d="M136.13,93.59c-.55-5.53-4-19.2-14.06-15.19,0-.21,0-.43,0-.67-.42.22-.68.48-.2.9,10.56,4.1,13.7,15.1,14.15,27.13A74.41,74.41,0,0,0,136.13,93.59Z"/><path class="cls-14" d="M117,75.35v0c-4.14-4.68-8.59-4.7-14.79-5.8C90.48,67.3,58.45,67.83,49.68,84.68a34.23,34.23,0,0,0-2.87,9.49C57.31,72.36,88.08,67.31,117,75.35Z"/><path class="cls-15" d="M62,132.93a16,16,0,0,0,1.61,3.23A11,11,0,0,0,66,138.77a10.16,10.16,0,0,0,3,1.73,13.59,13.59,0,0,0,1.71.53,8.74,8.74,0,0,0,.89.17l.9.18-.92.05-.46,0a3.62,3.62,0,0,1-.47,0,9.06,9.06,0,0,1-1.85-.31,8.55,8.55,0,0,1-3.37-1.71,9.44,9.44,0,0,1-2.38-2.92A9.09,9.09,0,0,1,62,132.93Z"/><path class="cls-15" d="M118.26,132.78a8.38,8.38,0,0,1-.66,3.18,8.2,8.2,0,0,1-1.84,2.76,7.82,7.82,0,0,1-1.33,1,7.49,7.49,0,0,1-1.55.65,7.16,7.16,0,0,1-3.25.15,13,13,0,0,0,3-.76,8.06,8.06,0,0,0,2.52-1.66,10.32,10.32,0,0,0,1.83-2.44A17.45,17.45,0,0,0,118.26,132.78Z"/><path class="cls-15" d="M96,146.79c-4.94-5.2-3.38-5.7-4-8.19s-1.67-1.45-1.67-1.45c-4.67,7.39-.81,12.81.74,14.53a3.48,3.48,0,0,0,.57.58h0A3.51,3.51,0,1,0,96,146.79Z"/><polygon class="cls-7" points="94.83 187.42 98.53 197.34 132.42 181.34 131.96 177.03 94.83 187.42"/><polygon class="cls-7" points="91.66 187.18 87.47 197.34 52.46 181.12 52.68 177.49 91.66 187.18"/><path class="cls-15" d="M74.33,159.84c2,.93,4,1.81,6,2.64s4,1.57,6,2.23a56.85,56.85,0,0,0,6.18,1.66l1.57.32,1.6.25.81.15c.27,0,.54,0,.81.08.54.06,1.09.13,1.65.22-.54.14-1.09.25-1.64.36l-.83.14-.83.07c-.56,0-1.12.08-1.68.1L92.3,168a26.46,26.46,0,0,1-6.59-1.3,31.11,31.11,0,0,1-6.11-2.75A24.15,24.15,0,0,1,74.33,159.84Z"/><path class="cls-11" d="M80.08,115.7a14.86,14.86,0,0,0-9.76,2,1,1,0,0,1-1.32-.13h0a1,1,0,0,1,.33-1.32,17.12,17.12,0,0,1,11-3.41c1.83.06,3.25,1.17,3,2h0C83,115.68,81.54,115.89,80.08,115.7Z"/><path class="cls-11" d="M102.65,115.25a14.86,14.86,0,0,1,9.76,2,1,1,0,0,0,1.31-.12h0a1,1,0,0,0-.32-1.33,17.22,17.22,0,0,0-11-3.41c-1.83.06-3.25,1.17-3,2h0C99.71,115.23,101.19,115.44,102.65,115.25Z"/><path class="cls-15" d="M83.68,111.94s2.17,3.1-.31,4C86.58,116.08,85.44,112.87,83.68,111.94Z"/><path class="cls-16" d="M54,117.82l2.71-6.91,2.72,6.91a2.92,2.92,0,1,1-5.43,0Z"/><path class="cls-16" d="M59.76,113.44l1.29-3.28,1.29,3.28a1.39,1.39,0,0,1-2.58,1A1.33,1.33,0,0,1,59.76,113.44Z"/><path class="cls-9" d="M87.39,243.78c.66-5.58,1.26-11.17,1.91-16.75a266.88,266.88,0,0,0,1.86-34.63c-.53-.33-.24-1.52.45-1.42a20.58,20.58,0,0,0,2.6.23.49.49,0,0,1,.42.26.2.2,0,0,1,.27.18c2,11,4.87,22.69,6.74,33.78,1.8,10.66,2.47,20.88,4.07,31.59a35.62,35.62,0,0,1-3.14,6.5,32.13,32.13,0,0,1-5.32,6.62,83.82,83.82,0,0,0-6-10.32c-1.58-2.34-3.41-4.41-5.09-6.62C86.22,250,87.07,246.55,87.39,243.78Z"/><path class="cls-9" d="M88.63,188.5c0,4.43,1.38,9,5.21,8.28,2.74-.53,4.13-6.88,2.92-10.7-.66-2.08-2-3.19-3.39-3.4C91.07,182.33,88.59,184.39,88.63,188.5Z"/><polygon class="cls-8" points="52.86 173.91 93.3 182.31 86.65 191.66 52.6 178.88 52.86 173.91"/><polygon class="cls-8" points="131.52 174.37 93.3 182.31 99.39 191.66 132.42 179.38 131.52 174.37"/></g></g></g></svg>