<svg xmlns="http://www.w3.org/2000/svg" viewBox="0 0 255.34 70.68"><defs><style>.cls-1{fill:#fac645;}.cls-2{font-size:24px;font-family:Delius-Regular, Delius;}.cls-3{letter-spacing:-0.01em;}.cls-4{letter-spacing:-0.04em;}.cls-5{letter-spacing:0em;}</style></defs><title>PREGUNTAALEATORIO</title><g id="Capa_2" data-name="Capa 2"><g id="Capa_1-2" data-name="Capa 1"><path class="cls-1" d="M65.63.37C52.57-.38,38-.38,25.69,4.08,8,10-2,25.67.33,42.8,3.4,59.18,18,65.15,33.35,65.89c17.67,1.5,35.33-.73,53,.76,18.44.75,36.1,1.5,53.77,1.51,20,0,39.94,1.5,59.91,2.25,16.14.75,34.57.75,46.09-11.16,11.16-11.53,13.17-32.9.53-44.46C231.89,1.32,84.07.38,65.63.37Z"/><text class="cls-2" transform="translate(67.32 45.23)">PR<tspan class="cls-3" x="29.69" y="0">E</tspan><tspan x="43.44" y="0">GUN</tspan><tspan class="cls-4" x="93.74" y="0">T</tspan><tspan class="cls-5" x="105.29" y="0">A</tspan></text></g></g></svg>