<svg xmlns="http://www.w3.org/2000/svg" viewBox="0 0 447.73 713.81"><defs><style>.cls-1{fill:#e8e8e8;}.cls-2{fill:#fac645;}.cls-3,.cls-6{fill:#e0a93b;}.cls-4{fill:#e5af38;}.cls-5{fill:#dda637;}.cls-10,.cls-6{fill-rule:evenodd;}.cls-10,.cls-7{fill:#1a9099;}.cls-8{fill:#1a1a1a;}.cls-9{fill:#21a0a3;}.cls-11{fill:#c68f2c;}.cls-12{fill:#fff;}.cls-13{fill:#3abfbf;}.cls-14{fill:#dff3fd;}.cls-15{fill:#eab53d;opacity:0.5;}</style></defs><title>CARMELALEATORIO</title><g id="Capa_2" data-name="Capa 2"><g id="Capa_1-2" data-name="Capa 1"><ellipse class="cls-1" cx="227.42" cy="677.9" rx="182.88" ry="35.91"/><path class="cls-2" d="M396.73,265.41C419.57,295,436.12,473,436.12,473s15.42,18.11,10.72,21c-3.62,2.19-9.81-8.81-9.81-8.81s3.92,13.58-.18,14.67-7.2-14-7.2-14-1.49,14.1-5,12.68-3.09-16.21-3.09-16.21-6.51,4.13-9.47,1.42c-3.4-3.09,10.1-12.05,10.1-12.05-3.75-110.22-42.33-203.39-42.33-203.39Z"/><path class="cls-2" d="M56,266.14C32.54,295.2,10.61,473.05,10.61,473.05S-3.71,490.55.92,493.49c3.58,2.27,10-8.6,10-8.6s-4.23,13.5-.15,14.68,7.51-13.82,7.51-13.82,1.18,14.13,4.74,12.79,3.45-16.14,3.45-16.14,6.41,4.27,9.43,1.63c3.46-3-9.86-12.1-9.86-12.1C32.2,361.82,72.84,269.34,72.84,269.34Z"/><path class="cls-2" d="M411.66,328.72h0c-4.46-37.59-25-130.69-32.26-163q-1.17-5.66-2.53-11.18l0-.08h0C355,65.61,296.34,2,227.42,2,160.91,2,104,61.26,80.4,145.28,68.5,183,51.06,282.84,45.62,314.82a153.34,153.34,0,0,0-3.7,33.5c0,92.8,83.05,168,185.5,168s185.5-75.23,185.5-168A154.86,154.86,0,0,0,411.66,328.72Z"/><path class="cls-3" d="M127.68,53.06s17.67,29.2,48.85,35.38c0,0-10.14-20.73-5.12-28.26,0,0,4.52,24.25,50.51,39.47L218.74,84.6s2.84,10.31,19.23,20.62l-9.36-26.08,16.55,23.94s40.31-15.55,59.37-41.39c0,0,5.52,15.72,2.68,19.73,0,0,15.36-7.48,17.88-30.75l-9.52-10.56L291.7,54.84,251.18,83.76,231,64.86,168.07,47.3l-33.28-2.17Z"/><rect class="cls-2" x="179.25" y="485.01" width="15.07" height="191"/><rect class="cls-2" x="260.53" y="485.01" width="15.07" height="191"/><path class="cls-2" d="M179.25,671.06s-32.62,2.9-25.57,13.69h40.64V671.06Z"/><path class="cls-2" d="M275.59,671.06s32.62,2.9,25.57,13.69H260.53V671.06Z"/><path class="cls-4" d="M179.25,506.53s5.06,3.26,15.07,5.06v8.79s-8.47,1.78-15.07-3.69Z"/><path class="cls-4" d="M275.59,509s-5.61,3.18-15.06,4.09v7.21s9.86,2,15.06-3.81Z"/><path class="cls-5" d="M238.07,188.54c-11.13-11.71-7.61-12.83-9.08-18.45-1.52-5.84-3.77-3.26-3.77-3.26-10.52,16.65-1.82,28.87,1.68,32.75a8,8,0,0,0,1.29,1.31h0a7.91,7.91,0,0,0,9.87-12.36Z"/><path class="cls-6" d="M164.21,216.85c.65,47,52,28.58,63.74,23.94,11.74,4.64,63.09,23,63.75-23.94-17.43,28.82-35.82-6.42-63.75,3.59C200,210.43,181.63,245.67,164.21,216.85Z"/><path class="cls-7" d="M325.06,32H319S330.05,0,230.13,0s-83.21,19.74-83.21,19.74-12.15-4.83-15.69,7.89C128,39.38,136.32,50.36,137.63,52l-.37.17s16,17.6,32.23,25.5c0,0-4.7-7.63-.58-15.66,0,0,28.74,27.06,53,35.27l-1.12-9.08,17.71,14.91-6.78-18.76L245.6,97.38S275.46,84,299.75,60.75c4.26,6.8,4.35,19.08,4.35,19.08C320,68,325.57,41.23,325.06,32Z"/><path class="cls-8" d="M168.46,116.21a46.9,46.9,0,0,0-26.79,16.52,3.19,3.19,0,0,1-4,1h0c-1.23-.75-1.51-2.66-.46-4.28a54.23,54.23,0,0,1,28.94-22c5.49-1.79,10.9,0,11,2.72h0C177.17,113,173,115.21,168.46,116.21Z"/><path class="cls-5" d="M141.23,140.74s14.82-19.61,35.3-20.48C164.33,112.42,146.89,130.28,141.23,140.74Z"/><path class="cls-5" d="M132.51,128.54S146,109.8,153.43,109.37C140.79,103.7,132.51,128.54,132.51,128.54Z"/><path class="cls-8" d="M286.38,112.9a46.83,46.83,0,0,1,26.79,16.53,3.22,3.22,0,0,0,4.05,1h0c1.23-.76,1.51-2.67.45-4.29a54.26,54.26,0,0,0-28.93-22c-5.49-1.78-10.91,0-11,2.73h0C277.68,109.68,281.85,111.9,286.38,112.9Z"/><path class="cls-5" d="M313.62,137.44S298.8,117.83,278.32,117C290.52,109.11,308,127,313.62,137.44Z"/><path class="cls-5" d="M322.33,125.24s-13.51-18.74-20.92-19.18C314.05,100.4,322.33,125.24,322.33,125.24Z"/><path class="cls-9" d="M172.9,34.94s0,27.82,38.16,39.79C211.06,74.73,176.14,45.39,172.9,34.94Z"/><path class="cls-9" d="M291.7,27.83s-3.17,26.52-44.56,47.42C247.14,75.25,273.56,54.76,291.7,27.83Z"/><path class="cls-10" d="M164.21,214.67c.65,47,52,28.58,63.74,23.94,11.74,4.64,63.09,23,63.75-23.94-17.43,28.82-35.82-6.42-63.75,3.6C200,208.25,181.63,243.49,164.21,214.67Z"/><path class="cls-5" d="M312.23,175.33a31.07,31.07,0,0,1-3.4,9.11,27.12,27.12,0,0,1-6.23,7.66,17.83,17.83,0,0,1-9.13,4,19,19,0,0,1-2.5.12,20.3,20.3,0,0,1-2.47-.29,18.94,18.94,0,0,1-4.64-1.5,23.83,23.83,0,0,0,9.36.13,16.61,16.61,0,0,0,4.29-1.52,19.89,19.89,0,0,0,3.82-2.49,33.34,33.34,0,0,0,6.18-6.93A64,64,0,0,0,312.23,175.33Z"/><path class="cls-5" d="M141.27,175a30.46,30.46,0,0,0,3.4,9.1,27,27,0,0,0,6.23,7.66,17.68,17.68,0,0,0,9.13,4,16.11,16.11,0,0,0,2.5.12,19.9,19.9,0,0,0,2.46-.28,18.82,18.82,0,0,0,4.64-1.51,23.59,23.59,0,0,1-9.35.13,16.79,16.79,0,0,1-4.3-1.51,20.25,20.25,0,0,1-3.82-2.5,33,33,0,0,1-6.17-6.93A62.69,62.69,0,0,1,141.27,175Z"/><path class="cls-11" d="M196.77,250.63a119.07,119.07,0,0,0,15.52,4.7,80,80,0,0,0,15.61,2c.65,0,1.3,0,1.95,0s1.3,0,2-.05,1.3,0,1.95-.09l1.94-.16a65.54,65.54,0,0,0,7.73-1.27,82.76,82.76,0,0,0,15.21-5.33,39.29,39.29,0,0,1-14.06,9.09,44,44,0,0,1-8.25,2.21,47,47,0,0,1-8.54.57,51.21,51.21,0,0,1-16.62-3.27A45.39,45.39,0,0,1,196.77,250.63Z"/><circle class="cls-12" cx="178.12" cy="158.25" r="28.65"/><circle class="cls-7" cx="178.12" cy="158.25" r="19.89" transform="translate(-16.82 295.25) rotate(-76.72)"/><path class="cls-13" d="M196,158.25a17.9,17.9,0,1,1-35.8,0c0-9.89,8,8.92,17.9,8.92S196,148.36,196,158.25Z"/><circle class="cls-8" cx="178.12" cy="158.25" r="14.5" transform="translate(-17.22 294.68) rotate(-76.55)"/><circle class="cls-12" cx="184.83" cy="152.55" r="2.19"/><path class="cls-14" d="M159.1,139.81s-6.11,19.9-1.22,32.52C146.88,152.43,153,142.72,159.1,139.81Z"/><circle class="cls-12" cx="185.18" cy="160.18" r="3.69"/><path class="cls-12" d="M181.76,150.7a4.43,4.43,0,1,1-4.43-4.43A4.43,4.43,0,0,1,181.76,150.7Z"/><circle class="cls-12" cx="277.1" cy="156.8" r="28.65"/><circle class="cls-7" cx="277.1" cy="156.8" r="19.89" transform="translate(-39.56 123.67) rotate(-23.53)"/><path class="cls-13" d="M295,156.8a17.91,17.91,0,1,1-35.81,0c0-9.88,8,8.92,17.9,8.92S295,146.92,295,156.8Z"/><circle class="cls-8" cx="277.1" cy="156.8" r="14.5" transform="translate(78.88 405.96) rotate(-81)"/><circle class="cls-12" cx="283.81" cy="151.1" r="2.19"/><path class="cls-14" d="M295.39,139.45S302,156,296.61,170C306.38,151.59,304.19,143.34,295.39,139.45Z"/><circle class="cls-12" cx="283.93" cy="158.4" r="3.69"/><path class="cls-12" d="M280.52,148.93a4.43,4.43,0,1,1-4.43-4.44A4.43,4.43,0,0,1,280.52,148.93Z"/><path class="cls-15" d="M408.29,306.19s34.81,107.69-76.21,180.87c0,0-80.44,55.67-180.28,14.73,0,0-39.94-15.76-67.15-46.19C84.65,455.6,376.41,595.84,408.29,306.19Z"/><polygon class="cls-3" points="226.81 293.69 241.07 329.77 400.42 265.84 398.87 256.42 226.81 293.69"/><polygon class="cls-3" points="228.19 294.12 214.5 329.77 54.43 264.91 56 256.42 228.19 294.12"/><path class="cls-7" d="M243.45,402.89c-1.85-9.78-3.54-19.58-5.38-29.36a294.69,294.69,0,0,1-5.26-60.71c1.51-.58.7-2.66-1.27-2.48-2.45.23-4.86.36-7.32.4a1.67,1.67,0,0,0-1.19.45c-.32-.07-.68,0-.77.32-5.78,19.33-13.74,39.78-19,59.21-5.08,18.69-7,36.6-11.49,55.38,3.23,4.92,5.38,8.09,8.88,11.39,4.39,4.15,9.22,8.49,15,11.6A152.87,152.87,0,0,1,232.58,431c4.47-4.11,9.63-7.74,14.37-11.61C246.74,413.82,244.36,407.74,243.45,402.89Z"/><path class="cls-7" d="M226.59,295.78c-4,.38-7.71,2.32-9.58,6-3.41,6.7.52,17.82,8.24,18.75,10.81,1.32,14.6-6.74,14.71-14.51C240.06,298.78,233.07,295.17,226.59,295.78Z"/><path class="cls-2" d="M222.53,330.1l.08-.33.08-.24a1.36,1.36,0,0,1,.22-.39,2.08,2.08,0,0,1,.7-.62,2.13,2.13,0,0,1,1.11-.28,1.35,1.35,0,0,1,.29,0s0,0,.07,0l.3.08.24.08a1.47,1.47,0,0,1,.28.14,2.2,2.2,0,0,1,.67.69,2,2,0,0,1,.27.69,2.79,2.79,0,0,1,.4-.37,2.39,2.39,0,0,1,.85-.37,1.73,1.73,0,0,1,.68,0,.5.5,0,0,0,.13,0l.3.07.24.08a1.5,1.5,0,0,1,.44.26,2.06,2.06,0,0,1,.56.65,2.11,2.11,0,0,1,.29,1.12,2.54,2.54,0,0,1,0,.29.07.07,0,0,0,0,.06l-.08.33a.9.9,0,0,0-.08.23,2,2,0,0,1-.36.66,3.64,3.64,0,0,1-.86.8c-.19.13-.38.25-.58.36s-.44.25-.66.36l-.66.35c-.3.16-.6.33-.89.51a9,9,0,0,0-1.12.83s-.07.07-.12.07h0l-.06-.09a9.67,9.67,0,0,0-.56-1.17c-.18-.31-.37-.6-.57-.89s-.48-.69-.71-1a7.73,7.73,0,0,1-.62-1.08,3.32,3.32,0,0,1-.29-1.42,2.63,2.63,0,0,1,.06-.39A.36.36,0,0,0,222.53,330.1Z"/><path class="cls-2" d="M215,346.07l-.09-.4c0-.1,0-.19,0-.29a1.89,1.89,0,0,1,0-.53,2.59,2.59,0,0,1,.41-1,2.66,2.66,0,0,1,1-.88,1.8,1.8,0,0,1,.33-.1s.05,0,.07,0l.36-.08.29,0a2.41,2.41,0,0,1,.38,0,2.58,2.58,0,0,1,1.7,1,1.91,1.91,0,0,1,.23-.6,2.4,2.4,0,0,1,.7-.82,1.73,1.73,0,0,1,.7-.36.88.88,0,0,0,.15-.05l.35-.07.3,0a1.74,1.74,0,0,1,.6,0,2.44,2.44,0,0,1,.92.4,2.38,2.38,0,0,1,.88,1,1.83,1.83,0,0,1,.11.33.1.1,0,0,0,0,.07l.08.38c0,.09,0,.19,0,.28a2.6,2.6,0,0,1,0,.88,4.32,4.32,0,0,1-.5,1.29,7.57,7.57,0,0,1-.42.67l-.51.73c-.18.23-.34.47-.52.7s-.45.65-.67,1a10.06,10.06,0,0,0-.75,1.46.29.29,0,0,1-.08.13h0a.3.3,0,0,1-.11-.06,12,12,0,0,0-1.19-.94c-.35-.23-.7-.44-1.06-.65s-.86-.47-1.28-.72a9.89,9.89,0,0,1-1.21-.82,3.88,3.88,0,0,1-1-1.34c-.06-.14-.09-.3-.14-.45S215,346.1,215,346.07Z"/><path class="cls-2" d="M222.81,360.37l.09-.43c0-.11,0-.22.09-.33a1.69,1.69,0,0,1,.26-.52,2.94,2.94,0,0,1,.87-.85,2.83,2.83,0,0,1,1.44-.44c.13,0,.25,0,.38,0a.11.11,0,0,0,.08,0l.4.08.32.09a1.66,1.66,0,0,1,.38.18,3,3,0,0,1,.92.86,2.67,2.67,0,0,1,.39.88,2.69,2.69,0,0,1,.5-.51,3,3,0,0,1,1.09-.53,2.18,2.18,0,0,1,.88-.06.47.47,0,0,0,.17,0l.39.08c.11,0,.22.06.33.09a2.22,2.22,0,0,1,.59.31,2.95,2.95,0,0,1,1.22,2.26c0,.13,0,.26,0,.39a.11.11,0,0,0,0,.08l-.09.43a2.81,2.81,0,0,0-.08.31,2.77,2.77,0,0,1-.43.88,4.7,4.7,0,0,1-1.08,1.1q-.35.27-.72.51l-.85.51-.84.49c-.38.23-.76.46-1.12.72a10.66,10.66,0,0,0-1.43,1.16.26.26,0,0,1-.14.09h0a.27.27,0,0,1-.09-.12,12.53,12.53,0,0,0-.81-1.48c-.24-.4-.52-.77-.79-1.14s-.67-.87-1-1.31a9.88,9.88,0,0,1-.87-1.37,4.23,4.23,0,0,1-.48-1.84,4.43,4.43,0,0,1,.06-.51A.27.27,0,0,0,222.81,360.37Z"/><path class="cls-2" d="M208.82,370.59l0-.44c0-.11,0-.22,0-.34a2.26,2.26,0,0,1,.09-.57,2.86,2.86,0,0,1,.58-1.07,2.73,2.73,0,0,1,1.23-.86,2.53,2.53,0,0,1,.38-.07s.06,0,.08,0l.41,0,.33,0a1.52,1.52,0,0,1,.42.06,2.88,2.88,0,0,1,1.13.54,2.59,2.59,0,0,1,.64.72,3,3,0,0,1,.32-.64,2.76,2.76,0,0,1,.87-.83,2,2,0,0,1,.83-.32l.17,0,.4-.05H217a2.08,2.08,0,0,1,.66.11,2.83,2.83,0,0,1,1,.55,2.9,2.9,0,0,1,.86,1.24,2.32,2.32,0,0,1,.07.38s0,.06,0,.08l.05.43c0,.11,0,.22,0,.32a2.43,2.43,0,0,1-.14,1,5.1,5.1,0,0,1-.69,1.38c-.17.24-.35.48-.54.7s-.43.5-.66.75l-.64.72c-.3.33-.59.67-.86,1a11,11,0,0,0-1,1.54.28.28,0,0,1-.11.13h0a.25.25,0,0,1-.12-.08,12.24,12.24,0,0,0-1.22-1.17c-.36-.3-.73-.57-1.1-.84s-.9-.63-1.34-1a9.58,9.58,0,0,1-1.25-1,4.13,4.13,0,0,1-1-1.6,3.1,3.1,0,0,1-.11-.51A.3.3,0,0,0,208.82,370.59Z"/><path class="cls-2" d="M223.83,385.8l.2-.56.18-.42a2.8,2.8,0,0,1,.44-.64,3.84,3.84,0,0,1,1.31-.95,3.74,3.74,0,0,1,2-.32,2.62,2.62,0,0,1,.5.13.45.45,0,0,0,.11,0l.51.18.41.17a2.39,2.39,0,0,1,.47.31A3.79,3.79,0,0,1,231,385a3.73,3.73,0,0,1,.36,1.25,3.55,3.55,0,0,1,.75-.59,4,4,0,0,1,1.53-.5,2.76,2.76,0,0,1,1.18.09.79.79,0,0,0,.22.06l.51.18.41.18a2.7,2.7,0,0,1,.73.52,3.86,3.86,0,0,1,1.19,3.22,3.07,3.07,0,0,1-.13.5s0,.06,0,.1l-.19.55c-.07.13-.11.26-.17.4a3.71,3.71,0,0,1-.72,1.08,6.48,6.48,0,0,1-1.64,1.25,10.4,10.4,0,0,1-1.05.54l-1.22.52-1.2.49c-.55.23-1.09.47-1.62.74a14.48,14.48,0,0,0-2.1,1.27c-.06,0-.12.1-.2.09h0a.46.46,0,0,1-.09-.17,17,17,0,0,0-.8-2.12c-.25-.56-.54-1.1-.83-1.64s-.72-1.28-1.07-1.92a13,13,0,0,1-.89-2,5.64,5.64,0,0,1-.29-2.51,3.9,3.9,0,0,1,.18-.67A.94.94,0,0,0,223.83,385.8Z"/><path class="cls-2" d="M202.2,399.44l-.1-.63c0-.16,0-.32,0-.48a2.86,2.86,0,0,1,.1-.83,4,4,0,0,1,.76-1.57,4.17,4.17,0,0,1,1.72-1.3,4.72,4.72,0,0,1,.54-.13.2.2,0,0,0,.11,0l.58-.09.47,0a3,3,0,0,1,.6,0,4.34,4.34,0,0,1,1.65.71,3.84,3.84,0,0,1,1,1,3.4,3.4,0,0,1,.42-.93,4.09,4.09,0,0,1,1.2-1.25,3,3,0,0,1,1.16-.51.86.86,0,0,0,.23-.05l.58-.09.48,0a3.07,3.07,0,0,1,1,.13,4.15,4.15,0,0,1,1.44.72,4.06,4.06,0,0,1,1.3,1.73,2.5,2.5,0,0,1,.13.54s0,.08,0,.11l.09.61a3.75,3.75,0,0,0,.05.47,3.86,3.86,0,0,1-.15,1.39,6.88,6.88,0,0,1-.91,2c-.23.36-.47.7-.73,1s-.59.74-.9,1.1l-.88,1.07c-.41.49-.8,1-1.16,1.52a15.06,15.06,0,0,0-1.35,2.25.38.38,0,0,1-.15.2h0a.45.45,0,0,1-.17-.11,15.43,15.43,0,0,0-1.82-1.6c-.52-.41-1.07-.78-1.62-1.14s-1.32-.85-2-1.29a13.36,13.36,0,0,1-1.85-1.42,6.05,6.05,0,0,1-1.53-2.23,4.55,4.55,0,0,1-.17-.73C202.22,399.56,202.23,399.49,202.2,399.44Z"/><path class="cls-2" d="M223.06,415.18l.11-.63c0-.15.07-.31.11-.46a2.68,2.68,0,0,1,.37-.76,4.12,4.12,0,0,1,3.26-1.91,3.31,3.31,0,0,1,.55,0,.25.25,0,0,0,.12,0l.57.1.46.11a2.5,2.5,0,0,1,.55.25,4.06,4.06,0,0,1,1.34,1.2,4,4,0,0,1,.6,1.25,3.32,3.32,0,0,1,.7-.75,4,4,0,0,1,1.53-.79,3,3,0,0,1,1.26-.11,1,1,0,0,0,.24,0l.57.1c.16,0,.32.07.47.12a2.86,2.86,0,0,1,.86.42,4.12,4.12,0,0,1,1.13,1.15,4,4,0,0,1,.68,2.05,2.5,2.5,0,0,1,0,.55s0,.08,0,.12l-.11.61c-.05.15-.07.3-.11.45a3.67,3.67,0,0,1-.58,1.27,6.8,6.8,0,0,1-1.51,1.61,10.83,10.83,0,0,1-1,.75c-.39.26-.79.51-1.2.76l-1.18.73c-.54.34-1.07.69-1.59,1.06a16.27,16.27,0,0,0-2,1.71.35.35,0,0,1-.2.13h0a.4.4,0,0,1-.12-.16,16.81,16.81,0,0,0-1.21-2.1c-.36-.56-.76-1.08-1.17-1.6s-1-1.23-1.46-1.85a13.9,13.9,0,0,1-1.29-1.94,6,6,0,0,1-.73-2.61,4.63,4.63,0,0,1,.07-.74A1.1,1.1,0,0,0,223.06,415.18Z"/><path class="cls-2" d="M199.33,428.21l-.22-.6c0-.15-.09-.3-.14-.46a2.57,2.57,0,0,1-.06-.83,4.11,4.11,0,0,1,1.85-3.31,2.84,2.84,0,0,1,.5-.23s.08,0,.1,0l.55-.2.45-.14a2.45,2.45,0,0,1,.6-.06,4.08,4.08,0,0,1,1.76.36,3.66,3.66,0,0,1,1.15.78,3.39,3.39,0,0,1,.23-1A4.07,4.07,0,0,1,207,421a3.12,3.12,0,0,1,1-.73.94.94,0,0,0,.23-.1l.54-.2.46-.14a3.11,3.11,0,0,1,1-.06,4.18,4.18,0,0,1,3.18,1.85,2.84,2.84,0,0,1,.23.5s0,.07,0,.1l.22.59c0,.15.09.29.13.44a3.83,3.83,0,0,1,.14,1.39,6.6,6.6,0,0,1-.49,2.15,12.17,12.17,0,0,1-.51,1.17c-.21.42-.43.84-.65,1.26l-.65,1.23q-.45.84-.84,1.71a15.83,15.83,0,0,0-.86,2.48.35.35,0,0,1-.1.22h0a.44.44,0,0,1-.19-.07,16.94,16.94,0,0,0-2.11-1.21c-.59-.29-1.2-.54-1.81-.79s-1.47-.56-2.2-.86a13.46,13.46,0,0,1-2.09-1,6,6,0,0,1-1.95-1.88,5.86,5.86,0,0,1-.32-.67A.51.51,0,0,0,199.33,428.21Z"/><polygon class="cls-12" points="56.82 252 228.51 293.69 212.54 316.13 54.9 262.36 56.82 252"/><polygon class="cls-12" points="398.5 252 226.81 293.69 242.78 316.13 400.42 262.36 398.5 252"/></g></g></svg>