<svg xmlns="http://www.w3.org/2000/svg" viewBox="0 0 436.5 829.51"><defs><style>.cls-1{fill:#e8e8e8;}.cls-2{fill:#1e9099;}.cls-3{fill:#1a9099;}.cls-4{fill:#188689;}.cls-5{fill:#fff;}.cls-6{fill:#f3b436;}.cls-7{fill:#dba756;opacity:0.4;}.cls-8{fill:#1a1a1a;}.cls-9{fill:#dff3fd;}.cls-10{fill:#e5a330;}.cls-11{fill:#ffc764;}.cls-12{fill:#138184;}.cls-13{fill:#3fc4c4;}</style></defs><title>CRISPIALEATORIO</title><g id="Capa_2" data-name="Capa 2"><g id="Capa_1-2" data-name="Capa 1"><ellipse class="cls-1" cx="224.95" cy="793.78" rx="181.94" ry="35.72"/><path class="cls-2" d="M309.05,264.6c31.51,25.7,109.8,238,109.8,238s20.61,15.08,17.29,20.83c-2.56,4.42-12.16-6.24-12.16-6.24s8.43,14.94,5,18.23-11.59-13.85-11.59-13.85,3.63,18.14-.13,18.07-8.58-18.58-8.58-18.58-4.53,8.2-8.22,6.26c-4.22-2.22,5-19.71,5-19.71-42.49-134.57-111-231.48-111-231.48Z"/><path class="cls-2" d="M127.48,264.6C96,290.3,16.21,502.28,16.21,502.28S-2.94,517.69.39,523.44c2.56,4.42,12.16-6.24,12.16-6.24s-8.43,14.94-5,18.23,11.58-13.85,11.58-13.85-3.62,18.14.14,18.07,8.58-18.58,8.58-18.58,4.53,8.2,8.22,6.26c4.22-2.22-5.12-19.52-5.12-19.52C73.41,373.24,142,276.14,142,276.14Z"/><path class="cls-3" d="M348.41,354.81h0l0,0q-3.63-6-7.7-11.65c-45.91-73.65-36.82-142.52-33.05-161.55.42-1.69.8-3.4,1.16-5.12v0h0a136.61,136.61,0,0,0,2.74-27.32C311.55,83.3,265.09,30,207.77,30S104,83.3,104,149.08a134.8,134.8,0,0,0,5.44,38.14h0q1,3.53,2.27,7c20,65.82-5.17,134.88-19,165.35q-4.34,7.74-8,16l0,.06h0A189.18,189.18,0,0,0,69.12,451.3c0,95,68.41,172,152.8,172s152.8-77,152.8-172C374.72,415.53,365,382.32,348.41,354.81Z"/><rect class="cls-3" x="170.68" y="597.92" width="14.99" height="190.02"/><rect class="cls-3" x="251.54" y="597.92" width="14.99" height="190.02"/><path class="cls-3" d="M170.68,783s-32.45,2.89-25.43,13.62h40.43V783Z"/><path class="cls-3" d="M266.53,783S299,785.9,292,796.63H251.54V783Z"/><path class="cls-4" d="M357,371.1s29.11,58.84,13,122.69-66.09,135.46-159.95,129C210.06,622.75,410.84,590.66,357,371.1Z"/><path class="cls-4" d="M170.68,613.35s5,3.25,15,5v8.75s-8.43,1.76-15-3.68Z"/><path class="cls-4" d="M266.53,615.82s-5.58,3.16-15,4.06v7.17s9.82,2,15-3.79Z"/><path class="cls-4" d="M293.14,66.19S289.43,101.36,164,99.28c0,0,33.69-13.79,33.69-22.25,0,0-18,12.57-46.6,15.56,0,0,16.77-17.57,16-24.14,0,0-39.18,1.2-52.09,32.64l4.16-33.86,41.3-13.65,24.58,4,103.59-3.42Z"/><circle class="cls-5" cx="174.54" cy="140.11" r="21.11"/><circle class="cls-6" cx="174.54" cy="140.11" r="14.66" transform="translate(-1.93 277.79) rotate(-76.72)"/><path class="cls-7" d="M187.73,140.11a13.2,13.2,0,1,1-26.39,0c0-7.28,5.91,6.58,13.2,6.58S187.73,132.83,187.73,140.11Z"/><circle class="cls-8" cx="174.54" cy="140.11" r="10.69" transform="translate(-2.33 277.28) rotate(-76.55)"/><circle class="cls-5" cx="179.48" cy="135.91" r="1.62"/><path class="cls-9" d="M160.52,126.52s-4.5,14.67-.9,24C151.51,135.82,156,128.67,160.52,126.52Z"/><circle class="cls-5" cx="247.49" cy="139.04" r="21.11"/><circle class="cls-6" cx="247.49" cy="139.04" r="14.66" transform="translate(-34.93 110.37) rotate(-23.53)"/><path class="cls-7" d="M260.68,139a13.2,13.2,0,1,1-26.39,0c0-7.28,5.91,6.58,13.2,6.58S260.68,131.76,260.68,139Z"/><circle class="cls-8" cx="247.49" cy="139.04" r="10.69" transform="matrix(0.16, -0.99, 0.99, 0.16, 71.43, 361.73)"/><circle class="cls-5" cx="252.43" cy="134.84" r="1.62"/><path class="cls-9" d="M261,126.26s4.87,12.16.9,22.54C269.07,135.2,267.45,129.12,261,126.26Z"/><path class="cls-6" d="M311.22,158.64c5.36-24.31,8.83-77.65,6.71-98.91-1.32-13.21-9.56-45.85-33.58-36.26.51-7.07-3-19.78-12-23,3,3.55,3,10.61,0,15.92-10-11.49-20.67-11.49-35.61-14.15-27.89-5.3-104.38-4-125.32,36.2-12,23-13.11,90.45-7.27,118.23,0,0,3.39-91.72,53.58-87.69,0,0-5.48,14.65-12.79,23.61,0,0,24.88-5,46.94-18.17-1.16,4.88-10.45,13.69-34.66,22.65,34.83-.43,96-7.35,118.9-24.15C301.39,74.21,311.22,158.64,311.22,158.64Z"/><path class="cls-10" d="M158.29,96.67l-1,.4c34.84-.43,96-7.35,118.9-24.16a15.74,15.74,0,0,1,9.44,4.15c-1.73-3.37-13.48-12.28-13.48-12.28C247.13,80.93,199.46,90.43,158.29,96.67Z"/><path class="cls-6" d="M145,92.59s24.89-5,47-18.17a12.6,12.6,0,0,1-3.47,5.38c4.07-2.26,7-5.49,7-11.35C181.62,79,146.24,91.05,145,92.59Z"/><path class="cls-6" d="M317.92,59.72c-1.31-13.21-9.55-45.85-33.57-36.27,0-.5,0-1,0-1.6-1,.53-1.61,1.15-.49,2.15,25.23,9.79,32.73,36.06,33.82,64.78C318.51,77.71,318.7,67.46,317.92,59.72Z"/><path class="cls-11" d="M272.12,16.15v-.06C262.23,4.91,251.59,4.87,236.79,2.24c-27.9-5.3-104.38-4-125.32,36.2-3,5.79-5.26,13.67-6.86,22.68C129.68,9,203.18-3,272.12,16.15Z"/><path class="cls-12" d="M140.87,153.66a38.64,38.64,0,0,0,3.85,7.72,27,27,0,0,0,5.62,6.23,24.31,24.31,0,0,0,7.26,4.14,30.76,30.76,0,0,0,4.09,1.25,16.56,16.56,0,0,0,2.12.42c.72.12,1.43.27,2.16.42-.73.06-1.46.1-2.2.13l-1.11,0a6,6,0,0,1-1.12,0,23,23,0,0,1-4.41-.74,20.49,20.49,0,0,1-8-4.08,22.78,22.78,0,0,1-8.21-15.49Z"/><path class="cls-12" d="M275.24,153.31a19.76,19.76,0,0,1-1.57,7.59,19.48,19.48,0,0,1-4.39,6.59,18.41,18.41,0,0,1-3.19,2.43,16.61,16.61,0,0,1-11.46,1.92,30.54,30.54,0,0,0,7.26-1.82,18.87,18.87,0,0,0,6-4,24.19,24.19,0,0,0,4.37-5.82A40.06,40.06,0,0,0,275.24,153.31Z"/><path class="cls-12" d="M222.08,186.76c-11.79-12.41-8.06-13.6-9.62-19.55-1.61-6.19-4-3.46-4-3.46-11.15,17.65-1.92,30.59,1.79,34.71a8.45,8.45,0,0,0,1.36,1.38h0a8.38,8.38,0,1,0,10.46-13.09Z"/><polygon class="cls-4" points="219.28 283.79 228.13 307.49 309.05 269.27 307.97 258.98 219.28 283.79"/><polygon class="cls-4" points="211.72 283.24 201.71 307.49 118.11 268.75 118.62 260.09 211.72 283.24"/><path class="cls-12" d="M170.33,217.94c4.83,2.21,9.56,4.32,14.32,6.29S194.2,228,199,229.56a135.3,135.3,0,0,0,14.75,4c1.25.24,2.5.5,3.76.77l3.82.6,1.92.34c.65.06,1.29.11,1.94.2,1.3.15,2.61.31,3.93.53-1.28.33-2.58.59-3.9.85-.65.13-1.31.23-2,.35l-2,.17c-1.33.09-2.67.19-4,.22s-2.68-.09-4-.16a63.64,63.64,0,0,1-15.76-3.11,74.79,74.79,0,0,1-14.59-6.57A57.14,57.14,0,0,1,170.33,217.94Z"/><path class="cls-8" d="M184.06,112.51a35.46,35.46,0,0,0-23.31,4.82,2.43,2.43,0,0,1-3.14-.31h0a2.3,2.3,0,0,1,.78-3.16,41,41,0,0,1,26.25-8.15c4.36.15,7.76,2.79,7.1,4.77h0C191.08,112.47,187.54,113,184.06,112.51Z"/><path class="cls-8" d="M238,111.44a35.46,35.46,0,0,1,23.31,4.82,2.42,2.42,0,0,0,3.14-.31h0a2.29,2.29,0,0,0-.78-3.16,41.08,41.08,0,0,0-26.25-8.15c-4.36.15-7.76,2.79-7.09,4.78h0C230.94,111.4,234.48,111.91,238,111.44Z"/><path class="cls-12" d="M192.66,103.54s5.19,7.41-.74,9.64C199.58,113.43,196.86,105.77,192.66,103.54Z"/><path class="cls-13" d="M121.86,117.57l6.48-16.48,6.48,16.48a7,7,0,1,1-13,0Z"/><path class="cls-13" d="M135.53,107.13l3.08-7.85,3.09,7.85a3.31,3.31,0,1,1-6.17,0Z"/><path class="cls-6" d="M201.53,418.4c1.56-13.33,3-26.68,4.55-40a641.12,641.12,0,0,0,4.45-82.7c-1.27-.8-.59-3.63,1.08-3.38a51.54,51.54,0,0,0,6.19.54,1.18,1.18,0,0,1,1,.62.49.49,0,0,1,.66.43c4.88,26.34,11.62,54.19,16.09,80.67,4.29,25.46,5.88,49.87,9.72,75.45-2.73,6.7-4.56,11-7.52,15.52-3.71,5.65-7.8,11.57-12.7,15.8a200.48,200.48,0,0,0-14.34-24.64c-3.77-5.59-8.14-10.54-12.16-15.81C198.74,433.29,200.75,425,201.53,418.4Z"/><path class="cls-6" d="M204.48,286.38c.09,10.59,3.3,21.56,12.45,19.78,6.53-1.28,9.86-16.43,7-25.56-1.57-5-4.76-7.62-8.1-8.13C210.31,271.64,204.39,276.56,204.48,286.38Z"/><polygon class="cls-5" points="119.05 251.52 215.63 271.6 199.75 293.93 118.44 263.4 119.05 251.52"/><polygon class="cls-5" points="306.91 252.63 215.63 271.6 230.18 293.93 309.05 264.6 306.91 252.63"/></g></g></svg>