<svg xmlns="http://www.w3.org/2000/svg" viewBox="0 0 592.97 247.05"><defs><style>.cls-1{font-size:30px;fill:#fff;font-family:Delius-Regular, Delius;}.cls-2{letter-spacing:-0.05em;}.cls-3{letter-spacing:-0.01em;}.cls-4{letter-spacing:-0.03em;}.cls-5{letter-spacing:-0.01em;}.cls-6{letter-spacing:-0.01em;}.cls-7{letter-spacing:0em;}.cls-8{letter-spacing:0em;}.cls-9{stroke:#fff;stroke-miterlimit:10;}.cls-10{letter-spacing:-0.01em;}.cls-11{letter-spacing:-0.04em;}.cls-12{letter-spacing:-0.01em;}.cls-13{letter-spacing:-0.02em;}</style></defs><title>TEXTO_10ALEATORIO</title><g id="Capa_2" data-name="Capa 2"><g id="Capa_1-2" data-name="Capa 1"><text class="cls-1" transform="translate(6.27 22.95)"><tspan class="cls-2">F</tspan><tspan x="15.33" y="0">elicit</tspan><tspan class="cls-3" x="77.04" y="0">a</tspan><tspan x="94.02" y="0">ciones c</tspan><tspan class="cls-4" x="202.47" y="0">r</tspan><tspan x="213.81" y="0">eas</tspan><tspan class="cls-5" x="260.75" y="0">t</tspan><tspan x="270.53" y="0">e un BANG, espe</tspan><tspan class="cls-6" x="493.7" y="0">r</tspan><tspan x="505.61" y="0">amos </tspan><tspan x="26.44" y="36">q</tspan><tspan class="cls-7" x="43.03" y="36">u</tspan><tspan x="60.4" y="36">e h</tspan><tspan class="cls-3" x="101.02" y="36">a</tspan><tspan x="118" y="36">yas disfrut</tspan><tspan class="cls-8" x="260.65" y="36">a</tspan><tspan x="277.66" y="36">do </tspan><tspan class="cls-3" x="319.3" y="36">d</tspan><tspan x="336.79" y="36">e la experiencia.</tspan><tspan class="cls-9"><tspan class="cls-10" x="103.87" y="108">¡</tspan><tspan class="cls-11" x="110.08" y="108">V</tspan><tspan x="127.66" y="108">e y c</tspan><tspan class="cls-7" x="190.42" y="108">u</tspan><tspan x="207.79" y="108">é</tspan><tspan class="cls-12" x="223.96" y="108">n</tspan><tspan x="241.06" y="108">tale a tus amigos! </tspan></tspan><tspan class="cls-13" x="79.53" y="180">P</tspan><tspan x="96.93" y="180">or último haz</tspan><tspan class="cls-5" x="273.33" y="180">t</tspan><tspan x="283.1" y="180">e esta p</tspan><tspan class="cls-4" x="387.71" y="180">r</tspan><tspan x="399.05" y="180">egu</tspan><tspan class="cls-12" x="449.48" y="180">n</tspan><tspan x="466.58" y="180">ta.</tspan></text></g></g></svg>