<svg xmlns="http://www.w3.org/2000/svg" viewBox="0 0 470.18 70.71"><defs><style>.cls-1{fill:#fac645;}.cls-2{font-size:35px;fill:#230821;stroke:#230821;stroke-miterlimit:10;font-family:ShadowsIntoLightTwo-Regular, Shadows Into Light Two;}.cls-3{letter-spacing:-0.06em;}.cls-4{letter-spacing:-0.03em;}</style></defs><title>ESCOGER</title><g id="Capa_2" data-name="Capa 2"><g id="Capa_1-2" data-name="Capa 1"><path class="cls-1" d="M120.84.38c-24-.76-50.92-.76-73.55,3.7C14.76,10-3.64,25.66.6,42.79c5.66,16.38,32.53,22.35,60.82,23.1,32.53,1.5,65.06-.73,97.6.77,33.94.75,66.48,1.51,99,1.52,36.78,0,73.55,1.51,110.32,2.26,29.71.75,63.65.76,84.87-11.15,20.55-11.52,24.24-32.89,1-44.46C427,1.36,154.79.38,120.84.38Z"/><text class="cls-2" transform="translate(51.06 52.59) rotate(0.02)"><tspan class="cls-3">E</tspan><tspan x="16.41" y="0">scoger de </tspan><tspan class="cls-4" x="168.98" y="0">f</tspan><tspan x="180.67" y="0">orma aleatoria</tspan></text></g></g></svg>