<svg xmlns="http://www.w3.org/2000/svg" viewBox="0 0 398.62 465.22"><defs><style>.cls-1{fill:#263238;}.cls-2{fill:#455a64;}.cls-3{fill:#3ac7ce;}.cls-4{fill:#fafafa;}.cls-5{fill:#fff;}.cls-6{opacity:0.4;}.cls-7{fill:#e0e0e0;}</style></defs><title>CRONOMETROALEATORIO</title><g id="Capa_2" data-name="Capa 2"><g id="Capa_1-2" data-name="Capa 1"><rect class="cls-1" x="44.35" y="99.19" width="23.14" height="36.12" transform="translate(-62.93 64.82) rotate(-40.7)"/><path class="cls-2" d="M69.37,96.11,33.23,127.19,7.85,97.68c10-14,21.89-24.58,36.14-31.08Z"/><path class="cls-1" d="M39.28,122c-.2.18-6.32-6.53-13.67-15S12.46,91.56,12.66,91.39s6.32,6.53,13.67,15S39.48,121.82,39.28,122Z"/><path class="cls-1" d="M46.17,116.07a39.66,39.66,0,0,1-4.1-4.51c-2.44-2.85-5.76-6.84-9.4-11.27L23.4,88.91l-2.79-3.47c-.66-.83-1-1.24-1-1.28.36-.34,6.52,6.66,13.8,15.52,3.64,4.43,6.88,8.49,9.19,11.45S46.28,116,46.17,116.07Z"/><path class="cls-1" d="M55.34,108.18a39,39,0,0,1-4.12-4.56c-2.46-2.9-5.8-6.94-9.45-11.44L32.48,80.61l-2.76-3.54a10.43,10.43,0,0,1-1-1.34c.12-.15,1.79,1.59,4.26,4.45s5.85,6.9,9.5,11.39,6.92,8.61,9.23,11.62A40,40,0,0,1,55.34,108.18Z"/><path class="cls-1" d="M63.7,100.79c-.2.17-6.28-6.62-13.57-15.16S37.08,70,37.29,69.84,43.56,76.45,50.86,85,63.9,100.62,63.7,100.79Z"/><rect class="cls-1" x="331.26" y="103.01" width="23.14" height="36.12" transform="translate(193.51 -210.43) rotate(46.3)"/><path class="cls-2" d="M364.64,133.39,331.71,98.93,359.86,72c14.5,9.22,25.69,20.57,32.93,34.46Z"/><path class="cls-1" d="M337.23,104.7c-.19-.19,6.19-6.66,14.24-14.44s14.74-13.94,14.92-13.75S360.2,83.16,352.14,91,337.41,104.89,337.23,104.7Z"/><path class="cls-1" d="M343.5,111.27a38.24,38.24,0,0,1,4.28-4.33c2.73-2.59,6.54-6.12,10.77-10l10.88-9.85,3.32-3c.8-.7,1.18-1.06,1.23-1.07.36.34-6.32,6.86-14.78,14.59-4.23,3.87-8.12,7.32-11,9.78S343.59,111.37,343.5,111.27Z"/><path class="cls-1" d="M351.86,120a39.9,39.9,0,0,1,4.34-4.36c2.77-2.6,6.63-6.15,10.92-10l11.07-9.88c1.3-1.12,2.42-2.1,3.39-2.95a11.32,11.32,0,0,1,1.29-1c.16.11-1.49,1.87-4.22,4.48s-6.58,6.21-10.88,10.09-8.23,7.36-11.11,9.83S352,120.11,351.86,120Z"/><path class="cls-1" d="M359.68,128c-.19-.19,6.28-6.62,14.43-14.35S389,99.78,389.21,100s-6.28,6.62-14.44,14.35S359.86,128.17,359.68,128Z"/><rect class="cls-1" x="188.93" y="37.06" width="27.4" height="42.75"/><path class="cls-3" d="M231,49.84H174.59V3.76c19.75-4.86,38.62-5.16,56.42,0Z"/><path class="cls-1" d="M231.68,4a11.54,11.54,0,0,1-2.09,1,53.23,53.23,0,0,1-5.94,2.19,71.37,71.37,0,0,1-9.15,2.17,77.93,77.93,0,0,1-11.48,1,78.56,78.56,0,0,1-11.49-.86,69,69,0,0,1-9.17-2.09,50.84,50.84,0,0,1-6-2.13,10.89,10.89,0,0,1-2.09-1c.07-.17,3.12,1.11,8.24,2.49a80.3,80.3,0,0,0,9.12,1.86A85,85,0,0,0,203,9.36a85.56,85.56,0,0,0,11.34-.89,78.43,78.43,0,0,0,9.1-2C228.57,5.1,231.61,3.79,231.68,4Z"/><path class="cls-1" d="M193.23,49.72c-.27,0-.49-8.85-.49-19.76s.22-19.76.49-19.76.48,8.84.48,19.76S193.49,49.72,193.23,49.72Z"/><path class="cls-1" d="M204,50c-.26,0-.48-8.88-.48-19.84s.22-19.85.48-19.85.48,8.88.48,19.85S204.23,50,204,50Z"/><path class="cls-1" d="M214.7,49.81c-.27,0-.48-8.89-.48-19.85s.21-19.85.48-19.85.48,8.89.48,19.85S215,49.81,214.7,49.81Z"/><path class="cls-1" d="M223.64,49.81c-.27,0-.48-9.61-.48-21.46s.21-21.45.48-21.45.48,9.6.48,21.45S223.9,49.81,223.64,49.81Z"/><path class="cls-1" d="M183.07,49.53c-.26,0-.48-9.6-.48-21.45s.22-21.45.48-21.45.49,9.6.49,21.45S183.34,49.53,183.07,49.53Z"/><circle class="cls-3" cx="199.31" cy="265.91" r="199.31" transform="translate(-129.65 218.82) rotate(-45)"/><circle class="cls-4" cx="199.31" cy="264.32" r="167.39" transform="translate(-128.53 218.35) rotate(-45)"/><path class="cls-1" d="M342.14,258.24c-5.31.23-9.63,0-9.66-.45s4.26-1.09,9.57-1.39,9.63-.1,9.66.45S347.45,258,342.14,258.24Z"/><path class="cls-1" d="M338.58,296.78c-5.18-1.21-9.29-2.56-9.19-3s4.4.09,9.59,1.22,9.31,2.48,9.19,3S343.75,298,338.58,296.78Z"/><path class="cls-1" d="M324.76,332.93c-4.66-2.56-8.26-5-8-5.39s4.21,1.27,8.91,3.76,8.3,4.9,8,5.39S329.41,335.49,324.76,332.93Z"/><path class="cls-1" d="M301.74,364.05c-3.8-3.71-6.62-7-6.3-7.34s3.72,2.35,7.58,6,6.69,6.93,6.31,7.33S305.55,367.76,301.74,364.05Z"/><path class="cls-1" d="M271.26,387.89c-2.67-4.59-4.51-8.51-4.11-8.75s3,3.26,5.7,7.81,4.58,8.47,4.11,8.75S273.93,392.49,271.26,387.89Z"/><path class="cls-1" d="M235.49,402.66c-1.33-5.15-2.05-9.42-1.59-9.54s2,3.94,3.37,9.06,2.13,9.4,1.6,9.54S236.82,407.8,235.49,402.66Z"/><path class="cls-1" d="M197.06,407.27c.08-5.31.53-9.62,1-9.62s.85,4.32.85,9.64-.46,9.62-1,9.61S197,412.59,197.06,407.27Z"/><path class="cls-1" d="M158.79,401.46c1.51-5.1,3.11-9.12,3.56-9s-.34,4.39-1.78,9.51-3,9.14-3.56,9S157.28,406.56,158.79,401.46Z"/><path class="cls-1" d="M123.51,385.55c2.83-4.5,5.45-7.95,5.85-7.7s-1.52,4.13-4.27,8.67-5.38,8-5.85,7.71S120.69,390.05,123.51,385.55Z"/><path class="cls-1" d="M93.78,360.78c3.93-3.59,7.37-6.22,7.69-5.87s-2.56,3.58-6.43,7.22-7.32,6.27-7.69,5.87S89.86,364.36,93.78,360.78Z"/><path class="cls-1" d="M71.75,329c4.75-2.4,8.77-4,9-3.59s-3.43,2.76-8.13,5.23-8.73,4.08-9,3.59S67,331.36,71.75,329Z"/><path class="cls-1" d="M59.11,292.39c5.22-1,9.52-1.49,9.62-1s-4,1.73-9.25,2.84-9.5,1.57-9.61,1S53.9,293.42,59.11,292.39Z"/><path class="cls-1" d="M56.72,253.75c5.3.39,9.58,1.09,9.55,1.56s-4.36.6-9.67.29-9.58-1-9.54-1.56S51.42,253.36,56.72,253.75Z"/><path class="cls-1" d="M64.76,215.89c5,1.81,8.93,3.63,8.77,4.08s-4.36-.61-9.39-2.34-9-3.55-8.76-4.07S59.76,214.08,64.76,215.89Z"/><path class="cls-1" d="M82.7,181.6c4.33,3.09,7.62,5.9,7.35,6.28s-4-1.74-8.41-4.76-7.67-5.83-7.35-6.28S78.37,178.52,82.7,181.6Z"/><path class="cls-1" d="M109.15,153.36c3.36,4.12,5.78,7.71,5.42,8s-3.43-2.76-6.84-6.84-5.84-7.66-5.41-8S105.8,149.23,109.15,153.36Z"/><path class="cls-1" d="M142.2,133.22c2.12,4.87,3.49,9,3.06,9.17s-2.55-3.58-4.75-8.42-3.56-9-3-9.18S140.08,128.34,142.2,133.22Z"/><path class="cls-1" d="M179.46,122.73c.73,5.27.94,9.6.47,9.66s-1.49-4.13-2.3-9.39-1-9.58-.47-9.66S178.74,117.47,179.46,122.73Z"/><path class="cls-1" d="M218.17,122.58c-.7,5.27-1.65,9.5-2.11,9.44s-.34-4.39.28-9.67,1.56-9.5,2.11-9.43S218.87,117.31,218.17,122.58Z"/><path class="cls-1" d="M255.49,132.83c-2.09,4.88-4.15,8.69-4.58,8.51s.86-4.31,2.88-9.23,4.08-8.73,4.58-8.51S257.59,127.94,255.49,132.83Z"/><path class="cls-1" d="M288.68,152.74c-3.33,4.14-6.33,7.26-6.69,7s2-3.92,5.24-8.12,6.27-7.32,6.7-7S292,148.59,288.68,152.74Z"/><path class="cls-1" d="M315.35,180.78c-4.32,3.11-8,5.32-8.32,4.94s3-3.25,7.23-6.43,8-5.38,8.31-4.93S319.66,177.68,315.35,180.78Z"/><path class="cls-1" d="M333.52,215c-5,1.83-9.17,3-9.34,2.52s3.73-2.34,8.69-4.25,9.14-3,9.34-2.51S338.51,213.13,333.52,215Z"/><path class="cls-5" d="M134.31,83.23a3.29,3.29,0,0,1-.57.26l-1.7.69c-1.48.62-3.74,1.38-6.53,2.62a194.42,194.42,0,0,0-23.15,11.55c-4.74,2.73-9.75,6-15,9.69a203.82,203.82,0,0,0-16,12.78A188.44,188.44,0,0,0,18.85,197.6a204,204,0,0,0-6.09,19.57c-1.52,6.24-2.75,12.1-3.57,17.5a192.82,192.82,0,0,0-2.36,25.76c-.14,3.06,0,5.44-.07,7.05,0,.76,0,1.37,0,1.83a3.91,3.91,0,0,1,0,.63,2.54,2.54,0,0,1-.06-.63c0-.46,0-1.06-.07-1.83,0-1.61-.2-4-.12-7.05a182,182,0,0,1,2.06-25.86c.78-5.43,2-11.32,3.48-17.6a200,200,0,0,1,6-19.68,186.95,186.95,0,0,1,52.72-77.13,198.42,198.42,0,0,1,16.15-12.77c5.3-3.67,10.35-6.93,15.13-9.62a180.63,180.63,0,0,1,23.34-11.31c2.83-1.2,5.11-1.9,6.62-2.46l1.73-.6A2.57,2.57,0,0,1,134.31,83.23Z"/><path class="cls-5" d="M189.94,72.43c0,.14-2.2.39-5.77.76s-8.5.91-13.92,1.62-10.33,1.44-13.88,2a41.06,41.06,0,0,1-5.78.74c0-.13,2.13-.69,5.66-1.41s8.43-1.57,13.87-2.28,10.4-1.13,14-1.33A32.4,32.4,0,0,1,189.94,72.43Z"/><g class="cls-6"><path d="M65.53,364.93s86.74,136.9,221.3,66.78c140.46-73.18,62.87-240.95,62.87-240.95s66.09,133.7-70.83,220.87c-34.11,21.71-71.23,21.73-99.56,18.89C106.94,423.27,65.53,364.93,65.53,364.93Z"/></g><path class="cls-7" d="M246,175.36a572,572,0,0,1-2.23,73.58c-.84,8.84-1.91,17.79-5.26,26S229.21,290.73,221,294.2s-18.71,2-24.43-4.76Z"/><polygon class="cls-3" points="195.67 251.12 256.51 148.67 219.79 264.32 201.03 269.94 195.67 251.12"/><g class="cls-6"><polygon points="256.51 148.67 211.39 253.34 219.79 264.32 256.51 148.67"/></g><circle class="cls-4" cx="201.03" cy="269.94" r="19.58" transform="translate(-97.62 425.13) rotate(-80.78)"/><path class="cls-1" d="M220.61,269.94a43,43,0,0,0-.79-4.74,19.6,19.6,0,0,0-7.15-10.56A19.2,19.2,0,0,0,194.51,252a17.87,17.87,0,0,0-4.83,2.61,17.65,17.65,0,0,0-4,4.06,19,19,0,0,0,0,22.59,19.36,19.36,0,0,0,8.87,6.68,19.17,19.17,0,0,0,18.16-2.68,19.56,19.56,0,0,0,7.15-10.56,43.13,43.13,0,0,0,.79-4.73,14.91,14.91,0,0,1-.43,4.82,19.48,19.48,0,0,1-7.09,11,19.82,19.82,0,0,1-18.88,3,20.06,20.06,0,0,1-9.33-6.95,19.91,19.91,0,0,1,0-23.71,20,20,0,0,1,9.32-6.95,20.11,20.11,0,0,1,10.51-.82,19.75,19.75,0,0,1,8.36,3.79,19.51,19.51,0,0,1,7.1,11A15,15,0,0,1,220.61,269.94Z"/><path class="cls-2" d="M215.6,269.94A14.57,14.57,0,1,1,201,255.36,14.57,14.57,0,0,1,215.6,269.94Z"/></g></g></svg>